{"glyphs":{"0":{"ha":810,"x_min":92,"x_max":718,"o":"m 718 383 q 635 89 718 192 q 406 -14 553 -14 q 175 89 259 -14 q 92 383 92 193 l 92 604 q 174 898 92 794 q 404 1002 257 1002 q 635 898 551 1002 q 718 604 718 794 l 718 383 m 637 617 q 577 851 637 769 q 404 932 517 932 q 232 851 291 932 q 173 617 173 769 l 173 371 q 233 137 173 220 q 406 54 293 54 q 577 137 518 54 q 637 371 637 220 l 637 617 z "},"1":{"ha":770,"x_min":127,"x_max":460,"o":"m 460 -5 l 378 -5 l 378 903 l 127 873 l 127 930 l 460 990 l 460 -5 z "},"2":{"ha":770,"x_min":72,"x_max":706,"o":"m 706 0 l 93 0 l 93 62 l 416 429 q 543 598 506 530 q 580 729 580 667 q 528 877 580 821 q 381 932 476 932 q 210 870 269 932 q 152 703 152 808 l 77 703 l 75 707 q 155 916 72 831 q 381 1002 239 1002 q 585 928 509 1002 q 662 732 662 855 q 611 567 662 650 q 468 380 559 483 l 196 72 l 197 68 l 706 68 l 706 0 z "},"3":{"ha":770,"x_min":67,"x_max":686,"o":"m 273 538 l 368 538 q 531 592 475 538 q 587 730 587 646 q 534 878 587 823 q 379 932 482 932 q 223 877 284 932 q 163 729 163 821 l 87 729 l 85 733 q 166 925 82 848 q 379 1002 250 1002 q 590 929 511 1002 q 668 728 668 857 q 625 596 668 658 q 503 505 581 535 q 641 416 595 479 q 686 268 686 353 q 601 61 686 136 q 382 -14 516 -14 q 160 59 253 -14 q 71 264 67 133 l 72 268 l 148 268 q 213 114 148 174 q 382 54 279 54 q 547 109 488 54 q 606 265 606 163 q 544 419 606 369 q 368 469 482 469 l 273 469 l 273 538 z "},"4":{"ha":770,"x_min":47,"x_max":745,"o":"m 591 318 l 745 318 l 745 250 l 591 250 l 591 0 l 510 0 l 510 250 l 47 250 l 47 296 l 502 987 l 591 987 l 591 318 m 143 318 l 510 318 l 510 881 l 506 882 l 471 808 l 143 318 z "},"5":{"ha":770,"x_min":115,"x_max":700,"o":"m 128 447 l 183 987 l 663 987 l 663 912 l 252 912 l 216 560 q 298 612 253 594 q 419 633 342 631 q 623 548 545 635 q 700 315 700 461 q 625 75 700 165 q 399 -14 550 -14 q 196 54 277 -14 q 118 256 115 122 l 119 260 l 192 260 q 249 107 192 160 q 399 54 305 54 q 564 121 509 54 q 618 313 618 187 q 564 491 618 424 q 411 557 509 557 q 266 527 316 557 q 194 436 216 497 l 128 447 z "},"6":{"ha":770,"x_min":103,"x_max":715,"o":"m 439 1002 q 539 990 490 1002 q 627 957 589 979 l 606 890 q 530 922 568 912 q 439 932 492 932 q 257 847 329 932 q 184 623 184 762 l 184 535 q 288 620 225 588 q 428 652 351 652 q 638 560 561 652 q 715 321 715 469 q 632 81 715 176 q 416 -14 549 -14 q 192 87 280 -14 q 103 366 103 189 l 103 615 q 200 894 103 786 q 439 1002 297 1002 m 412 585 q 268 543 330 585 q 184 433 207 500 l 184 360 q 250 136 184 218 q 416 54 315 54 q 575 132 515 54 q 634 321 634 210 q 576 513 634 440 q 412 585 519 585 z "},"7":{"ha":770,"x_min":52,"x_max":700,"o":"m 700 918 q 455 533 540 728 q 342 83 370 337 l 334 0 l 253 0 l 260 83 q 378 537 289 334 q 616 918 468 740 l 52 918 l 52 987 l 700 987 l 700 918 z "},"8":{"ha":770,"x_min":68,"x_max":703,"o":"m 675 733 q 629 593 675 653 q 504 506 582 533 q 649 413 594 478 q 703 262 703 349 q 614 57 703 129 q 386 -14 526 -14 q 156 57 243 -14 q 68 262 68 128 q 121 414 68 349 q 265 507 175 479 q 141 593 187 534 q 96 733 96 653 q 176 931 96 861 q 385 1002 256 1002 q 594 931 512 1002 q 675 733 675 860 m 622 261 q 554 413 622 355 q 385 472 486 472 q 215 413 281 472 q 149 261 149 355 q 214 109 149 164 q 386 54 280 54 q 555 110 489 54 q 622 261 622 165 m 594 734 q 534 876 594 819 q 385 932 474 932 q 235 878 293 932 q 176 734 176 824 q 235 594 176 646 q 386 541 294 541 q 535 594 476 541 q 594 734 594 646 z "},"9":{"ha":770,"x_min":60,"x_max":676,"o":"m 347 54 q 526 130 459 54 q 592 345 592 205 l 592 444 q 495 348 556 382 q 360 314 435 314 q 143 408 225 314 q 60 650 60 501 q 147 901 60 800 q 361 1002 233 1002 q 590 908 504 1002 q 676 637 676 815 l 676 347 q 585 80 676 175 q 347 -14 494 -14 q 240 -4 294 -14 q 139 27 187 6 l 154 95 q 245 64 200 73 q 347 54 290 54 m 360 382 q 508 428 448 382 q 592 539 567 473 l 592 644 q 531 858 592 784 q 364 932 469 932 q 207 850 269 932 q 144 650 144 767 q 203 459 144 536 q 360 382 261 382 z "},"\r":{"ha":338,"x_min":0,"x_max":0,"o":""}," ":{"ha":338,"x_min":0,"x_max":0,"o":""},"\"":{"ha":399,"x_min":86,"x_max":319,"o":"m 157 911 l 135 734 l 86 734 l 88 907 l 88 1058 l 157 1058 l 157 911 m 319 911 l 297 734 l 248 734 l 251 909 l 251 1058 l 319 1058 l 319 911 z "},"#":{"ha":861,"x_min":45,"x_max":802,"o":"m 498 278 l 286 278 l 234 0 l 166 0 l 218 278 l 45 278 l 45 341 l 230 341 l 286 640 l 97 640 l 97 705 l 298 705 l 352 987 l 420 987 l 366 705 l 579 705 l 633 987 l 701 987 l 647 705 l 802 705 l 802 640 l 635 640 l 578 341 l 751 341 l 751 278 l 566 278 l 514 0 l 446 0 l 498 278 m 298 341 l 511 341 l 567 640 l 354 640 l 298 341 z "},"$":{"ha":770,"x_min":79,"x_max":692,"o":"m 611 243 q 562 366 611 318 q 390 457 513 413 q 181 565 249 502 q 113 743 113 628 q 181 922 113 852 q 366 1000 249 991 l 366 1137 l 435 1137 l 435 1000 q 618 911 553 989 q 682 701 684 833 l 680 697 l 604 697 q 550 865 604 800 q 398 929 496 929 q 246 877 298 929 q 194 744 194 824 q 240 620 194 667 q 417 529 286 572 q 625 420 557 482 q 692 245 692 358 q 622 65 692 132 q 432 -12 551 -3 l 432 -141 l 363 -141 l 363 -13 q 160 65 241 -5 q 81 279 79 136 l 83 283 l 159 283 q 228 111 159 163 q 393 58 296 58 q 552 110 494 58 q 611 243 611 163 z "},"%":{"ha":1027,"x_min":75,"x_max":958,"o":"m 75 798 q 128 943 75 884 q 268 1002 181 1002 q 407 943 354 1002 q 460 798 460 884 l 460 745 q 408 601 460 660 q 269 543 355 543 q 128 601 182 543 q 75 745 75 660 l 75 798 m 140 745 q 173 644 140 686 q 269 602 207 602 q 362 644 330 602 q 395 745 395 686 l 395 798 q 362 900 395 857 q 268 943 329 943 q 173 900 207 943 q 140 798 140 857 l 140 745 m 571 241 q 624 386 571 327 q 764 445 677 445 q 904 386 850 445 q 958 241 958 327 l 958 189 q 904 44 958 103 q 766 -14 851 -14 q 625 44 678 -14 q 571 189 571 103 l 571 241 m 637 189 q 670 87 637 129 q 766 45 703 45 q 859 87 826 45 q 892 189 892 129 l 892 241 q 859 345 892 303 q 764 386 825 386 q 670 344 703 386 q 637 241 637 302 l 637 189 m 312 82 l 262 115 l 744 886 l 794 854 l 312 82 z "},"&":{"ha":854,"x_min":62,"x_max":820,"o":"m 263 539 q 182 663 208 607 q 155 778 155 719 q 216 943 155 885 q 381 1002 276 1002 q 536 947 479 1002 q 593 808 593 892 q 563 703 593 747 q 475 615 532 659 l 367 532 l 646 206 q 698 314 680 254 q 716 441 716 374 l 791 441 q 766 282 791 355 q 694 150 741 209 l 820 3 l 819 0 l 726 0 l 643 96 q 517 14 585 43 q 369 -14 448 -14 q 144 58 227 -14 q 62 252 62 131 q 111 398 62 333 q 253 532 160 464 l 263 539 m 369 54 q 491 79 431 54 q 597 149 550 103 l 317 475 q 311 481 313 479 q 307 486 309 484 l 275 462 q 170 347 197 398 q 143 252 143 295 q 201 111 143 168 q 369 54 259 54 m 237 779 q 258 686 237 734 q 323 584 279 638 l 444 673 q 499 737 483 704 q 516 808 516 770 q 480 897 516 862 q 381 932 445 932 q 274 888 312 932 q 237 779 237 844 z "},"'":{"ha":236,"x_min":79,"x_max":153,"o":"m 153 926 l 127 739 l 79 739 l 84 920 l 84 1058 l 153 1058 l 153 926 z "},"(":{"ha":434,"x_min":95,"x_max":421,"o":"m 95 399 q 189 840 95 645 q 399 1102 283 1036 l 404 1101 l 421 1052 q 250 804 323 982 q 176 401 176 625 l 176 387 q 250 -16 176 163 q 421 -267 323 -194 l 404 -314 l 399 -314 q 189 -55 282 -246 q 95 389 95 136 l 95 399 z "},")":{"ha":442,"x_min":12,"x_max":338,"o":"m 338 389 q 244 -55 338 136 q 34 -314 151 -246 l 30 -314 l 12 -267 q 183 -18 110 -197 q 257 387 257 162 l 257 401 q 182 805 257 624 q 12 1055 107 985 l 30 1102 l 34 1102 q 243 840 149 1036 q 338 399 338 645 l 338 389 z "},"*":{"ha":589,"x_min":20,"x_max":571,"o":"m 245 678 l 20 751 l 41 820 l 267 736 l 264 987 l 334 987 l 329 734 l 549 821 l 571 752 l 345 674 l 496 475 l 439 432 l 294 639 l 155 433 l 98 475 l 245 678 z "},"+":{"ha":784,"x_min":51,"x_max":728,"o":"m 427 502 l 728 502 l 728 426 l 427 426 l 427 99 l 345 99 l 345 426 l 51 426 l 51 502 l 345 502 l 345 818 l 427 818 l 427 502 z "},",":{"ha":266,"x_min":56,"x_max":184,"o":"m 184 12 l 112 -175 l 56 -175 l 103 14 l 103 127 l 184 127 l 184 12 z "},"-":{"ha":397,"x_min":33,"x_max":358,"o":"m 358 387 l 33 387 l 33 455 l 358 455 l 358 387 z "},".":{"ha":332,"x_min":113,"x_max":206,"o":"m 206 0 l 113 0 l 113 111 l 206 111 l 206 0 z "},"/":{"ha":551,"x_min":20,"x_max":506,"o":"m 94 -85 l 20 -85 l 433 987 l 506 987 l 94 -85 z "},":":{"ha":294,"x_min":104,"x_max":197,"o":"m 197 0 l 104 0 l 104 111 l 197 111 l 197 0 m 197 621 l 104 621 l 104 732 l 197 732 l 197 621 z "},";":{"ha":297,"x_min":72,"x_max":200,"o":"m 200 623 l 107 623 l 107 734 l 200 734 l 200 623 m 199 12 l 127 -175 l 72 -175 l 119 14 l 119 127 l 199 127 l 199 12 z "},"<":{"ha":710,"x_min":52,"x_max":613,"o":"m 197 392 l 123 373 l 123 369 l 197 350 l 613 168 l 613 83 l 52 340 l 52 406 l 613 662 l 613 576 l 197 392 z "},"=":{"ha":778,"x_min":101,"x_max":667,"o":"m 667 565 l 101 565 l 101 637 l 667 637 l 667 565 m 667 286 l 101 286 l 101 358 l 667 358 l 667 286 z "},">":{"ha":720,"x_min":84,"x_max":657,"o":"m 84 578 l 84 662 l 657 406 l 657 340 l 84 83 l 84 167 l 513 353 l 586 371 l 586 375 l 513 395 l 84 578 z "},"?":{"ha":631,"x_min":53,"x_max":570,"o":"m 256 274 q 271 398 256 363 q 348 490 285 433 q 455 617 421 566 q 488 747 488 669 q 442 882 488 834 q 311 929 396 929 q 182 883 231 929 q 132 757 133 836 l 56 757 l 55 761 q 125 937 53 873 q 311 1002 198 1002 q 501 933 432 1002 q 570 748 570 865 q 525 586 570 656 q 397 437 479 515 q 346 370 355 401 q 336 274 336 339 l 256 274 m 347 0 l 253 0 l 253 104 l 347 104 l 347 0 z "},"@":{"ha":1268,"x_min":70,"x_max":1199,"o":"m 1187 348 q 1108 94 1181 201 q 896 -14 1036 -14 q 807 20 843 -14 q 760 117 772 55 q 671 19 724 52 q 549 -14 618 -14 q 414 67 460 -14 q 381 282 368 149 q 477 558 397 454 q 671 663 557 663 q 773 645 734 663 q 859 589 812 627 l 857 588 l 859 588 l 825 199 q 846 77 819 109 q 910 44 873 44 q 1062 129 1006 44 q 1126 348 1118 213 q 1024 758 1138 612 q 665 904 910 904 q 303 744 446 904 q 149 324 161 585 q 260 -91 136 67 q 612 -250 384 -250 q 733 -235 672 -250 q 836 -196 794 -220 l 857 -247 q 744 -291 814 -275 q 610 -307 674 -307 q 211 -138 352 -307 q 83 324 70 31 q 254 787 95 612 q 667 963 413 963 q 1066 799 932 963 q 1187 348 1199 635 m 456 282 q 473 115 445 177 q 567 52 502 52 q 673 81 625 52 q 756 188 721 111 q 756 194 756 191 q 757 199 756 196 l 789 568 q 741 592 767 583 q 682 601 714 601 q 531 520 591 601 q 456 282 471 439 z "},"A":{"ha":867,"x_min":22,"x_max":846,"o":"m 660 275 l 208 275 l 106 0 l 22 0 l 397 987 l 473 987 l 846 0 l 762 0 l 660 275 m 235 348 l 633 348 l 437 882 l 433 882 l 235 348 z "},"B":{"ha":861,"x_min":130,"x_max":786,"o":"m 130 0 l 130 987 l 418 987 q 657 923 572 987 q 743 728 743 858 q 700 595 743 652 q 583 517 657 539 q 730 433 673 501 q 786 275 786 364 q 700 71 786 142 q 471 0 614 0 l 130 0 m 210 476 l 210 68 l 471 68 q 642 122 580 68 q 705 273 705 176 q 648 419 705 362 q 484 476 591 476 l 210 476 m 210 545 l 437 545 q 603 592 545 545 q 662 730 662 639 q 600 871 662 824 q 418 918 537 918 l 210 918 l 210 545 z "},"C":{"ha":890,"x_min":90,"x_max":811,"o":"m 810 309 l 811 304 q 705 71 798 156 q 456 -14 612 -14 q 191 105 292 -14 q 90 413 90 224 l 90 574 q 191 882 90 762 q 456 1002 292 1002 q 706 918 614 1002 q 811 684 798 835 l 810 680 l 734 680 q 649 867 718 802 q 456 932 581 932 q 249 832 327 932 q 170 575 170 732 l 170 413 q 249 154 170 254 q 456 54 327 54 q 650 118 581 54 q 734 309 718 182 l 810 309 z "},"D":{"ha":911,"x_min":130,"x_max":833,"o":"m 130 0 l 130 987 l 416 987 q 715 867 597 987 q 833 557 833 746 l 833 430 q 715 120 833 240 q 416 0 597 0 l 130 0 m 210 918 l 210 68 l 416 68 q 657 171 563 68 q 752 430 752 273 l 752 559 q 657 816 752 713 q 416 918 562 918 l 210 918 z "},"E":{"ha":800,"x_min":130,"x_max":755,"o":"m 686 478 l 210 478 l 210 68 l 755 68 l 755 0 l 130 0 l 130 987 l 751 987 l 751 918 l 210 918 l 210 547 l 686 547 l 686 478 z "},"F":{"ha":801,"x_min":130,"x_max":760,"o":"m 690 463 l 210 463 l 210 0 l 130 0 l 130 987 l 760 987 l 760 918 l 210 918 l 210 532 l 690 532 l 690 463 z "},"G":{"ha":950,"x_min":99,"x_max":834,"o":"m 834 117 q 713 27 801 69 q 492 -14 625 -14 q 209 103 319 -14 q 99 407 99 220 l 99 588 q 204 886 99 771 q 475 1002 309 1002 q 725 922 635 1002 q 829 715 814 842 l 827 711 l 752 711 q 669 871 734 810 q 475 932 603 932 q 261 836 342 932 q 180 589 180 740 l 180 407 q 267 153 180 252 q 492 54 353 54 q 659 82 590 54 q 753 142 728 109 l 753 399 l 490 399 l 490 469 l 834 469 l 834 117 z "},"H":{"ha":982,"x_min":130,"x_max":852,"o":"m 852 0 l 772 0 l 772 454 l 210 454 l 210 0 l 130 0 l 130 987 l 210 987 l 210 524 l 772 524 l 772 987 l 852 987 l 852 0 z "},"I":{"ha":376,"x_min":147,"x_max":229,"o":"m 229 0 l 147 0 l 147 987 l 229 987 l 229 0 z "},"J":{"ha":764,"x_min":52,"x_max":641,"o":"m 559 987 l 641 987 l 641 280 q 561 65 641 145 q 353 -14 480 -14 q 133 58 214 -14 q 56 268 52 130 l 57 272 l 133 272 q 190 110 133 165 q 353 54 247 54 q 501 116 443 54 q 559 280 559 177 l 559 987 z "},"K":{"ha":887,"x_min":130,"x_max":856,"o":"m 346 465 l 210 465 l 210 0 l 130 0 l 130 987 l 210 987 l 210 533 l 345 533 l 734 987 l 825 987 l 827 984 l 418 502 l 856 3 l 854 0 l 758 0 l 346 465 z "},"L":{"ha":732,"x_min":130,"x_max":699,"o":"m 211 68 l 699 68 l 699 0 l 130 0 l 130 987 l 211 987 l 211 68 z "},"M":{"ha":1204,"x_min":130,"x_max":1074,"o":"m 236 987 l 599 118 l 603 118 l 967 987 l 1074 987 l 1074 0 l 994 0 l 994 436 l 1000 868 l 996 869 l 629 0 l 573 0 l 207 865 l 203 865 l 210 436 l 210 0 l 130 0 l 130 987 l 236 987 z "},"N":{"ha":986,"x_min":130,"x_max":857,"o":"m 857 0 l 776 0 l 215 849 l 211 848 l 211 0 l 130 0 l 130 987 l 211 987 l 772 140 l 776 140 l 776 987 l 857 987 l 857 0 z "},"O":{"ha":935,"x_min":84,"x_max":850,"o":"m 850 413 q 746 104 850 222 q 465 -14 641 -14 q 188 104 291 -14 q 84 413 84 222 l 84 574 q 187 883 84 764 q 464 1002 290 1002 q 745 883 640 1002 q 850 574 850 764 l 850 413 m 770 575 q 689 833 770 735 q 464 930 608 930 q 244 833 323 930 q 165 575 165 735 l 165 413 q 244 154 165 252 q 465 56 323 56 q 689 154 609 56 q 770 413 770 251 l 770 575 z "},"P":{"ha":859,"x_min":130,"x_max":795,"o":"m 210 410 l 210 0 l 130 0 l 130 987 l 469 987 q 710 908 625 987 q 795 699 795 829 q 710 489 795 568 q 469 410 625 410 l 210 410 m 210 479 l 469 479 q 653 542 591 479 q 714 698 714 604 q 653 856 714 793 q 469 918 592 918 l 210 918 l 210 479 z "},"Q":{"ha":935,"x_min":84,"x_max":878,"o":"m 850 413 q 813 213 850 302 q 708 67 777 123 l 878 -93 l 821 -144 l 642 25 q 558 -4 602 5 q 465 -14 513 -14 q 188 104 291 -14 q 84 413 84 222 l 84 574 q 187 883 84 764 q 464 1002 290 1002 q 745 883 640 1002 q 850 574 850 764 l 850 413 m 770 575 q 689 833 770 735 q 464 930 608 930 q 244 833 323 930 q 165 575 165 735 l 165 413 q 244 154 165 252 q 465 56 323 56 q 689 154 609 56 q 770 413 770 251 l 770 575 z "},"R":{"ha":914,"x_min":127,"x_max":836,"o":"m 208 446 l 208 0 l 127 0 l 127 987 l 462 987 q 705 917 621 987 q 790 714 790 848 q 745 573 790 635 q 616 483 699 511 q 748 400 708 460 q 789 252 789 341 l 789 159 q 800 76 789 113 q 836 16 810 39 l 836 0 l 753 0 q 718 68 728 24 q 707 160 707 113 l 707 250 q 649 394 707 341 q 485 446 590 446 l 208 446 m 208 515 l 452 515 q 647 569 585 515 q 709 715 709 623 q 647 865 709 812 q 462 918 586 918 l 208 918 l 208 515 z "},"S":{"ha":835,"x_min":64,"x_max":776,"o":"m 694 242 q 634 374 694 323 q 424 465 574 425 q 178 570 262 505 q 95 746 95 635 q 188 930 95 859 q 428 1002 281 1002 q 674 917 581 1002 q 765 710 768 832 l 763 706 l 688 706 q 618 869 688 805 q 428 932 548 932 q 242 880 309 932 q 176 748 176 827 q 237 624 176 673 q 450 536 299 574 q 693 426 610 495 q 776 243 776 357 q 679 56 776 125 q 433 -14 583 -14 q 175 60 285 -14 q 68 277 64 134 l 69 281 l 144 281 q 230 110 144 165 q 433 54 316 54 q 622 106 550 54 q 694 242 694 157 z "},"T":{"ha":823,"x_min":31,"x_max":791,"o":"m 791 918 l 452 918 l 452 0 l 370 0 l 370 918 l 31 918 l 31 987 l 791 987 l 791 918 z "},"U":{"ha":932,"x_min":113,"x_max":820,"o":"m 820 987 l 820 318 q 721 71 820 157 q 464 -14 623 -14 q 210 72 307 -14 q 113 318 113 157 l 113 987 l 195 987 l 195 318 q 269 123 195 192 q 464 54 344 54 q 663 123 586 54 q 739 318 739 191 l 739 987 l 820 987 z "},"V":{"ha":857,"x_min":22,"x_max":835,"o":"m 407 167 l 427 101 l 431 101 l 450 167 l 747 987 l 835 987 l 467 0 l 390 0 l 22 987 l 110 987 l 407 167 z "},"W":{"ha":1244,"x_min":39,"x_max":1200,"o":"m 302 279 l 332 128 l 336 127 l 373 279 l 582 987 l 659 987 l 867 279 l 903 127 l 907 127 l 939 279 l 1118 987 l 1200 987 l 947 0 l 870 0 l 648 758 l 623 861 l 618 861 l 593 758 l 370 0 l 292 0 l 39 987 l 122 987 l 302 279 z "},"X":{"ha":852,"x_min":40,"x_max":814,"o":"m 426 566 l 705 987 l 803 987 l 475 500 l 814 0 l 717 0 l 427 435 l 138 0 l 40 0 l 379 500 l 50 987 l 149 987 l 426 566 z "},"Y":{"ha":844,"x_min":22,"x_max":821,"o":"m 420 439 l 726 987 l 821 987 l 460 361 l 460 0 l 380 0 l 380 366 l 22 987 l 117 987 l 420 439 z "},"Z":{"ha":830,"x_min":64,"x_max":767,"o":"m 161 68 l 767 68 l 767 0 l 64 0 l 64 62 l 646 918 l 83 918 l 83 987 l 745 987 l 745 928 l 161 68 z "},"[":{"ha":333,"x_min":111,"x_max":334,"o":"m 334 1059 l 192 1059 l 192 -142 l 334 -142 l 334 -212 l 111 -212 l 111 1128 l 334 1128 l 334 1059 z "},"\\":{"ha":547,"x_min":33,"x_max":524,"o":"m 33 987 l 112 987 l 524 -85 l 445 -85 l 33 987 z "},"]":{"ha":333,"x_min":0,"x_max":224,"o":"m 0 1128 l 224 1128 l 224 -212 l 0 -212 l 0 -142 l 143 -142 l 143 1059 l 0 1059 l 0 1128 z "},"^":{"ha":578,"x_min":52,"x_max":518,"o":"m 131 494 l 52 494 l 255 987 l 316 987 l 518 494 l 439 494 l 307 823 l 286 895 l 282 895 l 262 823 l 131 494 z "},"_":{"ha":600,"x_min":1,"x_max":598,"o":"m 598 -68 l 1 -68 l 1 0 l 598 0 l 598 -68 z "},"`":{"ha":397,"x_min":63,"x_max":306,"o":"m 306 821 l 227 821 l 63 998 l 64 1001 l 169 1001 l 306 821 z "},"a":{"ha":747,"x_min":70,"x_max":656,"o":"m 572 0 q 560 64 564 37 q 557 119 557 92 q 448 24 516 62 q 296 -14 380 -14 q 129 43 189 -14 q 70 195 70 100 q 158 358 70 297 q 395 419 245 419 l 557 419 l 557 510 q 506 633 557 589 q 365 678 456 678 q 224 635 280 678 q 168 531 168 593 l 94 532 l 92 536 q 167 683 88 618 q 368 747 246 747 q 564 686 490 747 q 637 509 637 624 l 637 148 q 642 73 637 109 q 656 0 646 36 l 572 0 m 305 58 q 460 99 393 58 q 557 203 527 140 l 557 357 l 393 357 q 217 310 283 357 q 151 193 151 262 q 192 95 151 133 q 305 58 233 58 z "},"b":{"ha":773,"x_min":106,"x_max":699,"o":"m 699 347 q 624 84 699 182 q 418 -14 549 -14 q 279 18 338 -14 q 185 111 221 50 l 176 0 l 106 0 l 106 1058 l 188 1058 l 188 618 q 281 714 224 680 q 417 747 338 747 q 624 642 549 747 q 699 361 699 536 l 699 347 m 616 361 q 562 589 616 501 q 401 677 508 677 q 265 635 317 677 q 188 527 213 593 l 188 195 q 269 94 215 132 q 403 56 323 56 q 563 135 509 56 q 616 347 616 214 l 616 361 z "},"c":{"ha":720,"x_min":66,"x_max":660,"o":"m 379 54 q 522 100 460 54 q 583 229 583 146 l 655 229 l 656 224 q 575 54 660 123 q 379 -14 490 -14 q 148 89 229 -14 q 66 353 66 191 l 66 381 q 148 644 66 541 q 378 747 230 747 q 579 676 499 747 q 657 489 660 605 l 656 485 l 583 485 q 524 626 583 573 q 378 678 465 678 q 204 594 260 678 q 147 381 147 509 l 147 353 q 203 138 147 222 q 379 54 260 54 z "},"d":{"ha":773,"x_min":75,"x_max":664,"o":"m 75 361 q 150 642 75 536 q 357 747 224 747 q 490 715 433 747 q 583 623 546 682 l 583 1058 l 664 1058 l 664 0 l 592 0 l 585 106 q 491 17 549 48 q 355 -14 433 -14 q 150 84 224 -14 q 75 347 75 182 l 75 361 m 157 347 q 210 135 157 214 q 370 56 263 56 q 502 92 449 56 q 583 189 554 127 l 583 534 q 505 637 555 597 q 372 677 454 677 q 211 589 264 677 q 157 361 157 501 l 157 347 z "},"e":{"ha":715,"x_min":62,"x_max":662,"o":"m 382 -14 q 154 87 245 -14 q 62 345 62 189 l 62 382 q 153 644 62 540 q 372 747 243 747 q 585 662 507 747 q 662 434 662 576 l 662 365 l 144 365 l 144 345 q 210 138 144 221 q 382 54 275 54 q 512 75 458 54 q 604 136 566 96 l 638 80 q 533 11 597 37 q 382 -14 470 -14 m 372 678 q 221 609 282 678 q 150 437 160 541 l 151 433 l 581 433 l 581 454 q 525 614 581 549 q 372 678 469 678 z "},"f":{"ha":456,"x_min":45,"x_max":469,"o":"m 166 0 l 166 667 l 45 667 l 45 734 l 166 734 l 166 841 q 221 1012 166 951 q 376 1072 277 1072 q 422 1069 399 1072 q 469 1059 445 1065 l 458 992 q 425 999 442 996 q 385 1001 408 1001 q 283 959 318 1001 q 248 841 248 917 l 248 734 l 422 734 l 422 667 l 248 667 l 248 0 l 166 0 z "},"g":{"ha":774,"x_min":75,"x_max":666,"o":"m 75 361 q 150 642 75 536 q 359 747 225 747 q 494 713 437 747 q 588 616 551 679 l 597 734 l 666 734 l 666 9 q 588 -214 666 -132 q 370 -296 509 -296 q 257 -283 317 -296 q 153 -248 197 -271 l 174 -180 q 265 -213 217 -201 q 368 -224 313 -224 q 530 -162 475 -224 q 585 9 585 -100 l 585 102 q 490 16 547 46 q 357 -14 433 -14 q 150 84 225 -14 q 75 347 75 182 l 75 361 m 157 347 q 211 135 157 214 q 372 56 265 56 q 504 92 451 56 q 585 191 556 128 l 585 532 q 507 636 558 595 q 374 677 456 677 q 212 589 267 677 q 157 361 157 500 l 157 347 z "},"h":{"ha":773,"x_min":107,"x_max":669,"o":"m 189 608 q 286 711 225 674 q 429 747 347 747 q 607 675 545 747 q 669 452 669 604 l 669 0 l 587 0 l 587 454 q 540 625 587 573 q 410 677 493 677 q 271 633 327 677 q 189 517 215 589 l 189 0 l 107 0 l 107 1058 l 189 1058 l 189 608 z "},"i":{"ha":315,"x_min":117,"x_max":198,"o":"m 198 0 l 117 0 l 117 734 l 198 734 l 198 0 m 198 944 l 117 944 l 117 1058 l 198 1058 l 198 944 z "},"j":{"ha":328,"x_min":-78,"x_max":203,"o":"m 203 734 l 203 -60 q 149 -235 203 -174 q -2 -296 94 -296 q -40 -293 -22 -296 q -78 -283 -58 -290 l -69 -215 q -39 -222 -58 -218 q -6 -225 -20 -225 q 88 -183 54 -225 q 122 -60 122 -142 l 122 734 l 203 734 m 199 947 l 118 947 l 118 1058 l 199 1058 l 199 947 z "},"k":{"ha":682,"x_min":108,"x_max":674,"o":"m 283 357 l 189 357 l 189 0 l 108 0 l 108 1058 l 189 1058 l 189 427 l 275 427 l 547 734 l 642 734 l 644 730 l 350 399 l 674 3 l 672 0 l 579 0 l 283 357 z "},"l":{"ha":315,"x_min":117,"x_max":198,"o":"m 198 0 l 117 0 l 117 1058 l 198 1058 l 198 0 z "},"m":{"ha":1231,"x_min":103,"x_max":1128,"o":"m 176 734 l 183 612 q 277 712 218 677 q 417 747 336 747 q 558 707 501 747 q 639 583 614 666 q 733 704 672 660 q 883 747 795 747 q 1064 669 1000 747 q 1128 428 1128 591 l 1128 0 l 1046 0 l 1046 429 q 999 621 1046 565 q 865 677 951 677 q 720 618 771 677 q 656 467 668 559 q 656 453 656 462 q 656 440 656 444 l 656 0 l 574 0 l 574 429 q 526 620 574 562 q 393 677 477 677 q 256 633 307 677 q 185 515 205 589 l 185 0 l 103 0 l 103 734 l 176 734 z "},"n":{"ha":773,"x_min":107,"x_max":668,"o":"m 179 734 l 186 606 q 282 710 222 673 q 424 747 342 747 q 606 674 543 747 q 668 447 668 602 l 668 0 l 587 0 l 587 446 q 539 625 587 572 q 406 677 492 677 q 266 632 320 677 q 189 512 212 587 l 189 0 l 107 0 l 107 734 l 179 734 z "},"o":{"ha":773,"x_min":62,"x_max":711,"o":"m 62 378 q 151 644 62 540 q 386 747 239 747 q 622 644 533 747 q 711 378 711 540 l 711 355 q 622 89 711 193 q 387 -14 534 -14 q 151 89 239 -14 q 62 355 62 193 l 62 378 m 143 355 q 208 141 143 228 q 387 54 272 54 q 565 141 500 54 q 630 355 630 228 l 630 378 q 565 591 630 503 q 386 678 500 678 q 208 591 272 678 q 143 378 143 503 l 143 355 z "},"p":{"ha":773,"x_min":106,"x_max":698,"o":"m 698 347 q 623 84 698 182 q 418 -14 549 -14 q 282 15 340 -14 q 188 98 224 44 l 188 -282 l 106 -282 l 106 734 l 175 734 l 185 620 q 280 714 222 681 q 416 747 338 747 q 623 642 549 747 q 698 361 698 536 l 698 347 m 616 361 q 561 589 616 500 q 398 677 505 677 q 265 638 316 677 q 188 536 214 599 l 188 184 q 268 89 216 123 q 399 54 321 54 q 561 134 506 54 q 616 347 616 214 l 616 361 z "},"q":{"ha":773,"x_min":75,"x_max":661,"o":"m 75 361 q 150 642 75 536 q 357 747 224 747 q 489 716 432 747 q 582 626 545 684 l 590 734 l 661 734 l 661 -282 l 580 -282 l 580 96 q 486 14 543 43 q 355 -14 430 -14 q 150 84 224 -14 q 75 347 75 182 l 75 361 m 157 347 q 210 134 157 214 q 370 54 263 54 q 498 89 446 54 q 580 182 550 123 l 580 541 q 501 640 552 602 q 372 678 450 678 q 211 590 264 678 q 157 361 157 501 l 157 347 z "},"r":{"ha":473,"x_min":107,"x_max":456,"o":"m 445 664 l 385 668 q 259 625 308 668 q 189 507 210 582 l 189 0 l 107 0 l 107 734 l 178 734 l 189 612 l 189 604 q 274 709 220 671 q 401 747 328 747 q 432 745 417 747 q 456 740 446 743 l 445 664 z "},"s":{"ha":707,"x_min":71,"x_max":627,"o":"m 547 186 q 504 277 547 238 q 351 340 462 315 q 157 415 220 368 q 94 547 94 462 q 165 689 94 631 q 353 747 236 747 q 549 686 477 747 q 618 532 622 625 l 617 528 l 542 528 q 491 633 542 589 q 353 678 439 678 q 219 640 264 678 q 175 550 175 602 q 213 466 175 499 q 366 408 252 433 q 562 328 497 378 q 627 191 627 277 q 553 42 627 99 q 357 -14 479 -14 q 147 50 223 -14 q 75 201 71 113 l 76 205 l 151 205 q 215 90 155 126 q 357 54 275 54 q 496 93 445 54 q 547 186 547 132 z "},"t":{"ha":461,"x_min":26,"x_max":424,"o":"m 235 922 l 235 734 l 396 734 l 396 667 l 235 667 l 235 189 q 261 87 235 117 q 330 57 287 57 q 369 59 350 57 q 412 64 387 60 l 424 4 q 374 -9 404 -5 q 316 -14 345 -14 q 196 35 239 -14 q 153 189 153 83 l 153 667 l 26 667 l 26 734 l 153 734 l 153 922 l 235 922 z "},"u":{"ha":773,"x_min":104,"x_max":667,"o":"m 588 120 q 493 21 553 56 q 352 -14 433 -14 q 170 64 236 -14 q 104 309 104 143 l 104 734 l 186 734 l 186 307 q 232 115 186 173 q 361 56 277 56 q 509 98 454 56 q 585 212 564 139 l 585 734 l 667 734 l 667 0 l 595 0 l 588 120 z "},"v":{"ha":680,"x_min":30,"x_max":653,"o":"m 316 184 l 340 98 l 344 98 l 370 184 l 569 734 l 653 734 l 374 0 l 309 0 l 30 734 l 114 734 l 316 184 z "},"w":{"ha":1051,"x_min":44,"x_max":1001,"o":"m 265 238 l 293 107 l 297 107 l 332 238 l 488 734 l 557 734 l 713 238 l 749 104 l 753 104 l 783 238 l 917 734 l 1001 734 l 787 0 l 718 0 l 555 502 l 524 629 l 519 629 l 487 502 l 327 0 l 257 0 l 44 734 l 128 734 l 265 238 z "},"x":{"ha":680,"x_min":34,"x_max":643,"o":"m 338 434 l 536 734 l 633 734 l 384 374 l 643 0 l 548 0 l 339 313 l 130 0 l 34 0 l 294 374 l 45 734 l 140 734 l 338 434 z "},"y":{"ha":680,"x_min":24,"x_max":658,"o":"m 315 199 l 341 111 l 345 111 l 567 734 l 658 734 l 339 -117 q 265 -244 311 -192 q 132 -296 220 -296 q 98 -293 118 -296 q 68 -287 77 -290 l 77 -219 q 103 -222 85 -220 q 130 -224 121 -224 q 214 -186 182 -224 q 269 -90 246 -149 l 307 9 l 24 734 l 114 734 l 315 199 z "},"z":{"ha":680,"x_min":61,"x_max":638,"o":"m 161 68 l 638 68 l 638 0 l 61 0 l 61 60 l 503 664 l 75 664 l 75 734 l 606 734 l 606 673 l 161 68 z "},"{":{"ha":458,"x_min":46,"x_max":452,"o":"m 432 -274 q 255 -156 308 -237 q 203 39 203 -76 l 203 193 q 164 322 203 275 q 46 368 126 368 l 46 439 q 164 484 126 439 q 203 613 203 530 l 203 768 q 255 965 203 884 q 432 1083 308 1046 l 450 1029 q 324 933 363 1002 q 284 768 284 865 l 284 613 q 253 484 284 538 q 159 404 222 429 q 253 322 222 377 q 284 193 284 267 l 284 39 q 325 -124 284 -58 q 452 -220 365 -191 l 432 -274 z "},"|":{"ha":307,"x_min":121,"x_max":189,"o":"m 189 -183 l 121 -183 l 121 987 l 189 987 l 189 -183 z "},"}":{"ha":458,"x_min":6,"x_max":412,"o":"m 6 -220 q 133 -124 92 -191 q 174 39 174 -58 l 174 193 q 205 323 174 269 q 304 403 237 378 q 205 481 237 427 q 174 613 174 536 l 174 768 q 134 933 174 865 q 8 1029 94 1002 l 26 1083 q 202 965 149 1046 q 255 768 255 884 l 255 613 q 293 485 255 530 q 412 439 331 439 l 412 368 q 293 322 331 368 q 255 193 255 275 l 255 39 q 202 -156 255 -76 q 26 -274 150 -237 l 6 -220 z "},"~":{"ha":951,"x_min":97,"x_max":852,"o":"m 852 502 q 798 351 852 414 q 661 287 743 287 q 552 311 601 287 q 443 389 503 335 q 362 443 399 425 q 288 461 326 461 q 198 420 234 461 q 163 311 163 379 l 97 321 q 151 472 97 410 q 288 534 204 534 q 396 509 347 534 q 507 432 446 484 q 586 376 549 393 q 661 359 622 359 q 749 402 713 359 q 786 512 786 446 l 852 502 z "},"¡":{"ha":307,"x_min":98,"x_max":195,"o":"m 187 -254 l 106 -254 l 106 410 l 187 410 l 187 -254 m 195 609 l 98 609 l 98 734 l 195 734 l 195 609 z "},"¢":{"ha":756,"x_min":83,"x_max":677,"o":"m 396 54 q 538 100 477 54 q 600 229 600 146 l 673 229 l 674 224 q 605 66 677 132 q 432 -12 533 0 l 432 -166 l 351 -166 l 351 -12 q 152 104 222 4 q 83 353 83 204 l 83 381 q 153 628 83 528 q 351 745 222 728 l 351 894 l 432 894 l 432 745 q 608 665 539 734 q 675 489 677 595 l 673 485 l 600 485 q 541 626 600 573 q 395 678 481 678 q 221 594 277 678 q 164 381 164 509 l 164 353 q 220 138 164 222 q 396 54 277 54 z "},"£":{"ha":793,"x_min":45,"x_max":727,"o":"m 267 435 l 271 316 q 254 178 271 243 q 205 68 237 112 l 727 68 l 727 0 l 89 0 l 89 68 l 96 68 q 167 157 143 79 q 191 316 191 235 l 186 435 l 45 435 l 45 505 l 183 505 l 176 705 q 248 923 176 844 q 440 1002 319 1002 q 631 931 567 1002 q 692 743 694 861 l 690 739 l 614 739 q 568 886 614 840 q 440 932 522 932 q 306 873 355 932 q 257 705 257 813 l 264 505 l 570 505 l 570 435 l 267 435 z "},"¤":{"ha":1004,"x_min":74,"x_max":932,"o":"m 767 90 q 645 13 713 40 q 502 -14 576 -14 q 358 13 427 -14 q 237 90 290 40 l 132 -18 l 74 41 l 182 150 q 119 271 141 205 q 98 412 98 338 q 121 557 98 488 q 188 682 144 627 l 74 798 l 132 857 l 245 742 q 363 812 298 787 q 502 837 429 837 q 640 811 574 837 q 759 741 705 786 l 874 858 l 932 798 l 817 680 q 882 556 859 624 q 905 412 905 488 q 883 273 905 339 q 822 152 861 206 l 932 41 l 874 -18 l 767 90 m 174 412 q 270 164 174 267 q 502 62 366 62 q 732 164 636 62 q 828 412 828 267 q 732 659 828 557 q 502 761 636 761 q 270 659 366 761 q 174 412 174 557 z "},"¥":{"ha":829,"x_min":31,"x_max":793,"o":"m 412 497 l 699 987 l 793 987 l 485 478 l 736 478 l 736 409 l 451 409 l 451 290 l 736 290 l 736 221 l 451 221 l 451 0 l 370 0 l 370 221 l 88 221 l 88 290 l 370 290 l 370 409 l 88 409 l 88 478 l 339 478 l 31 987 l 125 987 l 412 497 z "},"¦":{"ha":301,"x_min":108,"x_max":189,"o":"m 108 -183 l 108 340 l 189 340 l 189 -183 l 108 -183 m 189 473 l 108 473 l 108 987 l 189 987 l 189 473 z "},"§":{"ha":840,"x_min":70,"x_max":759,"o":"m 759 292 q 718 178 759 226 q 602 108 676 130 q 697 26 665 74 q 729 -94 729 -22 q 643 -271 729 -207 q 411 -336 556 -336 q 168 -266 267 -336 q 73 -47 70 -197 l 75 -43 l 151 -42 q 227 -213 151 -159 q 411 -267 304 -267 q 584 -219 522 -267 q 647 -96 647 -171 q 595 17 647 -24 q 397 99 543 58 q 153 200 232 140 q 73 374 73 260 q 113 488 73 440 q 224 559 153 536 q 134 641 163 593 q 104 760 104 688 q 191 935 104 869 q 423 1002 277 1002 q 658 926 574 1002 q 740 713 743 850 l 739 709 l 663 709 q 599 869 663 805 q 423 932 535 932 q 245 884 306 932 q 185 762 185 836 q 235 644 185 684 q 438 562 286 604 q 682 461 606 517 q 759 292 759 404 m 404 494 q 353 508 377 500 q 308 523 329 515 q 193 473 232 513 q 155 375 155 433 q 208 256 155 296 q 427 170 262 216 q 471 157 450 163 q 512 145 492 151 q 634 194 590 154 q 677 290 677 233 q 620 406 677 363 q 404 494 562 448 z "},"¨":{"ha":650,"x_min":110,"x_max":546,"o":"m 546 881 l 429 881 l 429 987 l 546 987 l 546 881 m 228 881 l 110 881 l 110 987 l 228 987 l 228 881 z "},"©":{"ha":1110,"x_min":73,"x_max":1035,"o":"m 755 404 l 756 400 q 703 245 759 298 q 547 191 647 191 q 383 263 445 191 q 321 454 321 336 l 321 534 q 383 724 321 651 q 547 797 445 797 q 703 743 647 797 q 757 589 760 690 l 755 585 l 694 585 q 656 699 694 661 q 547 736 619 736 q 431 679 473 736 q 389 535 389 623 l 389 454 q 430 308 389 364 q 547 252 472 252 q 656 289 620 252 q 693 404 693 326 l 755 404 m 130 494 q 254 175 130 305 q 554 44 378 44 q 853 175 728 44 q 977 494 977 305 q 853 812 977 682 q 554 942 729 942 q 254 812 378 942 q 130 494 130 682 m 73 494 q 213 854 73 708 q 554 1001 353 1001 q 895 854 754 1001 q 1035 494 1035 708 q 894 133 1035 280 q 554 -14 753 -14 q 213 133 353 -14 q 73 494 73 280 z "},"ª":{"ha":614,"x_min":92,"x_max":515,"o":"m 440 479 q 430 514 434 496 q 425 552 427 533 q 358 493 400 516 q 260 469 317 469 q 136 511 180 469 q 92 624 92 552 q 145 734 92 695 q 300 774 199 774 l 424 774 l 424 815 q 396 904 424 873 q 315 936 368 936 q 218 910 252 936 q 184 837 184 885 l 117 843 l 115 847 q 168 958 112 913 q 315 1002 223 1002 q 448 953 398 1002 q 498 814 498 905 l 498 602 q 502 539 498 569 q 515 479 506 509 l 440 479 m 274 534 q 366 559 321 534 q 424 617 410 585 l 424 717 l 301 717 q 200 691 236 717 q 165 627 165 665 q 192 558 165 582 q 274 534 218 534 z "},"«":{"ha":633,"x_min":83,"x_max":564,"o":"m 168 373 l 355 110 l 283 110 l 83 367 l 83 380 l 283 637 l 355 637 l 168 373 m 377 373 l 564 110 l 493 110 l 293 367 l 293 380 l 493 637 l 564 637 l 377 373 z "},"¬":{"ha":758,"x_min":84,"x_max":635,"o":"m 635 262 l 553 262 l 553 454 l 84 454 l 84 526 l 635 526 l 635 262 z "},"®":{"ha":1114,"x_min":69,"x_max":1032,"o":"m 69 494 q 210 854 69 708 q 551 1001 350 1001 q 891 854 751 1001 q 1032 494 1032 708 q 891 133 1032 280 q 551 -14 751 -14 q 210 133 350 -14 q 69 494 69 280 m 127 494 q 251 175 127 305 q 551 44 375 44 q 850 175 726 44 q 974 494 974 305 q 850 812 974 682 q 551 942 726 942 q 251 812 375 942 q 127 494 127 682 m 441 456 l 441 214 l 374 214 l 374 791 l 549 791 q 703 748 649 791 q 756 623 756 705 q 731 543 756 576 q 661 489 707 509 q 727 436 707 472 q 747 349 747 400 l 747 311 q 750 262 747 284 q 759 225 753 239 l 759 214 l 690 214 q 682 256 683 229 q 680 312 680 283 l 680 349 q 654 431 680 406 q 568 456 629 456 l 441 456 m 441 517 l 564 517 q 653 545 617 517 q 690 621 690 572 q 659 704 690 679 q 549 729 627 729 l 441 729 l 441 517 z "},"¯":{"ha":593,"x_min":72,"x_max":526,"o":"m 526 922 l 72 922 l 72 987 l 526 987 l 526 922 z "},"ˉ":{"ha":593,"x_min":72,"x_max":526,"o":"m 526 922 l 72 922 l 72 987 l 526 987 l 526 922 z "},"°":{"ha":525,"x_min":97,"x_max":427,"o":"m 97 832 q 146 951 97 901 q 263 1002 195 1002 q 379 951 330 1002 q 427 832 427 901 q 379 713 427 762 q 263 665 331 665 q 146 713 195 665 q 97 832 97 762 m 158 832 q 188 756 158 786 q 263 726 218 726 q 337 756 307 726 q 366 832 366 786 q 337 909 366 878 q 263 940 307 940 q 188 909 218 940 q 158 832 158 878 z "},"±":{"ha":736,"x_min":58,"x_max":697,"o":"m 413 562 l 679 562 l 679 494 l 413 494 l 413 196 l 338 196 l 338 494 l 58 494 l 58 562 l 338 562 l 338 859 l 413 859 l 413 562 m 697 33 l 131 33 l 131 102 l 697 102 l 697 33 z "},"²":{"ha":566,"x_min":80,"x_max":466,"o":"m 466 452 l 80 452 l 80 513 l 294 705 q 364 783 346 753 q 382 845 382 813 q 356 915 382 888 q 276 941 330 941 q 185 913 217 941 q 153 840 153 884 l 85 840 l 84 844 q 133 956 80 909 q 276 1003 186 1003 q 408 962 360 1003 q 456 844 456 921 q 425 752 456 793 q 323 645 393 711 l 178 517 l 179 513 l 466 513 l 466 452 z "},"³":{"ha":578,"x_min":78,"x_max":481,"o":"m 471 850 q 447 779 471 810 q 380 730 423 747 q 455 682 429 715 q 481 601 481 649 q 424 486 481 527 q 277 444 368 444 q 137 484 195 444 q 81 598 78 524 l 83 602 l 151 602 q 186 532 151 559 q 277 505 220 505 q 373 531 338 505 q 407 601 407 557 q 375 675 407 652 q 281 699 344 699 l 198 699 l 198 759 l 281 759 q 369 783 340 759 q 398 850 398 806 q 368 915 398 890 q 277 941 337 941 q 193 917 227 941 q 159 853 159 892 l 92 853 l 91 857 q 141 962 87 921 q 277 1002 196 1002 q 419 963 367 1002 q 471 850 471 923 z "},"´":{"ha":391,"x_min":79,"x_max":321,"o":"m 219 1002 l 319 1002 l 321 998 l 152 822 l 79 822 l 219 1002 z "},"µ":{"ha":773,"x_min":110,"x_max":664,"o":"m 191 734 l 191 304 q 239 109 191 164 q 369 54 287 54 q 513 95 462 54 q 583 210 564 135 l 583 734 l 664 734 l 664 0 l 594 0 l 587 105 q 501 17 554 47 q 374 -14 448 -14 q 268 6 315 -14 q 191 71 221 26 l 191 -282 l 110 -282 l 110 734 l 191 734 z "},"¶":{"ha":660,"x_min":56,"x_max":543,"o":"m 461 0 l 461 353 l 389 353 q 143 440 231 353 q 56 670 56 528 q 143 899 56 810 q 389 987 231 987 l 543 987 l 543 0 l 461 0 z "},"·":{"ha":341,"x_min":113,"x_max":218,"o":"m 218 423 l 113 423 l 113 545 l 218 545 l 218 423 z "},"¸":{"ha":338,"x_min":66,"x_max":278,"o":"m 167 0 l 159 -43 q 245 -76 212 -50 q 278 -159 278 -103 q 224 -258 278 -221 q 71 -295 171 -295 l 66 -242 q 169 -221 127 -242 q 211 -161 211 -201 q 183 -107 211 -122 q 84 -86 155 -92 l 104 0 l 167 0 z "},"¹":{"ha":347,"x_min":59,"x_max":233,"o":"m 233 451 l 159 451 l 159 928 l 59 923 l 59 986 l 233 1002 l 233 451 z "},"º":{"ha":625,"x_min":92,"x_max":530,"o":"m 92 774 q 151 938 92 875 q 311 1002 210 1002 q 471 938 411 1002 q 530 774 530 875 l 530 696 q 471 532 530 595 q 312 469 412 469 q 151 532 211 469 q 92 696 92 595 l 92 774 m 165 696 q 202 578 165 623 q 312 534 239 534 q 419 579 382 534 q 457 696 457 624 l 457 774 q 419 890 457 845 q 311 936 381 936 q 202 890 240 936 q 165 774 165 845 l 165 696 z "},"»":{"ha":629,"x_min":88,"x_max":573,"o":"m 88 637 l 159 637 l 359 380 l 359 367 l 159 110 l 88 110 l 275 373 l 88 637 m 302 637 l 373 637 l 573 380 l 573 367 l 373 110 l 302 110 l 489 373 l 302 637 z "},"¼":{"ha":1059,"x_min":109,"x_max":994,"o":"m 283 450 l 209 450 l 209 927 l 109 922 l 109 985 l 283 1001 l 283 450 m 271 87 l 221 120 l 703 892 l 753 859 l 271 87 m 890 176 l 994 176 l 994 115 l 890 115 l 890 0 l 817 0 l 817 115 l 526 115 l 523 161 l 814 543 l 890 543 l 890 176 m 610 176 l 817 176 l 817 449 l 813 450 l 796 420 l 610 176 z "},"½":{"ha":1063,"x_min":109,"x_max":1004,"o":"m 279 87 l 229 120 l 711 892 l 762 859 l 279 87 m 283 450 l 209 450 l 209 927 l 109 922 l 109 985 l 283 1001 l 283 450 m 1004 0 l 618 0 l 618 61 l 832 252 q 903 331 884 300 q 921 393 921 361 q 895 463 921 436 q 814 489 868 489 q 724 460 755 489 q 692 387 692 432 l 624 387 l 623 391 q 672 504 618 457 q 814 551 725 551 q 947 510 899 551 q 995 392 995 469 q 963 300 995 341 q 861 193 931 258 l 716 65 l 718 61 l 1004 61 l 1004 0 z "},"¾":{"ha":1161,"x_min":95,"x_max":1136,"o":"m 412 87 l 361 120 l 844 892 l 894 859 l 412 87 m 1032 176 l 1136 176 l 1136 115 l 1032 115 l 1032 0 l 959 0 l 959 115 l 667 115 l 665 161 l 956 543 l 1032 543 l 1032 176 m 752 176 l 959 176 l 959 449 l 955 450 l 938 420 l 752 176 m 488 850 q 464 779 488 811 q 397 730 440 747 q 472 683 446 715 q 498 602 498 650 q 441 486 498 528 q 294 445 385 445 q 154 485 212 445 q 98 599 95 524 l 100 603 l 168 603 q 203 533 168 560 q 294 506 237 506 q 390 532 355 506 q 424 602 424 557 q 392 676 424 652 q 298 699 361 699 l 215 699 l 215 760 l 298 760 q 386 783 357 760 q 415 850 415 807 q 385 916 415 890 q 294 941 354 941 q 210 917 243 941 q 176 854 176 893 l 109 854 l 108 858 q 158 962 104 922 q 294 1003 213 1003 q 436 963 384 1003 q 488 850 488 924 z "},"¿":{"ha":650,"x_min":73,"x_max":589,"o":"m 388 460 q 372 336 387 371 q 295 243 357 300 q 188 116 221 167 q 155 -13 155 64 q 200 -147 155 -100 q 332 -195 246 -195 q 460 -148 412 -195 q 511 -22 509 -102 l 587 -22 l 588 -26 q 517 -203 589 -138 q 332 -267 444 -267 q 142 -199 210 -267 q 73 -14 73 -130 q 118 148 73 77 q 246 296 163 218 q 297 363 288 332 q 307 460 307 395 l 388 460 m 296 734 l 390 734 l 390 629 l 296 629 l 296 734 z "},"Æ":{"ha":1265,"x_min":12,"x_max":1236,"o":"m 1236 0 l 682 0 l 671 264 l 266 264 l 111 0 l 12 0 l 609 987 l 1195 987 l 1195 918 l 724 918 l 740 549 l 1139 549 l 1139 479 l 743 479 l 760 68 l 1236 68 l 1236 0 m 311 340 l 668 340 l 644 909 l 640 910 l 630 880 l 311 340 z "},"×":{"ha":727,"x_min":63,"x_max":655,"o":"m 63 216 l 306 463 l 73 701 l 127 755 l 359 517 l 591 755 l 645 701 l 412 463 l 655 216 l 602 162 l 359 409 l 117 162 l 63 216 z "},"Ø":{"ha":935,"x_min":84,"x_max":850,"o":"m 850 413 q 746 104 850 222 q 465 -14 641 -14 q 348 2 402 -14 q 250 48 294 18 l 185 -57 l 115 -57 l 203 87 q 115 228 145 144 q 84 413 84 311 l 84 574 q 187 883 84 764 q 464 1002 290 1002 q 601 979 538 1002 q 713 915 663 957 l 778 1021 l 848 1021 l 756 870 q 826 738 802 813 q 850 574 850 662 l 850 413 m 165 413 q 185 268 165 333 q 243 159 205 202 l 248 158 l 673 850 q 581 910 633 889 q 464 930 528 930 q 244 833 323 930 q 165 575 165 735 l 165 413 m 770 575 q 755 697 770 641 q 714 795 741 754 l 710 795 l 289 111 q 368 70 323 84 q 465 56 412 56 q 689 154 609 56 q 770 413 770 251 l 770 575 z "},"Þ":{"ha":823,"x_min":124,"x_max":743,"o":"m 205 987 l 205 781 l 425 781 q 659 703 575 781 q 743 500 743 625 q 659 297 743 375 q 425 220 575 220 l 205 220 l 205 0 l 124 0 l 124 987 l 205 987 m 205 713 l 205 288 l 425 288 q 602 351 543 288 q 662 499 662 413 q 602 650 662 587 q 425 713 543 713 l 205 713 z "},"ß":{"ha":814,"x_min":102,"x_max":743,"o":"m 184 0 l 102 0 l 102 734 q 172 949 102 872 q 357 1025 241 1025 q 515 971 452 1025 q 577 821 577 918 q 535 674 577 747 q 494 549 494 602 q 618 395 494 491 q 743 200 743 298 q 669 41 743 96 q 488 -14 594 -14 q 369 2 430 -14 q 281 40 307 18 l 304 109 q 381 71 332 87 q 479 54 431 54 q 613 95 564 54 q 662 200 662 136 q 537 363 662 267 q 412 551 412 459 q 455 687 412 614 q 498 817 498 761 q 457 918 498 879 q 364 957 416 957 q 233 899 282 957 q 184 734 184 841 l 184 0 z "},"æ":{"ha":1175,"x_min":52,"x_max":1124,"o":"m 858 -14 q 694 23 764 -14 q 584 130 625 61 q 476 28 551 71 q 293 -14 401 -14 q 115 43 178 -14 q 52 199 52 100 q 129 367 52 306 q 350 429 205 429 l 528 429 l 528 488 q 485 629 528 579 q 358 678 442 678 q 213 633 267 678 q 160 519 160 587 l 85 527 l 84 531 q 156 686 81 625 q 358 747 232 747 q 502 711 442 747 q 589 604 562 674 q 695 709 631 671 q 838 747 760 747 q 1049 663 973 747 q 1124 433 1124 579 l 1124 365 l 613 365 l 613 345 q 674 135 613 216 q 858 54 734 54 q 981 76 928 54 q 1078 135 1034 98 l 1109 76 q 1009 12 1069 39 q 858 -14 949 -14 m 304 54 q 438 90 374 54 q 528 168 503 126 l 528 363 l 351 363 q 190 315 246 363 q 134 196 134 267 q 178 92 134 130 q 304 54 222 54 m 838 678 q 686 609 744 678 q 618 435 627 541 l 620 431 l 1044 431 l 1044 452 q 991 615 1044 551 q 838 678 939 678 z "},"ð":{"ha":808,"x_min":67,"x_max":725,"o":"m 562 881 q 676 685 637 800 q 715 422 715 571 l 715 363 q 623 91 715 197 q 389 -14 530 -14 q 158 79 248 -14 q 67 309 67 172 q 155 561 67 468 q 391 654 243 654 q 522 627 462 654 q 619 555 583 600 l 622 558 q 576 717 610 647 q 490 840 542 787 l 281 721 l 248 771 l 442 882 q 378 924 412 905 q 308 958 345 943 l 334 1029 q 432 983 387 1008 q 516 925 477 957 l 690 1025 l 725 975 l 562 881 m 634 424 q 634 443 634 430 q 633 462 633 455 q 547 549 608 513 q 391 584 486 584 q 211 506 274 584 q 149 309 149 428 q 214 132 149 208 q 392 56 280 56 q 567 142 499 56 q 634 363 634 229 l 634 424 z "},"÷":{"ha":789,"x_min":49,"x_max":726,"o":"m 726 437 l 49 437 l 49 515 l 726 515 l 726 437 m 439 685 l 343 685 l 343 793 l 439 793 l 439 685 m 439 144 l 343 144 l 343 252 l 439 252 l 439 144 z "},"ø":{"ha":774,"x_min":62,"x_max":711,"o":"m 62 378 q 151 644 62 540 q 386 747 239 747 q 463 739 427 747 q 532 714 500 730 l 586 823 l 649 823 l 581 683 q 676 555 642 634 q 711 378 711 475 l 711 355 q 622 89 711 193 q 387 -14 534 -14 q 316 -7 350 -14 q 252 14 283 0 l 199 -95 l 136 -95 l 203 42 q 99 171 136 90 q 62 355 62 253 l 62 378 m 143 355 q 167 216 143 279 q 235 115 191 152 l 239 115 l 500 648 q 447 670 475 663 q 386 678 418 678 q 208 591 272 678 q 143 378 143 503 l 143 355 m 630 378 q 608 508 630 447 q 548 608 587 569 l 544 608 l 283 77 q 332 60 306 66 q 387 54 358 54 q 565 141 500 54 q 630 355 630 228 l 630 378 z "},"þ":{"ha":781,"x_min":109,"x_max":701,"o":"m 701 347 q 626 84 701 182 q 420 -14 551 -14 q 285 15 343 -14 q 191 98 227 44 l 191 -282 l 109 -282 l 109 1058 l 191 1058 l 191 624 q 284 715 227 683 q 419 747 342 747 q 626 642 551 747 q 701 361 701 536 l 701 347 m 619 361 q 564 589 619 500 q 401 677 508 677 q 268 638 319 677 q 191 536 216 599 l 191 184 q 271 89 218 123 q 402 54 323 54 q 564 134 509 54 q 619 347 619 214 l 619 361 z "},"Ħ":{"ha":958,"x_min":17,"x_max":939,"o":"m 837 762 l 939 762 l 939 696 l 837 696 l 837 0 l 756 0 l 756 454 l 195 454 l 195 0 l 114 0 l 114 696 l 17 696 l 17 762 l 114 762 l 114 987 l 195 987 l 195 762 l 756 762 l 756 987 l 837 987 l 837 762 m 195 524 l 756 524 l 756 696 l 195 696 l 195 524 z "},"ı":{"ha":309,"x_min":114,"x_max":195,"o":"m 195 0 l 114 0 l 114 734 l 195 734 l 195 0 z "},"ĸ":{"ha":753,"x_min":110,"x_max":713,"o":"m 285 336 l 192 336 l 192 0 l 110 0 l 110 734 l 192 734 l 192 408 l 283 408 l 583 734 l 677 734 l 679 730 l 356 378 l 713 4 l 711 0 l 613 0 l 285 336 z "},"Ł":{"ha":724,"x_min":16,"x_max":691,"o":"m 203 553 l 415 621 l 415 547 l 203 479 l 203 68 l 691 68 l 691 0 l 121 0 l 121 453 l 16 420 l 16 494 l 121 527 l 121 987 l 203 987 l 203 553 z "},"ł":{"ha":359,"x_min":18,"x_max":342,"o":"m 222 583 l 342 631 l 342 557 l 222 509 l 222 0 l 141 0 l 141 478 l 18 430 l 18 504 l 141 552 l 141 1058 l 222 1058 l 222 583 z "},"Ŋ":{"ha":972,"x_min":123,"x_max":851,"o":"m 851 987 l 851 -60 q 797 -235 851 -174 q 645 -296 742 -296 q 606 -293 624 -296 q 569 -283 589 -290 l 578 -216 q 610 -224 589 -220 q 645 -227 631 -227 q 737 -183 704 -227 q 770 -60 770 -139 l 770 0 l 209 844 l 205 844 l 205 0 l 123 0 l 123 987 l 205 987 l 766 142 l 770 143 l 770 987 l 851 987 z "},"ŋ":{"ha":773,"x_min":106,"x_max":665,"o":"m 179 734 l 186 609 q 281 711 222 675 q 421 747 340 747 q 603 674 541 747 q 665 447 665 602 l 665 -60 q 611 -235 665 -174 q 459 -296 556 -296 q 416 -293 436 -296 q 375 -283 397 -290 l 385 -214 q 419 -220 395 -217 q 459 -224 442 -224 q 551 -181 519 -224 q 584 -60 584 -139 l 584 446 q 537 625 584 572 q 403 677 490 677 q 265 636 318 677 q 188 525 212 595 l 188 0 l 106 0 l 106 734 l 179 734 z "},"Œ":{"ha":1297,"x_min":73,"x_max":1237,"o":"m 1237 0 l 649 0 q 535 -11 583 -7 q 438 -14 488 -14 q 175 98 276 -14 q 73 391 73 211 l 73 597 q 174 889 73 776 q 437 1002 275 1002 q 540 998 488 1002 q 649 987 592 994 l 1234 987 l 1234 918 l 692 918 l 692 547 l 1168 547 l 1168 478 l 692 478 l 692 68 l 1237 68 l 1237 0 m 438 55 q 527 57 483 55 q 612 65 572 60 l 612 922 q 527 930 571 927 q 437 932 483 932 q 231 843 307 932 q 155 598 155 753 l 155 391 q 232 145 155 236 q 438 55 309 55 z "},"œ":{"ha":1283,"x_min":64,"x_max":1236,"o":"m 64 378 q 153 644 64 540 q 388 747 241 747 q 561 698 487 747 q 675 563 635 649 q 788 697 715 648 q 947 747 861 747 q 1159 662 1082 747 q 1236 434 1236 576 l 1236 365 l 718 365 l 718 345 q 784 138 718 221 q 957 54 850 54 q 1086 75 1033 54 q 1177 136 1139 96 l 1213 80 q 1108 11 1171 37 q 957 -14 1044 -14 q 788 34 863 -14 q 674 168 714 83 q 561 34 635 83 q 389 -14 487 -14 q 153 89 241 -14 q 64 355 64 193 l 64 378 m 145 355 q 210 141 145 228 q 389 54 274 54 q 567 141 503 54 q 631 355 631 228 l 631 378 q 567 591 631 503 q 388 678 502 678 q 210 591 274 678 q 145 378 145 503 l 145 355 m 947 678 q 795 609 857 678 q 724 437 734 541 l 726 433 l 1155 433 l 1155 454 q 1099 614 1155 549 q 947 678 1043 678 z "},"ſ":{"ha":315,"x_min":113,"x_max":416,"o":"m 113 0 l 113 841 q 169 1012 113 951 q 323 1072 224 1072 q 369 1069 346 1072 q 416 1059 392 1065 l 405 994 q 372 1001 388 998 q 334 1003 355 1003 q 231 960 267 1003 q 194 841 194 917 l 194 0 l 113 0 z "},"ƒ":{"ha":454,"x_min":-40,"x_max":463,"o":"m 407 667 l 241 667 l 241 -60 q 187 -235 241 -174 q 35 -296 132 -296 q -2 -293 15 -296 q -40 -283 -19 -290 l -31 -216 q 0 -223 -20 -220 q 35 -227 20 -227 q 127 -183 94 -227 q 160 -60 160 -140 l 160 667 l 38 667 l 38 734 l 160 734 l 160 841 q 215 1012 160 951 q 370 1072 271 1072 q 416 1069 393 1072 q 463 1059 439 1065 l 452 992 q 418 999 435 996 q 378 1001 401 1001 q 277 959 312 1001 q 241 841 241 917 l 241 734 l 407 734 l 407 667 z "},"Ơ":{"ha":969,"x_min":94,"x_max":1039,"o":"m 861 413 q 756 104 861 222 q 475 -14 651 -14 q 198 104 301 -14 q 94 413 94 222 l 94 574 q 197 883 94 764 q 474 1002 300 1002 q 642 966 567 1002 q 768 867 717 931 q 909 934 861 873 q 958 1103 958 995 l 1039 1103 q 979 897 1039 974 q 810 802 920 819 q 848 695 835 753 q 861 574 861 637 l 861 413 m 780 575 q 699 833 780 735 q 474 930 618 930 q 254 833 333 930 q 176 575 176 735 l 176 413 q 255 154 176 252 q 475 56 334 56 q 700 154 619 56 q 780 413 780 251 l 780 575 z "},"ơ":{"ha":777,"x_min":62,"x_max":842,"o":"m 62 378 q 151 644 62 540 q 386 747 239 747 q 514 722 456 747 q 616 650 573 696 q 728 707 690 658 q 766 841 766 756 l 842 841 q 793 676 842 739 q 655 597 745 614 q 696 496 682 551 q 711 378 711 440 l 711 355 q 622 89 711 193 q 387 -14 534 -14 q 151 89 239 -14 q 62 355 62 193 l 62 378 m 143 355 q 208 141 143 228 q 387 54 272 54 q 565 141 500 54 q 630 355 630 228 l 630 378 q 565 591 630 503 q 386 678 500 678 q 208 591 272 678 q 143 378 143 503 l 143 355 z "},"Ư":{"ha":946,"x_min":113,"x_max":1076,"o":"m 820 987 l 820 848 l 824 846 q 952 916 907 856 q 996 1078 996 976 l 1073 1078 l 1074 1075 q 1010 867 1076 945 q 820 776 943 790 l 820 318 q 721 71 820 157 q 464 -14 623 -14 q 210 72 307 -14 q 113 318 113 157 l 113 987 l 195 987 l 195 318 q 269 123 195 192 q 464 54 344 54 q 663 123 586 54 q 739 318 739 191 l 739 987 l 820 987 z "},"ư":{"ha":820,"x_min":104,"x_max":865,"o":"m 862 821 l 863 818 q 815 656 865 715 q 667 589 765 598 l 667 0 l 595 0 l 588 120 q 493 21 553 56 q 352 -14 433 -14 q 170 64 236 -14 q 104 309 104 143 l 104 734 l 186 734 l 186 307 q 232 115 186 173 q 361 56 277 56 q 509 98 454 56 q 585 212 564 139 l 585 734 l 667 734 l 667 650 l 671 648 q 766 698 734 654 q 797 821 797 742 l 862 821 z "},"ȷ":{"ha":317,"x_min":-79,"x_max":202,"o":"m 202 734 l 202 -60 q 148 -235 202 -174 q -3 -296 94 -296 q -41 -293 -23 -296 q -79 -283 -58 -290 l -70 -216 q -38 -223 -59 -220 q -3 -227 -17 -227 q 89 -183 56 -227 q 121 -60 121 -139 l 121 734 l 202 734 z "},"ə":{"ha":715,"x_min":62,"x_max":662,"o":"m 342 747 q 571 646 479 747 q 662 388 662 544 l 662 351 q 571 90 662 193 q 353 -14 480 -14 q 140 71 217 -14 q 62 299 62 156 l 62 368 l 581 368 l 581 388 q 515 595 581 511 q 342 679 448 679 q 212 657 265 679 q 121 597 159 636 l 87 653 q 191 722 127 696 q 342 747 254 747 m 353 55 q 503 123 441 55 q 574 296 564 191 l 573 299 l 144 299 l 144 279 q 200 119 144 183 q 353 55 256 55 z "},"ˆ":{"ha":597,"x_min":109,"x_max":485,"o":"m 485 861 l 485 849 l 409 849 l 296 963 l 183 849 l 109 849 l 109 863 l 262 1013 l 329 1013 l 485 861 z "},"ˇ":{"ha":567,"x_min":92,"x_max":473,"o":"m 283 899 l 395 1013 l 473 1013 l 473 1002 l 315 849 l 250 849 l 92 1002 l 92 1013 l 170 1013 l 283 899 z "},"˘":{"ha":587,"x_min":94,"x_max":484,"o":"m 480 987 l 481 983 q 432 860 484 907 q 290 812 380 812 q 147 860 199 812 q 98 983 94 908 l 99 987 l 163 987 q 193 903 163 935 q 290 871 224 871 q 385 904 353 871 q 416 987 416 937 l 480 987 z "},"˙":{"ha":330,"x_min":106,"x_max":209,"o":"m 209 873 l 106 873 l 106 987 l 209 987 l 209 873 z "},"˚":{"ha":458,"x_min":116,"x_max":343,"o":"m 116 898 q 150 978 116 945 q 231 1010 183 1010 q 310 978 277 1010 q 343 898 343 945 q 310 819 343 850 q 231 787 277 787 q 149 819 182 787 q 116 898 116 850 m 169 898 q 187 854 169 871 q 231 836 205 836 q 273 853 256 836 q 290 898 290 871 q 273 943 290 925 q 231 961 256 961 q 187 943 205 961 q 169 898 169 924 z "},"˛":{"ha":347,"x_min":62,"x_max":283,"o":"m 235 0 q 161 -73 186 -41 q 135 -144 135 -106 q 148 -183 135 -165 q 195 -201 161 -201 q 234 -195 217 -201 q 267 -180 250 -189 l 283 -236 q 238 -257 262 -249 q 180 -266 213 -266 q 95 -236 128 -266 q 62 -151 62 -205 q 96 -57 62 -103 q 194 25 131 -11 l 235 0 z "},"˜":{"ha":605,"x_min":69,"x_max":520,"o":"m 520 1004 q 483 905 520 945 q 390 866 446 866 q 288 903 340 866 q 199 941 235 941 q 145 917 167 941 q 123 857 123 893 l 69 869 q 106 967 69 927 q 199 1006 142 1006 q 298 969 243 1006 q 390 932 354 932 q 444 956 421 932 q 466 1018 466 981 l 520 1004 z "},"˝":{"ha":524,"x_min":91,"x_max":536,"o":"m 436 1029 l 534 1029 l 536 1025 l 335 849 l 258 849 l 257 853 l 436 1029 m 236 1029 l 326 1029 l 328 1025 l 162 849 l 93 849 l 91 852 l 236 1029 z "},"˳":{"ha":444,"x_min":125,"x_max":320,"o":"m 125 -153 q 154 -89 125 -115 q 224 -62 183 -62 q 292 -89 263 -62 q 320 -153 320 -115 q 292 -216 320 -191 q 224 -241 264 -241 q 154 -216 182 -241 q 125 -153 125 -191 m 174 -153 q 188 -183 174 -170 q 224 -195 203 -195 q 258 -183 244 -195 q 272 -153 272 -171 q 258 -121 272 -134 q 224 -109 244 -109 q 188 -121 203 -109 q 174 -153 174 -134 z "},"̀":{"ha":0,"x_min":-511,"x_max":-332,"o":"m -332 823 l -397 823 l -511 1039 l -426 1039 l -332 823 z "},"́":{"ha":0,"x_min":-412,"x_max":-236,"o":"m -317 1040 l -236 1040 l -353 824 l -412 824 l -317 1040 z "},"̃":{"ha":0,"x_min":-576,"x_max":-125,"o":"m -125 1004 q -162 905 -125 945 q -255 866 -199 866 q -357 903 -305 866 q -446 941 -410 941 q -500 917 -478 941 q -522 857 -522 893 l -576 869 q -539 967 -576 927 q -446 1006 -503 1006 q -347 969 -402 1006 q -255 932 -291 932 q -201 956 -224 932 q -179 1018 -179 981 l -125 1004 z "},"̉":{"ha":0,"x_min":-447,"x_max":-243,"o":"m -424 837 l -424 922 q -337 940 -363 926 q -311 985 -311 954 q -350 1034 -311 1019 q -447 1050 -389 1050 l -442 1102 q -296 1070 -350 1102 q -243 985 -243 1038 q -276 909 -243 935 q -362 879 -309 884 l -363 837 l -424 837 z "},"̏":{"ha":0,"x_min":-659,"x_max":-214,"o":"m -380 853 l -381 849 l -458 849 l -659 1025 l -657 1029 l -559 1029 l -380 853 m -214 852 l -216 849 l -285 849 l -451 1025 l -449 1029 l -359 1029 l -214 852 z "},"̣":{"ha":0,"x_min":-450,"x_max":-347,"o":"m -347 -214 l -450 -214 l -450 -100 l -347 -100 l -347 -214 z "},"΄":{"ha":352,"x_min":130,"x_max":287,"o":"m 183 1097 l 287 1097 l 178 873 l 130 873 l 183 1097 z "},"΅":{"ha":665,"x_min":111,"x_max":553,"o":"m 553 884 l 445 884 l 445 987 l 553 987 l 553 884 m 219 884 l 111 884 l 111 987 l 219 987 l 219 884 m 326 1147 l 444 1147 l 361 998 l 301 998 l 326 1147 z "},"·":{"ha":341,"x_min":113,"x_max":218,"o":"m 218 423 l 113 423 l 113 545 l 218 545 l 218 423 z "},"Γ":{"ha":766,"x_min":127,"x_max":721,"o":"m 721 918 l 208 918 l 208 0 l 127 0 l 127 987 l 721 987 l 721 918 z "},"Δ":{"ha":968,"x_min":31,"x_max":930,"o":"m 525 987 l 930 0 l 31 0 l 448 987 l 525 987 m 143 68 l 818 68 l 488 887 l 484 887 l 143 68 z "},"∆":{"ha":968,"x_min":31,"x_max":930,"o":"m 525 987 l 930 0 l 31 0 l 448 987 l 525 987 m 143 68 l 818 68 l 488 887 l 484 887 l 143 68 z "},"Θ":{"ha":935,"x_min":84,"x_max":850,"o":"m 655 458 l 279 458 l 279 527 l 655 527 l 655 458 m 850 413 q 746 104 850 222 q 465 -14 641 -14 q 188 104 291 -14 q 84 413 84 222 l 84 574 q 187 883 84 764 q 464 1002 290 1002 q 745 883 640 1002 q 850 574 850 764 l 850 413 m 770 575 q 689 833 770 735 q 464 930 608 930 q 244 833 323 930 q 165 575 165 735 l 165 413 q 244 154 165 252 q 465 56 323 56 q 689 154 609 56 q 770 413 770 251 l 770 575 z "},"Λ":{"ha":900,"x_min":47,"x_max":848,"o":"m 449 870 l 445 870 l 132 0 l 47 0 l 409 987 l 486 987 l 848 0 l 764 0 l 449 870 z "},"Ξ":{"ha":777,"x_min":79,"x_max":703,"o":"m 79 68 l 703 68 l 703 0 l 79 0 l 79 68 m 144 532 l 631 532 l 631 463 l 144 463 l 144 532 m 87 987 l 685 987 l 685 918 l 87 918 l 87 987 z "},"Π":{"ha":983,"x_min":130,"x_max":853,"o":"m 853 0 l 772 0 l 772 918 l 210 918 l 210 0 l 130 0 l 130 987 l 853 987 l 853 0 z "},"Σ":{"ha":777,"x_min":43,"x_max":726,"o":"m 477 504 l 144 69 l 726 69 l 726 0 l 43 0 l 43 63 l 393 515 l 43 924 l 43 987 l 688 987 l 688 918 l 154 918 l 153 915 l 477 528 l 477 504 z "},"Φ":{"ha":993,"x_min":60,"x_max":932,"o":"m 536 860 l 538 860 q 822 756 712 860 q 932 496 932 653 q 822 234 932 338 q 538 131 712 131 l 536 131 l 536 0 l 455 0 l 455 131 l 454 131 q 170 234 279 131 q 60 495 60 336 q 170 756 60 652 q 454 860 279 860 l 455 860 l 455 987 l 536 987 l 536 860 m 536 791 l 536 199 l 539 199 q 767 282 684 199 q 851 496 851 364 q 767 709 851 627 q 539 791 683 791 l 536 791 m 454 791 q 225 708 309 791 q 141 495 141 626 q 224 281 141 362 q 454 199 308 199 l 455 199 l 455 791 l 454 791 z "},"Ψ":{"ha":964,"x_min":84,"x_max":874,"o":"m 517 311 l 521 310 q 718 396 642 316 q 793 608 793 476 l 793 987 l 874 987 l 874 608 q 775 343 874 441 q 517 236 677 245 l 517 0 l 435 0 l 435 237 q 180 345 277 247 q 84 608 84 442 l 84 987 l 165 987 l 165 608 q 239 397 165 477 q 431 310 312 317 l 435 311 l 435 987 l 517 987 l 517 311 z "},"Ω":{"ha":909,"x_min":81,"x_max":822,"o":"m 508 79 q 669 214 606 112 q 732 493 732 317 l 732 574 q 655 834 732 736 q 449 932 578 932 q 242 834 319 932 q 166 574 166 736 l 166 493 q 231 214 166 316 q 395 79 296 111 l 395 0 l 81 0 l 81 68 l 284 68 q 140 240 195 130 q 85 493 85 351 l 85 572 q 186 883 85 764 q 449 1002 286 1002 q 712 883 611 1002 q 814 572 814 764 l 814 493 q 759 240 814 351 q 616 68 705 130 l 822 68 l 822 0 l 508 0 l 508 79 z "},"Ω":{"ha":909,"x_min":81,"x_max":822,"o":"m 508 79 q 669 214 606 112 q 732 493 732 317 l 732 574 q 655 834 732 736 q 449 932 578 932 q 242 834 319 932 q 166 574 166 736 l 166 493 q 231 214 166 316 q 395 79 296 111 l 395 0 l 81 0 l 81 68 l 284 68 q 140 240 195 130 q 85 493 85 351 l 85 572 q 186 883 85 764 q 449 1002 286 1002 q 712 883 611 1002 q 814 572 814 764 l 814 493 q 759 240 814 351 q 616 68 705 130 l 822 68 l 822 0 l 508 0 l 508 79 z "},"α":{"ha":782,"x_min":75,"x_max":777,"o":"m 663 734 l 663 186 q 681 87 663 115 q 732 59 699 59 q 748 60 740 59 q 766 64 755 62 l 777 1 q 745 -11 762 -7 q 711 -14 729 -14 q 625 17 656 -14 q 585 119 594 49 q 492 20 549 55 q 355 -14 434 -14 q 150 84 224 -14 q 75 347 75 182 l 75 361 q 150 642 75 536 q 357 747 224 747 q 491 711 434 747 q 584 608 548 675 l 593 734 l 663 734 m 157 347 q 210 134 157 214 q 370 54 263 54 q 501 98 450 54 q 582 218 553 141 l 582 500 q 502 628 553 578 q 372 678 450 678 q 211 590 264 678 q 157 361 157 501 l 157 347 z "},"β":{"ha":823,"x_min":120,"x_max":739,"o":"m 403 1002 q 604 929 528 1002 q 680 741 680 856 q 645 617 680 673 q 545 530 609 561 q 689 436 639 504 q 739 274 739 368 q 655 62 739 138 q 434 -14 571 -14 q 306 8 369 -14 q 201 73 243 30 l 201 -271 l 120 -271 l 120 721 q 203 920 120 839 q 403 1002 286 1002 m 400 558 q 551 607 503 558 q 600 745 600 656 q 548 877 600 821 q 403 932 497 932 q 259 872 317 932 q 201 721 201 812 l 201 161 q 293 83 232 112 q 428 54 353 54 q 597 113 537 54 q 658 271 658 171 q 598 428 658 366 q 433 489 539 489 l 336 489 l 336 558 l 400 558 z "},"γ":{"ha":680,"x_min":30,"x_max":653,"o":"m 569 734 l 653 734 l 382 21 l 382 -281 l 301 -281 l 301 21 l 30 734 l 114 734 l 316 184 l 340 98 l 344 98 l 370 184 l 569 734 z "},"δ":{"ha":773,"x_min":62,"x_max":711,"o":"m 643 987 l 643 920 l 283 920 l 281 916 q 598 663 486 800 q 711 378 711 526 l 711 355 q 622 89 711 193 q 387 -14 534 -14 q 151 89 239 -14 q 62 355 62 193 l 62 378 q 146 627 62 527 q 371 736 231 727 q 394 734 379 736 q 420 730 410 733 l 422 734 q 306 827 376 777 q 157 924 235 876 l 157 987 l 643 987 m 143 355 q 208 141 143 228 q 387 54 272 54 q 565 141 500 54 q 630 355 630 228 l 630 378 q 584 551 630 475 q 481 665 537 626 q 433 674 460 670 q 386 678 406 678 q 208 591 272 678 q 143 378 143 503 l 143 355 z "},"ε":{"ha":755,"x_min":73,"x_max":676,"o":"m 73 201 q 111 312 73 267 q 225 376 150 356 q 122 443 159 399 q 85 538 85 486 q 162 691 85 637 q 373 745 239 745 q 580 688 496 745 q 661 540 664 631 l 659 536 l 585 536 q 524 637 585 597 q 373 677 463 677 q 219 638 271 677 q 168 540 168 600 q 217 443 168 477 q 370 408 266 408 l 496 408 l 496 340 l 370 340 q 209 306 262 340 q 155 200 155 272 q 212 95 155 135 q 373 56 270 56 q 534 100 472 56 q 597 210 597 144 l 671 210 l 673 206 q 586 44 676 100 q 373 -12 496 -12 q 156 45 239 -12 q 73 201 73 102 z "},"ζ":{"ha":692,"x_min":50,"x_max":627,"o":"m 627 987 l 627 938 l 359 593 q 238 408 274 488 q 203 246 203 329 q 252 118 203 167 q 396 68 300 68 l 444 68 q 578 31 532 68 q 625 -76 625 -6 q 574 -195 624 -142 q 462 -271 524 -248 l 431 -212 q 510 -160 473 -195 q 547 -79 547 -125 q 521 -20 547 -41 q 438 0 495 0 l 384 0 q 189 70 256 0 q 122 244 122 140 q 162 420 122 323 q 296 632 203 517 l 526 915 l 524 918 l 50 918 l 50 987 l 627 987 z "},"η":{"ha":773,"x_min":107,"x_max":665,"o":"m 179 734 l 186 610 q 281 711 222 675 q 421 747 340 747 q 603 676 541 747 q 665 447 665 605 l 665 -281 l 584 -281 l 584 446 q 537 625 584 572 q 403 678 490 678 q 266 637 319 678 q 189 527 214 596 l 189 0 l 107 0 l 107 734 l 179 734 z "},"θ":{"ha":796,"x_min":91,"x_max":705,"o":"m 705 383 q 624 89 705 192 q 399 -14 543 -14 q 173 89 255 -14 q 91 383 91 193 l 91 604 q 172 898 91 794 q 397 1002 254 1002 q 624 898 542 1002 q 705 604 705 794 l 705 383 m 172 526 l 624 526 l 624 617 q 566 851 624 769 q 397 932 508 932 q 230 851 288 932 q 172 617 172 769 l 172 526 m 624 456 l 172 456 l 172 371 q 231 137 172 220 q 399 54 289 54 q 566 137 509 54 q 624 371 624 220 l 624 456 z "},"ι":{"ha":416,"x_min":123,"x_max":388,"o":"m 205 733 l 205 186 q 231 85 205 114 q 303 56 256 56 q 336 59 321 56 q 371 68 352 62 l 388 7 q 341 -9 365 -5 q 288 -14 317 -14 q 164 34 205 -14 q 123 189 123 81 l 123 733 l 205 733 z "},"λ":{"ha":773,"x_min":37,"x_max":746,"o":"m 127 0 l 37 0 l 317 714 l 275 823 q 225 924 254 888 q 149 960 196 960 q 128 959 142 960 q 103 956 114 958 l 100 1021 q 128 1026 109 1023 q 161 1029 147 1029 q 284 977 241 1029 q 352 850 326 925 l 597 196 q 643 100 617 136 q 704 64 669 64 q 723 65 713 64 q 743 68 734 66 l 746 0 q 724 -5 739 -3 q 699 -7 709 -7 q 590 40 630 -7 q 519 171 549 88 l 355 610 l 351 610 l 328 532 l 127 0 z "},"ξ":{"ha":709,"x_min":67,"x_max":674,"o":"m 616 987 l 616 918 l 457 918 q 278 870 338 918 q 218 745 218 822 q 276 630 218 671 q 459 589 334 589 l 548 589 l 548 519 l 459 519 q 242 459 323 519 q 162 280 162 399 q 238 122 162 181 q 444 62 315 62 l 478 62 q 624 23 574 62 q 674 -90 674 -16 q 623 -204 673 -154 q 511 -277 573 -255 l 481 -218 q 560 -169 523 -202 q 597 -92 597 -136 q 569 -28 597 -50 q 481 -5 541 -5 l 444 -5 q 183 72 286 -5 q 81 283 81 149 q 139 456 81 387 q 303 555 197 526 q 180 630 224 580 q 136 743 136 680 q 163 846 136 802 q 239 918 189 890 l 67 918 l 67 987 l 616 987 z "},"π":{"ha":827,"x_min":55,"x_max":832,"o":"m 755 664 l 649 664 l 649 186 q 675 85 649 114 q 747 56 701 56 q 781 59 765 56 q 815 68 796 62 l 832 7 q 785 -9 809 -5 q 732 -14 761 -14 q 608 34 649 -14 q 568 189 568 81 l 568 664 l 236 664 l 236 0 l 155 0 l 155 664 l 55 664 l 55 734 l 755 734 l 755 664 z "},"ρ":{"ha":773,"x_min":107,"x_max":696,"o":"m 696 347 q 623 84 696 182 q 418 -14 549 -14 q 284 13 342 -14 q 189 91 227 40 l 189 -282 l 107 -282 l 107 406 l 108 406 l 107 412 q 190 659 107 571 q 401 747 273 747 q 619 643 542 747 q 696 361 696 538 l 696 347 m 615 361 q 562 590 615 501 q 401 678 508 678 q 241 595 294 678 q 189 404 189 513 l 189 182 q 269 89 217 123 q 399 54 321 54 q 561 134 506 54 q 615 347 615 214 l 615 361 z "},"ς":{"ha":743,"x_min":75,"x_max":663,"o":"m 389 747 q 585 679 508 747 q 660 489 663 610 l 659 485 l 586 485 q 531 626 586 574 q 389 678 476 678 q 216 592 276 678 q 157 381 157 506 l 157 353 q 223 153 157 232 q 418 60 290 73 q 568 14 520 49 q 616 -91 616 -20 q 565 -205 615 -155 q 452 -279 514 -256 l 422 -220 q 501 -171 465 -203 q 538 -94 538 -138 q 508 -34 538 -54 q 409 -7 477 -14 q 162 104 248 9 q 75 353 75 199 l 75 381 q 160 643 75 539 q 389 747 244 747 z "},"σ":{"ha":773,"x_min":62,"x_max":767,"o":"m 767 664 l 555 664 q 670 540 629 617 q 711 366 711 463 l 711 343 q 622 88 711 190 q 387 -14 532 -14 q 151 89 239 -14 q 62 355 62 193 l 62 378 q 150 633 62 533 q 385 734 239 733 l 767 734 l 767 664 m 143 355 q 208 141 143 228 q 387 54 272 54 q 565 141 500 54 q 630 355 630 228 l 630 378 q 565 581 630 497 q 386 664 500 664 l 385 664 q 207 580 271 663 q 143 378 143 496 l 143 355 z "},"τ":{"ha":710,"x_min":52,"x_max":657,"o":"m 657 665 l 391 665 l 391 0 l 309 0 l 309 665 l 52 665 l 52 734 l 657 734 l 657 665 z "},"υ":{"ha":773,"x_min":105,"x_max":686,"o":"m 186 734 l 186 324 q 241 120 186 185 q 391 54 296 54 q 554 142 503 54 q 605 359 605 229 q 583 549 604 456 q 526 734 562 642 l 614 734 q 666 563 647 649 q 686 360 686 476 q 615 89 686 192 q 394 -14 544 -14 q 181 69 257 -14 q 105 326 105 152 l 105 734 l 186 734 z "},"φ":{"ha":952,"x_min":77,"x_max":878,"o":"m 513 734 q 773 627 669 734 q 878 356 878 519 q 785 102 878 206 q 513 -13 692 -1 l 513 -324 l 431 -324 l 431 -13 q 163 105 250 -1 q 77 376 77 210 q 102 569 77 486 q 172 734 127 652 l 260 734 q 185 556 212 646 q 158 375 158 467 q 222 159 158 248 q 427 61 286 70 l 431 62 l 431 734 l 513 734 m 513 61 l 517 60 q 725 153 654 67 q 797 355 797 239 q 718 572 795 481 q 517 660 640 663 l 513 659 l 513 61 z "},"χ":{"ha":741,"x_min":43,"x_max":730,"o":"m 104 741 q 221 692 179 741 q 296 569 262 644 l 394 342 l 398 342 l 602 734 l 687 734 l 435 249 l 581 -86 q 635 -186 615 -157 q 688 -216 655 -216 q 707 -214 696 -216 q 728 -212 718 -213 l 730 -281 q 708 -287 722 -285 q 683 -290 693 -290 q 583 -249 621 -290 q 504 -111 546 -208 l 389 153 l 385 153 l 159 -281 l 73 -281 l 348 245 l 219 541 q 163 640 187 609 q 93 670 138 670 q 70 669 85 670 q 47 666 54 667 l 43 733 q 72 739 53 736 q 104 741 90 741 z "},"ψ":{"ha":949,"x_min":82,"x_max":875,"o":"m 509 733 l 509 62 l 513 60 q 727 163 661 68 q 794 392 794 257 q 768 565 793 479 q 699 734 743 650 l 788 734 q 851 577 828 656 q 875 393 875 498 q 786 107 875 217 q 509 -13 697 -3 l 509 -300 l 429 -300 l 429 -12 q 173 102 264 0 q 82 402 82 203 l 82 734 l 163 734 l 163 401 q 234 152 163 236 q 425 61 304 68 l 429 62 l 429 733 l 509 733 z "},"ω":{"ha":1192,"x_min":90,"x_max":1102,"o":"m 277 734 q 200 549 228 642 q 170 359 172 456 q 218 141 170 228 q 365 54 267 54 q 503 120 452 54 q 555 324 555 185 l 555 522 l 637 522 l 637 324 q 688 120 637 185 q 827 54 739 54 q 973 141 924 54 q 1021 359 1021 228 q 992 548 1020 456 q 915 734 964 641 l 1003 734 q 1075 563 1048 649 q 1102 360 1102 476 q 1033 90 1102 195 q 831 -14 964 -14 q 683 30 743 -14 q 595 161 623 73 q 508 30 568 73 q 361 -14 448 -14 q 158 90 227 -14 q 90 360 90 195 q 116 563 90 476 q 189 734 142 650 l 277 734 z "},"ϑ":{"ha":854,"x_min":90,"x_max":782,"o":"m 429 56 q 630 138 558 56 q 701 372 701 220 l 701 397 q 459 487 551 402 q 367 703 367 572 l 367 745 q 425 931 367 861 q 574 1002 483 1002 q 726 933 671 1002 q 782 745 782 865 l 782 372 q 686 89 782 192 q 429 -14 589 -14 q 183 93 277 -14 q 90 372 90 200 l 90 849 l 172 850 l 172 372 q 241 142 172 229 q 429 56 310 56 m 448 701 q 515 539 448 604 q 698 471 581 475 l 701 473 l 701 745 q 669 883 701 836 q 574 930 637 930 q 482 884 516 930 q 448 745 448 837 l 448 701 z "},"ϒ":{"ha":745,"x_min":-28,"x_max":777,"o":"m 529 840 q 605 960 564 924 q 705 995 646 995 q 743 990 725 995 q 777 977 762 985 l 761 913 q 743 920 754 917 q 718 924 731 924 q 658 904 685 924 q 606 827 631 884 l 416 406 l 416 0 l 334 0 l 334 408 l 142 827 q 89 904 115 884 q 31 924 62 924 q 5 920 16 924 q -12 913 -5 917 l -28 977 q 5 990 -13 985 q 43 995 23 995 q 142 960 101 995 q 219 840 184 924 l 348 551 l 372 475 l 376 475 l 401 551 l 529 840 z "},"ϖ":{"ha":1092,"x_min":38,"x_max":1067,"o":"m 1067 664 l 954 664 q 998 525 982 598 q 1014 360 1014 451 q 951 91 1014 195 q 768 -14 889 -14 q 630 28 686 -14 q 547 157 573 71 q 464 28 519 71 q 326 -14 408 -14 q 143 91 205 -14 q 81 360 81 195 q 96 524 81 450 q 140 664 112 597 l 38 664 l 38 734 l 1067 734 l 1067 664 m 933 359 q 914 513 932 437 q 865 664 896 589 l 229 664 q 179 513 197 589 q 161 359 161 437 q 203 141 161 228 q 330 54 245 54 q 458 120 411 54 q 506 324 506 185 l 506 507 l 588 507 l 588 324 q 635 120 588 185 q 765 54 683 54 q 891 141 848 54 q 933 359 933 228 z "},"Ђ":{"ha":1034,"x_min":37,"x_max":975,"o":"m 798 918 l 413 918 l 413 552 q 533 587 474 573 q 637 600 592 600 q 885 522 795 600 q 975 287 975 444 q 893 78 975 161 q 656 -4 810 -6 l 652 -3 l 652 58 q 833 123 772 58 q 895 287 895 187 q 826 468 894 408 q 637 528 758 528 q 528 515 586 528 q 413 481 470 502 l 413 0 l 332 0 l 332 918 l 37 918 l 37 987 l 798 987 l 798 918 z "},"Є":{"ha":918,"x_min":95,"x_max":817,"o":"m 815 309 l 817 305 q 711 72 804 157 q 462 -14 618 -14 q 196 105 297 -14 q 95 414 95 224 l 95 574 q 196 883 95 763 q 462 1002 297 1002 q 711 919 619 1002 q 817 684 804 836 l 815 680 l 739 680 q 655 868 723 803 q 462 933 587 933 q 254 833 332 933 q 176 576 176 732 l 176 534 l 587 534 l 587 466 l 176 466 l 176 414 q 254 155 176 255 q 462 55 332 55 q 655 119 587 55 q 739 309 724 182 l 815 309 z "},"Љ":{"ha":1495,"x_min":35,"x_max":1421,"o":"m 848 987 l 848 574 l 1095 574 q 1336 494 1251 574 q 1421 287 1421 415 q 1335 79 1421 159 q 1095 0 1250 0 l 766 0 l 766 918 l 385 918 l 372 541 q 296 122 361 244 q 63 0 231 0 l 35 0 l 35 68 l 60 68 q 229 169 179 68 q 291 541 279 269 l 307 987 l 848 987 m 848 505 l 848 68 l 1095 68 q 1279 132 1217 68 q 1340 288 1340 195 q 1278 442 1340 378 q 1095 505 1217 505 l 848 505 z "},"Њ":{"ha":1499,"x_min":127,"x_max":1424,"o":"m 208 532 l 770 532 l 770 987 l 851 987 l 851 559 l 1099 559 q 1339 482 1255 559 q 1424 281 1424 406 q 1339 78 1424 155 q 1099 0 1254 0 l 770 0 l 770 464 l 208 464 l 208 0 l 127 0 l 127 987 l 208 987 l 208 532 m 851 490 l 851 72 l 1099 72 q 1282 132 1221 72 q 1343 282 1343 191 q 1282 430 1343 370 q 1099 490 1221 490 l 851 490 z "},"Ћ":{"ha":1117,"x_min":37,"x_max":1001,"o":"m 798 918 l 418 918 l 418 548 q 542 574 480 565 q 673 583 603 583 q 918 512 835 583 q 1001 280 1001 440 l 1001 0 l 920 0 l 920 280 q 859 460 920 406 q 673 514 798 514 q 544 505 607 514 q 418 479 481 496 l 418 0 l 336 0 l 336 918 l 37 918 l 37 987 l 798 987 l 798 918 z "},"Џ":{"ha":979,"x_min":127,"x_max":851,"o":"m 127 987 l 208 987 l 208 68 l 770 68 l 770 987 l 851 987 l 851 0 l 534 0 l 534 -239 l 452 -239 l 452 0 l 127 0 l 127 987 z "},"Б":{"ha":871,"x_min":121,"x_max":776,"o":"m 715 918 l 203 918 l 203 557 l 450 557 q 691 482 606 557 q 776 280 776 407 q 691 76 776 153 q 450 0 606 0 l 121 0 l 121 987 l 715 987 l 715 918 m 203 488 l 203 68 l 450 68 q 633 129 572 68 q 694 281 694 189 q 633 429 694 370 q 450 488 572 488 l 203 488 z "},"Д":{"ha":1005,"x_min":49,"x_max":960,"o":"m 954 -239 l 879 -239 l 879 0 l 130 0 l 130 -239 l 58 -239 l 49 68 l 115 68 q 227 261 172 127 q 292 632 281 395 l 310 987 l 854 987 l 854 68 l 960 68 l 954 -239 m 374 632 q 318 293 363 439 q 209 68 272 148 l 773 68 l 773 918 l 388 918 l 374 632 z "},"Ж":{"ha":1222,"x_min":16,"x_max":1203,"o":"m 762 471 l 651 471 l 651 0 l 570 0 l 570 471 l 456 471 l 119 0 l 16 0 l 382 510 l 41 987 l 139 987 l 450 541 l 570 541 l 570 987 l 651 987 l 651 541 l 768 541 l 1080 987 l 1177 987 l 836 510 l 1203 0 l 1100 0 l 762 471 z "},"З":{"ha":826,"x_min":62,"x_max":762,"o":"m 746 728 q 699 594 746 654 q 569 506 652 535 q 713 419 664 479 q 762 268 762 359 q 663 61 762 136 q 406 -14 564 -14 q 164 59 267 -14 q 66 270 62 132 l 67 274 l 142 274 q 216 117 142 179 q 406 54 290 54 q 608 111 535 54 q 680 265 680 168 q 612 419 680 370 q 408 469 543 469 l 290 469 l 290 538 l 408 538 q 603 589 540 538 q 665 730 665 639 q 600 877 665 821 q 406 932 534 932 q 229 876 300 932 q 157 729 157 819 l 81 729 l 80 733 q 172 927 76 852 q 406 1002 267 1002 q 655 930 564 1002 q 746 728 746 859 z "},"И":{"ha":986,"x_min":130,"x_max":857,"o":"m 776 987 l 857 987 l 857 0 l 776 0 l 776 844 l 772 845 l 210 0 l 130 0 l 130 987 l 210 987 l 210 144 l 214 143 l 776 987 z "},"Л":{"ha":975,"x_min":28,"x_max":848,"o":"m 848 987 l 848 0 l 766 0 l 766 918 l 342 918 l 329 541 q 261 122 319 245 q 56 0 203 0 l 28 0 l 28 68 l 53 68 q 196 169 154 68 q 248 541 239 269 l 263 987 l 848 987 z "},"У":{"ha":871,"x_min":39,"x_max":832,"o":"m 408 448 l 451 348 l 455 348 l 737 987 l 832 987 l 454 168 q 364 35 414 84 q 216 -14 315 -14 q 180 -12 200 -14 q 153 -7 159 -9 l 159 59 q 185 56 168 57 q 217 54 203 54 q 310 89 275 54 q 376 186 345 123 l 412 259 l 39 987 l 132 987 l 408 448 z "},"Ф":{"ha":1031,"x_min":52,"x_max":983,"o":"m 558 887 l 576 887 q 869 776 755 887 q 983 496 983 665 q 869 215 983 327 q 576 104 755 104 l 558 104 l 558 -41 l 476 -41 l 476 104 l 458 104 q 165 215 278 104 q 52 495 52 326 q 165 775 52 664 q 458 887 279 887 l 476 887 l 476 1028 l 558 1028 l 558 887 m 558 819 l 558 173 l 578 173 q 815 262 728 173 q 902 496 902 352 q 815 729 902 640 q 578 819 728 819 l 558 819 m 458 819 q 220 728 307 819 q 133 495 133 638 q 220 262 133 351 q 458 173 307 173 l 476 173 l 476 819 l 458 819 z "},"Ц":{"ha":991,"x_min":123,"x_max":943,"o":"m 123 987 l 204 987 l 204 68 l 765 68 l 765 70 l 766 70 l 766 987 l 847 987 l 847 70 l 943 70 l 937 -238 l 863 -238 l 863 0 l 123 0 l 123 987 z "},"Ч":{"ha":924,"x_min":117,"x_max":797,"o":"m 797 987 l 797 0 l 715 0 l 715 450 q 583 421 647 431 q 445 411 518 411 q 200 482 282 411 q 117 714 117 553 l 117 987 l 199 987 l 199 714 q 259 534 199 588 q 445 480 319 480 q 581 490 514 480 q 715 519 648 500 l 715 987 l 797 987 z "},"Ш":{"ha":1286,"x_min":125,"x_max":1161,"o":"m 206 987 l 206 68 l 603 68 l 603 987 l 684 987 l 684 68 l 1080 68 l 1080 987 l 1161 987 l 1161 0 l 125 0 l 125 987 l 206 987 z "},"Щ":{"ha":1310,"x_min":125,"x_max":1257,"o":"m 206 987 l 206 68 l 603 68 l 603 987 l 684 987 l 684 68 l 1080 68 l 1080 987 l 1161 987 l 1161 69 l 1257 69 l 1251 -238 l 1176 -238 l 1176 0 l 125 0 l 125 987 l 206 987 z "},"Ъ":{"ha":1076,"x_min":-7,"x_max":979,"o":"m -7 987 l 406 987 l 406 557 l 653 557 q 895 482 810 557 q 979 280 979 407 q 894 76 979 153 q 653 0 809 0 l 325 0 l 325 918 l -7 918 l -7 987 m 406 488 l 406 68 l 653 68 q 837 129 776 68 q 897 281 897 189 q 837 429 897 370 q 653 488 776 488 l 406 488 z "},"Ы":{"ha":1160,"x_min":127,"x_max":1029,"o":"m 208 557 l 455 557 q 696 482 612 557 q 781 280 781 407 q 696 76 781 153 q 455 0 611 0 l 127 0 l 127 987 l 208 987 l 208 557 m 208 488 l 208 68 l 455 68 q 638 129 578 68 q 699 281 699 189 q 638 429 699 370 q 455 488 578 488 l 208 488 m 1029 0 l 948 0 l 948 987 l 1029 987 l 1029 0 z "},"Ь":{"ha":850,"x_min":121,"x_max":776,"o":"m 203 557 l 450 557 q 691 482 606 557 q 776 280 776 407 q 691 76 776 153 q 450 0 606 0 l 121 0 l 121 987 l 203 987 l 203 557 m 203 488 l 203 68 l 450 68 q 633 129 572 68 q 694 281 694 189 q 633 429 694 370 q 450 488 572 488 l 203 488 z "},"Э":{"ha":917,"x_min":109,"x_max":831,"o":"m 114 679 l 113 683 q 207 915 109 827 q 464 1002 304 1002 q 729 883 628 1002 q 831 574 831 763 l 831 414 q 729 105 831 224 q 464 -14 628 -14 q 206 71 302 -14 q 113 304 109 155 l 114 308 l 190 308 q 262 121 190 188 q 464 55 335 55 q 671 155 593 55 q 750 412 750 254 l 750 478 l 335 478 l 335 547 l 750 547 l 750 574 q 671 833 750 732 q 464 933 593 933 q 262 868 335 933 q 190 679 190 802 l 114 679 z "},"Ю":{"ha":1264,"x_min":146,"x_max":1177,"o":"m 1177 413 q 1073 104 1177 222 q 791 -14 968 -14 q 514 104 618 -14 q 411 413 411 222 l 411 450 l 227 450 l 227 0 l 146 0 l 146 987 l 227 987 l 227 519 l 411 519 l 411 574 q 514 883 411 764 q 791 1002 617 1002 q 1072 883 967 1002 q 1177 574 1177 764 l 1177 413 m 1097 575 q 1016 833 1097 735 q 791 930 935 930 q 571 833 650 930 q 492 575 492 735 l 492 413 q 571 154 492 252 q 791 56 650 56 q 1016 154 936 56 q 1097 413 1097 251 l 1097 575 z "},"Я":{"ha":849,"x_min":66,"x_max":737,"o":"m 153 0 l 66 0 l 300 428 q 153 527 203 460 q 102 690 102 594 q 191 909 102 831 q 436 987 279 987 l 737 987 l 737 0 l 656 0 l 656 404 l 370 404 l 153 0 m 656 918 l 436 918 q 247 858 312 918 q 182 692 182 798 q 243 534 182 594 q 413 473 304 473 l 656 473 l 656 918 z "},"б":{"ha":764,"x_min":66,"x_max":715,"o":"m 401 685 q 629 593 543 685 q 715 357 715 500 l 715 334 q 626 83 715 180 q 391 -14 537 -14 q 155 83 243 -14 q 66 334 66 181 l 66 441 q 154 783 66 653 q 395 937 243 912 q 540 978 498 952 q 583 1053 583 1004 l 646 1053 l 648 1049 q 591 919 650 957 q 412 865 532 880 q 234 776 307 852 q 148 570 162 700 l 151 566 q 256 652 190 620 q 401 685 322 685 m 389 616 q 211 541 275 616 q 147 357 147 465 l 147 334 q 212 135 147 216 q 391 54 276 54 q 569 135 505 54 q 633 334 633 216 l 633 357 q 569 541 633 466 q 389 616 504 616 z "},"в":{"ha":777,"x_min":115,"x_max":702,"o":"m 115 0 l 115 734 l 384 734 q 597 685 521 734 q 673 538 673 635 q 638 439 673 481 q 543 377 604 396 q 658 315 614 363 q 702 203 702 267 q 629 52 702 104 q 431 0 556 0 l 115 0 m 195 338 l 195 68 l 431 68 q 571 103 522 68 q 621 205 621 138 q 571 302 621 266 q 431 338 520 338 l 195 338 m 195 406 l 401 406 q 543 440 494 407 q 592 536 592 473 q 539 633 592 602 q 384 665 487 665 l 195 665 l 195 406 z "},"г":{"ha":585,"x_min":111,"x_max":563,"o":"m 563 664 l 192 664 l 192 0 l 111 0 l 111 734 l 563 734 l 563 664 z "},"д":{"ha":796,"x_min":36,"x_max":745,"o":"m 89 68 q 182 222 147 142 q 224 469 216 302 l 236 734 l 669 734 l 669 68 l 745 68 l 739 -216 l 665 -216 l 665 0 l 113 0 l 113 -216 l 42 -216 l 36 68 l 89 68 m 304 469 q 266 228 298 325 q 182 68 233 131 l 588 68 l 588 658 l 313 658 l 304 469 z "},"ж":{"ha":1065,"x_min":19,"x_max":1039,"o":"m 667 339 l 569 339 l 569 0 l 488 0 l 488 339 l 391 339 l 119 0 l 21 0 l 19 3 l 323 380 l 50 734 l 149 734 l 389 412 l 488 412 l 488 734 l 569 734 l 569 412 l 668 412 l 909 734 l 1008 734 l 734 380 l 1039 3 l 1037 0 l 938 0 l 667 339 z "},"з":{"ha":703,"x_min":68,"x_max":631,"o":"m 617 538 q 584 442 617 485 q 490 376 551 399 q 595 312 559 356 q 631 201 631 268 q 554 44 631 101 q 351 -12 477 -12 q 152 44 237 -12 q 71 206 68 101 l 73 210 l 148 210 q 205 100 148 145 q 351 56 263 56 q 497 95 446 56 q 549 200 549 134 q 501 306 549 273 q 353 339 453 339 l 241 339 l 241 410 l 353 410 q 493 443 450 410 q 536 540 536 477 q 490 639 536 601 q 351 677 445 677 q 215 637 271 677 q 159 536 159 597 l 85 536 l 83 540 q 159 688 79 630 q 351 745 238 745 q 547 692 476 745 q 617 538 617 638 z "},"и":{"ha":781,"x_min":111,"x_max":669,"o":"m 588 734 l 669 734 l 669 0 l 588 0 l 588 599 l 584 600 l 192 0 l 111 0 l 111 734 l 192 734 l 192 135 l 196 134 l 588 734 z "},"к":{"ha":720,"x_min":111,"x_max":705,"o":"m 305 336 l 193 336 l 193 0 l 111 0 l 111 734 l 193 734 l 193 408 l 304 408 l 573 734 l 671 734 l 672 730 l 374 378 l 705 3 l 704 0 l 602 0 l 305 336 z "},"л":{"ha":782,"x_min":28,"x_max":670,"o":"m 670 734 l 670 0 l 589 0 l 589 664 l 278 664 l 278 410 q 228 97 278 194 q 58 0 177 0 l 28 0 l 30 73 l 55 73 q 163 148 130 73 q 197 410 197 223 l 197 734 l 670 734 z "},"м":{"ha":1015,"x_min":115,"x_max":904,"o":"m 510 114 l 514 114 l 804 734 l 904 734 l 904 0 l 823 0 l 823 593 l 819 593 l 541 0 l 483 0 l 199 607 l 195 606 l 195 0 l 115 0 l 115 734 l 221 734 l 510 114 z "},"н":{"ha":781,"x_min":111,"x_max":669,"o":"m 669 0 l 588 0 l 588 336 l 193 336 l 193 0 l 111 0 l 111 734 l 193 734 l 193 405 l 588 405 l 588 734 l 669 734 l 669 0 z "},"п":{"ha":781,"x_min":111,"x_max":669,"o":"m 669 0 l 588 0 l 588 664 l 193 664 l 193 0 l 111 0 l 111 734 l 669 734 l 669 0 z "},"т":{"ha":671,"x_min":33,"x_max":638,"o":"m 638 665 l 371 665 l 371 0 l 290 0 l 290 665 l 33 665 l 33 734 l 638 734 l 638 665 z "},"ф":{"ha":1006,"x_min":75,"x_max":931,"o":"m 75 361 q 144 642 75 537 q 340 747 214 747 q 406 739 376 747 q 460 715 437 730 l 460 1058 l 541 1058 l 541 713 q 596 738 565 729 q 666 747 627 747 q 861 642 791 747 q 931 361 931 537 l 931 347 q 862 84 931 182 q 667 -14 792 -14 q 597 -6 629 -14 q 541 18 566 2 l 541 -282 l 460 -282 l 460 17 q 405 -6 435 2 q 338 -14 375 -14 q 144 84 214 -14 q 75 347 75 182 l 75 361 m 850 361 q 799 590 850 501 q 648 678 748 678 q 585 670 611 678 q 541 648 558 662 l 541 81 q 587 61 560 68 q 650 54 614 54 q 800 134 749 54 q 850 347 850 214 l 850 361 m 157 347 q 205 134 157 213 q 354 54 254 54 q 414 62 388 54 q 460 82 441 69 l 460 650 q 416 670 442 663 q 355 678 391 678 q 206 590 255 678 q 157 361 157 502 l 157 347 z "},"ц":{"ha":791,"x_min":111,"x_max":744,"o":"m 111 734 l 193 734 l 193 68 l 588 68 l 588 734 l 669 734 l 669 68 l 744 68 l 738 -218 l 663 -218 l 663 0 l 111 0 l 111 734 z "},"ч":{"ha":739,"x_min":75,"x_max":628,"o":"m 628 0 l 547 0 l 547 309 q 450 282 500 292 q 355 272 401 272 q 144 335 213 272 q 75 548 75 399 l 75 734 l 155 734 l 155 548 q 202 387 155 433 q 355 342 250 342 q 454 352 404 342 q 547 377 504 361 l 547 734 l 628 734 l 628 0 z "},"ш":{"ha":1102,"x_min":111,"x_max":1005,"o":"m 193 734 l 193 68 l 519 68 l 519 734 l 600 734 l 600 68 l 924 68 l 924 734 l 1005 734 l 1005 0 l 111 0 l 111 734 l 193 734 z "},"щ":{"ha":1114,"x_min":108,"x_max":1090,"o":"m 189 734 l 189 68 l 515 68 l 515 734 l 597 734 l 597 68 l 920 68 l 920 734 l 1002 734 l 1002 69 l 1090 69 l 1084 -218 l 1009 -218 l 1009 0 l 108 0 l 108 734 l 189 734 z "},"ъ":{"ha":875,"x_min":24,"x_max":817,"o":"m 24 734 l 338 734 l 338 467 l 549 467 q 746 402 675 467 q 817 235 817 338 q 746 65 817 131 q 549 0 675 0 l 258 0 l 258 665 l 24 665 l 24 734 m 338 398 l 338 68 l 549 68 q 689 116 643 68 q 736 233 736 163 q 689 350 736 301 q 549 398 642 398 l 338 398 z "},"ы":{"ha":1043,"x_min":115,"x_max":923,"o":"m 195 467 l 406 467 q 603 402 532 467 q 674 235 674 338 q 603 65 674 131 q 406 0 532 0 l 115 0 l 115 734 l 195 734 l 195 467 m 195 398 l 195 68 l 406 68 q 546 116 500 68 q 593 233 593 163 q 546 350 593 301 q 406 398 499 398 l 195 398 m 923 0 l 842 0 l 842 734 l 923 734 l 923 0 z "},"ь":{"ha":743,"x_min":115,"x_max":674,"o":"m 195 467 l 406 467 q 603 402 532 467 q 674 235 674 338 q 603 65 674 131 q 406 0 532 0 l 115 0 l 115 734 l 195 734 l 195 467 m 195 398 l 195 68 l 406 68 q 546 116 500 68 q 593 233 593 163 q 546 350 593 301 q 406 398 499 398 l 195 398 z "},"э":{"ha":743,"x_min":76,"x_max":664,"o":"m 351 678 q 213 632 272 678 q 154 505 154 586 l 81 505 l 79 509 q 158 679 76 610 q 351 747 241 747 q 579 644 494 747 q 664 381 664 540 l 664 353 q 579 90 664 193 q 351 -14 495 -14 q 155 57 233 -14 q 79 244 76 127 l 81 248 l 154 248 q 211 106 154 159 q 351 54 267 54 q 518 134 460 54 q 579 333 577 214 l 577 336 l 250 336 l 250 405 l 577 405 l 578 408 q 516 601 575 524 q 351 678 458 678 z "},"ю":{"ha":1129,"x_min":115,"x_max":1055,"o":"m 196 399 l 406 399 q 500 650 412 553 q 730 747 589 747 q 966 644 877 747 q 1055 378 1055 540 l 1055 355 q 966 89 1055 193 q 731 -14 878 -14 q 501 81 589 -14 q 406 331 413 177 l 196 331 l 196 0 l 115 0 l 115 734 l 196 734 l 196 399 m 487 355 q 551 141 487 228 q 731 54 616 54 q 909 141 844 54 q 974 355 974 228 l 974 378 q 909 591 974 503 q 730 678 844 678 q 551 591 616 678 q 487 378 487 503 l 487 355 z "},"я":{"ha":754,"x_min":63,"x_max":641,"o":"m 641 734 l 641 0 l 559 0 l 559 296 l 332 296 l 153 0 l 63 0 l 248 306 q 130 381 172 326 q 89 515 89 437 q 158 672 89 611 q 352 734 228 734 l 641 734 m 170 513 q 210 408 170 451 q 330 365 250 365 l 559 365 l 559 665 l 352 665 q 216 621 261 665 q 170 513 170 577 z "},"ђ":{"ha":774,"x_min":-18,"x_max":669,"o":"m 397 838 l 189 838 l 189 608 q 286 711 225 674 q 429 747 347 747 q 607 675 545 747 q 669 452 669 604 l 669 -60 q 614 -235 669 -174 q 463 -296 560 -296 q 420 -293 440 -296 q 379 -283 400 -290 l 389 -217 q 422 -224 399 -220 q 463 -227 446 -227 q 554 -183 522 -227 q 587 -60 587 -140 l 587 454 q 540 625 587 573 q 410 677 493 677 q 271 633 327 677 q 189 517 215 589 l 189 0 l 107 0 l 107 838 l -18 838 l -18 907 l 107 907 l 107 1058 l 189 1058 l 189 907 l 397 907 l 397 838 z "},"є":{"ha":743,"x_min":75,"x_max":669,"o":"m 388 54 q 530 100 469 54 q 592 229 592 146 l 664 229 l 665 224 q 584 54 669 123 q 388 -14 499 -14 q 156 89 238 -14 q 75 353 75 191 l 75 381 q 157 644 75 541 q 387 747 239 747 q 588 676 508 747 q 666 489 669 605 l 665 485 l 592 485 q 533 626 592 573 q 387 678 473 678 q 217 600 274 678 q 159 405 161 522 l 161 401 l 489 401 l 489 333 l 161 333 l 159 330 q 217 132 161 210 q 388 54 273 54 z "},"љ":{"ha":1187,"x_min":24,"x_max":1137,"o":"m 658 734 l 658 440 l 868 440 q 1066 379 995 440 q 1137 221 1137 318 q 1065 62 1137 123 q 868 0 994 0 l 576 0 l 576 664 l 277 664 l 277 410 q 226 97 277 195 q 54 0 174 0 l 24 0 l 26 70 l 52 70 q 161 147 126 70 q 196 410 196 224 l 196 734 l 658 734 m 658 372 l 658 68 l 868 68 q 1008 113 962 68 q 1055 222 1055 157 q 1008 328 1055 285 q 868 372 962 372 l 658 372 z "},"њ":{"ha":1196,"x_min":111,"x_max":1147,"o":"m 193 442 l 588 442 l 588 734 l 669 734 l 669 440 l 880 440 q 1077 379 1006 440 q 1147 221 1147 318 q 1077 62 1147 123 q 880 0 1006 0 l 588 0 l 588 374 l 193 374 l 193 0 l 111 0 l 111 734 l 193 734 l 193 442 m 669 372 l 669 68 l 880 68 q 1020 113 973 68 q 1066 222 1066 157 q 1020 328 1066 285 q 880 372 973 372 l 669 372 z "},"ћ":{"ha":774,"x_min":-11,"x_max":669,"o":"m 404 846 l 189 846 l 189 608 q 286 711 225 674 q 429 747 347 747 q 607 675 545 747 q 669 452 669 604 l 669 0 l 587 0 l 587 454 q 540 625 587 573 q 410 677 493 677 q 271 633 327 677 q 189 517 215 589 l 189 0 l 107 0 l 107 846 l -11 846 l -11 915 l 107 915 l 107 1058 l 189 1058 l 189 915 l 404 915 l 404 846 z "},"џ":{"ha":781,"x_min":111,"x_max":669,"o":"m 193 734 l 193 68 l 588 68 l 588 734 l 669 734 l 669 0 l 433 0 l 433 -239 l 352 -239 l 352 0 l 111 0 l 111 734 l 193 734 z "},"Ѡ":{"ha":1233,"x_min":117,"x_max":1113,"o":"m 1113 987 l 1113 279 q 1039 61 1113 136 q 844 -14 964 -14 q 704 22 764 -14 q 614 130 644 58 q 522 22 583 58 q 380 -14 460 -14 q 189 61 261 -14 q 117 279 117 136 l 117 987 l 198 987 l 198 279 q 248 113 198 171 q 380 54 298 54 q 519 113 466 54 q 573 279 573 171 l 573 987 l 656 987 l 656 279 q 708 113 656 171 q 844 54 760 54 q 980 113 928 54 q 1031 279 1031 171 l 1031 987 l 1113 987 z "},"ѡ":{"ha":1143,"x_min":106,"x_max":1022,"o":"m 1022 734 l 1022 259 q 953 56 1022 125 q 773 -14 884 -14 q 646 18 701 -14 q 564 114 591 50 q 478 18 534 50 q 350 -14 422 -14 q 173 56 240 -14 q 106 259 106 125 l 106 734 l 187 734 l 187 259 q 232 107 187 161 q 350 54 277 54 q 475 107 427 54 q 524 259 524 161 l 524 734 l 605 734 l 605 259 q 651 107 605 161 q 773 54 698 54 q 894 107 848 54 q 941 259 941 161 l 941 734 l 1022 734 z "},"ѣ":{"ha":743,"x_min":-20,"x_max":673,"o":"m 416 734 l 195 734 l 195 479 l 405 479 q 603 413 532 479 q 673 241 673 347 q 603 67 673 134 q 405 0 532 0 l 114 0 l 114 734 l -20 734 l -20 802 l 114 802 l 114 1059 l 195 1059 l 195 802 l 416 802 l 416 734 m 195 410 l 195 68 l 405 68 q 546 117 499 68 q 592 239 592 166 q 545 360 592 310 q 405 410 498 410 l 195 410 z "},"Ѥ":{"ha":1241,"x_min":146,"x_max":1128,"o":"m 228 551 l 406 551 l 406 574 q 507 883 406 763 q 773 1002 608 1002 q 1023 919 930 1002 q 1128 684 1115 836 l 1126 680 l 1050 680 q 966 868 1034 803 q 773 933 898 933 q 565 833 644 933 q 487 576 487 732 l 487 551 l 846 551 l 846 482 l 487 482 l 487 414 q 565 155 487 255 q 773 55 644 55 q 966 119 898 55 q 1050 309 1035 182 l 1126 309 l 1128 305 q 1022 72 1115 157 q 773 -14 929 -14 q 507 105 608 -14 q 406 414 406 224 l 406 482 l 228 482 l 228 0 l 146 0 l 146 987 l 228 987 l 228 551 z "},"ѥ":{"ha":1033,"x_min":113,"x_max":958,"o":"m 194 408 l 364 408 q 452 652 371 557 q 676 747 534 747 q 877 676 797 747 q 955 489 958 605 l 954 485 l 881 485 q 822 626 881 573 q 676 678 762 678 q 508 602 564 678 q 449 411 452 526 l 450 408 l 764 408 l 764 339 l 450 339 l 448 336 q 504 134 448 214 q 677 54 561 54 q 819 100 758 54 q 881 229 881 146 l 953 229 l 954 224 q 873 54 958 123 q 677 -14 788 -14 q 449 84 530 -14 q 363 339 367 182 l 194 339 l 194 0 l 113 0 l 113 734 l 194 734 l 194 408 z "},"Ѧ":{"ha":833,"x_min":26,"x_max":825,"o":"m 626 322 l 462 322 l 462 0 l 381 0 l 381 322 l 227 322 l 110 0 l 26 0 l 389 987 l 465 987 l 825 0 l 741 0 l 626 322 m 252 394 l 600 394 l 429 871 l 425 871 l 252 394 z "},"ѧ":{"ha":732,"x_min":17,"x_max":702,"o":"m 518 235 l 402 235 l 402 0 l 321 0 l 321 235 l 200 235 l 101 0 l 17 0 l 323 734 l 395 734 l 702 0 l 618 0 l 518 235 m 229 304 l 488 304 l 385 549 l 361 630 l 357 630 l 332 549 l 229 304 z "},"Ѩ":{"ha":1219,"x_min":159,"x_max":1184,"o":"m 240 394 l 529 394 l 747 987 l 824 987 l 1184 0 l 1100 0 l 985 322 l 821 322 l 821 0 l 740 0 l 740 322 l 585 322 l 469 0 l 385 0 l 503 322 l 240 322 l 240 0 l 159 0 l 159 987 l 240 987 l 240 394 m 611 394 l 959 394 l 788 871 l 784 871 l 611 394 z "},"ѩ":{"ha":1046,"x_min":136,"x_max":1005,"o":"m 218 304 l 447 304 l 627 734 l 698 734 l 1005 0 l 921 0 l 821 235 l 705 235 l 705 0 l 624 0 l 624 235 l 503 235 l 404 0 l 320 0 l 418 235 l 218 235 l 218 0 l 136 0 l 136 734 l 218 734 l 218 304 m 532 304 l 791 304 l 688 549 l 664 630 l 660 630 l 635 549 l 532 304 z "},"Ѫ":{"ha":1132,"x_min":107,"x_max":1024,"o":"m 107 0 l 107 258 q 184 465 107 400 q 408 529 261 529 l 477 529 l 184 987 l 951 987 l 658 529 l 723 529 q 947 465 870 529 q 1024 258 1024 401 l 1024 0 l 943 0 l 943 258 q 890 415 943 370 q 723 460 838 460 l 614 460 l 607 449 l 607 0 l 526 0 l 526 452 l 521 460 l 408 460 q 241 414 293 460 q 189 258 189 369 l 189 0 l 107 0 m 561 529 l 574 529 l 814 918 l 321 918 l 561 529 z "},"ѫ":{"ha":981,"x_min":107,"x_max":873,"o":"m 107 0 l 107 132 q 181 339 107 275 q 397 403 255 403 l 401 403 l 180 734 l 806 734 l 585 403 q 800 338 726 402 q 873 132 873 274 l 873 0 l 792 0 l 792 132 q 743 289 792 243 q 585 334 693 334 l 539 334 l 532 323 l 532 0 l 452 0 l 452 327 l 447 334 l 397 334 q 238 289 287 334 q 189 132 189 243 l 189 0 l 107 0 m 486 403 l 500 403 l 669 664 l 317 664 l 486 403 z "},"Ѭ":{"ha":1501,"x_min":146,"x_max":1393,"o":"m 227 529 l 763 529 l 777 529 l 846 529 l 553 987 l 1320 987 l 1027 529 l 1092 529 q 1316 465 1239 529 q 1393 258 1393 401 l 1393 0 l 1312 0 l 1312 258 q 1259 415 1312 370 q 1092 460 1207 460 l 983 460 l 976 449 l 976 0 l 895 0 l 895 452 l 890 460 l 766 460 q 608 412 657 457 q 558 258 558 366 l 558 0 l 476 0 l 476 258 q 494 376 476 326 q 547 460 512 427 l 227 460 l 227 0 l 146 0 l 146 987 l 227 987 l 227 529 m 930 529 l 943 529 l 1183 918 l 690 918 l 930 529 z "},"ѭ":{"ha":1288,"x_min":114,"x_max":1179,"o":"m 891 403 q 1105 338 1031 402 q 1179 132 1179 274 l 1179 0 l 1098 0 l 1098 132 q 1048 289 1098 243 q 890 334 999 334 l 845 334 l 838 323 l 838 0 l 758 0 l 758 327 l 753 334 l 692 334 q 542 286 588 331 q 495 132 495 241 l 495 0 l 413 0 l 413 132 q 430 251 413 201 q 481 334 447 300 l 195 334 l 195 0 l 114 0 l 114 734 l 195 734 l 195 403 l 689 403 l 703 403 l 707 403 l 486 734 l 1112 734 l 891 403 m 792 403 l 806 403 l 975 664 l 623 664 l 792 403 z "},"Ѯ":{"ha":715,"x_min":79,"x_max":661,"o":"m 323 987 q 557 919 469 987 q 645 728 645 850 q 597 594 645 653 q 465 507 550 536 q 611 421 562 481 q 661 269 661 360 q 564 67 661 140 q 319 -6 467 -6 l 273 -6 q 184 -28 212 -6 q 157 -93 157 -50 q 193 -170 157 -137 q 273 -218 230 -203 l 242 -277 q 130 -204 180 -255 q 79 -90 79 -154 q 129 23 79 -17 q 275 62 178 62 l 319 62 q 508 118 437 62 q 579 266 579 173 q 510 420 579 370 q 308 471 441 471 l 218 471 l 218 541 l 308 541 q 501 590 439 541 q 564 730 564 640 q 503 866 564 814 q 323 918 442 918 l 105 918 l 105 987 l 323 987 m 386 1164 l 498 1278 l 576 1278 l 576 1267 l 418 1114 l 353 1114 l 195 1267 l 195 1278 l 273 1278 l 386 1164 z "},"ѯ":{"ha":673,"x_min":64,"x_max":594,"o":"m 277 408 q 444 443 390 408 q 498 541 498 477 q 446 630 498 595 q 292 664 394 664 l 94 664 l 94 734 l 292 734 q 500 682 422 734 q 579 538 579 630 q 542 441 579 485 q 437 374 504 398 q 554 311 514 354 q 594 206 594 269 q 507 51 594 109 q 288 -6 420 -6 l 258 -6 q 169 -28 196 -6 q 142 -93 142 -50 q 178 -170 142 -137 q 258 -218 215 -203 l 227 -277 q 114 -204 165 -255 q 64 -90 64 -154 q 114 23 64 -17 q 260 62 163 62 l 288 62 q 452 101 391 62 q 513 203 513 139 q 453 305 513 273 q 277 338 394 338 l 188 338 l 188 408 l 277 408 m 304 941 l 416 1055 l 494 1055 l 494 1044 l 336 891 l 271 891 l 113 1044 l 113 1055 l 191 1055 l 304 941 z "},"Ѳ":{"ha":935,"x_min":84,"x_max":850,"o":"m 850 413 q 746 104 850 222 q 465 -14 641 -14 q 188 104 291 -14 q 84 413 84 222 l 84 574 q 187 883 84 764 q 464 1002 290 1002 q 745 883 640 1002 q 850 574 850 764 l 850 413 m 165 525 l 770 525 l 770 575 q 689 833 770 735 q 464 930 608 930 q 244 833 323 930 q 165 575 165 735 l 165 525 m 770 456 l 165 456 l 165 413 q 244 154 165 252 q 465 56 323 56 q 689 154 609 56 q 770 413 770 251 l 770 456 z "},"ѳ":{"ha":785,"x_min":62,"x_max":711,"o":"m 62 378 q 151 644 62 540 q 386 747 239 747 q 622 644 533 747 q 711 378 711 540 l 711 355 q 622 89 711 193 q 387 -14 534 -14 q 151 89 239 -14 q 62 355 62 193 l 62 378 m 387 54 q 559 134 495 54 q 626 330 623 213 l 625 334 l 149 334 l 147 330 q 213 133 149 212 q 387 54 277 54 m 386 678 q 214 599 277 678 q 147 406 151 520 l 149 403 l 625 403 l 626 406 q 557 599 621 520 q 386 678 494 678 z "},"Ѵ":{"ha":855,"x_min":20,"x_max":835,"o":"m 368 173 l 388 104 l 392 104 l 412 173 l 619 819 q 696 959 649 918 q 816 1001 743 1001 l 835 1000 l 834 929 l 827 929 q 750 904 783 929 q 694 803 718 879 l 428 0 l 351 0 l 20 987 l 108 987 l 368 173 z "},"ѵ":{"ha":684,"x_min":30,"x_max":718,"o":"m 294 184 l 318 98 l 322 98 l 348 184 l 474 586 q 545 709 503 671 q 646 747 587 747 q 685 742 667 747 q 718 728 703 737 l 702 665 q 684 672 695 669 q 659 675 673 675 q 598 654 626 675 q 551 572 571 632 l 353 0 l 288 0 l 30 734 l 114 734 l 294 184 z "},"Ѻ":{"ha":935,"x_min":84,"x_max":850,"o":"m 850 413 q 745 104 850 222 q 508 -12 654 1 l 508 -97 l 427 -97 l 427 -13 q 187 104 279 -1 q 84 413 84 222 l 84 574 q 187 883 84 764 q 427 1000 279 989 l 427 1081 l 508 1081 l 508 1000 q 745 883 654 986 q 850 574 850 764 l 850 413 m 770 575 q 688 833 770 735 q 508 928 621 915 l 508 846 l 427 846 l 427 928 q 244 833 312 917 q 165 575 165 735 l 165 413 q 244 154 165 252 q 427 58 313 69 l 427 141 l 508 141 l 508 58 q 689 153 621 71 q 770 413 770 251 l 770 575 z "},"ѻ":{"ha":774,"x_min":62,"x_max":711,"o":"m 428 -90 l 347 -90 l 347 -12 q 151 89 227 0 q 62 355 62 193 l 62 378 q 151 644 62 540 q 347 745 227 733 l 347 822 l 428 822 l 428 745 q 622 644 546 732 q 711 378 711 540 l 711 355 q 622 89 711 193 q 428 -12 546 1 l 428 -90 m 143 355 q 208 141 143 228 q 347 57 260 70 l 347 138 l 428 138 l 428 57 q 565 141 513 71 q 630 355 630 228 l 630 378 q 565 591 630 503 q 428 675 512 661 l 428 593 l 347 593 l 347 675 q 208 591 260 663 q 143 378 143 503 l 143 355 z "},"Ѽ":{"ha":1226,"x_min":117,"x_max":1111,"o":"m 848 980 l 852 981 q 1039 907 966 985 q 1111 681 1111 829 l 1111 291 q 1038 64 1111 142 q 848 -14 966 -14 q 705 22 766 -14 q 614 128 644 58 q 521 22 582 58 q 380 -14 460 -14 q 189 64 261 -14 q 117 291 117 142 l 117 681 q 189 907 117 829 q 376 981 260 985 l 380 980 l 380 918 q 248 856 298 918 q 198 681 198 793 l 198 291 q 248 116 198 178 q 380 54 298 54 q 519 113 466 54 q 573 279 573 171 l 573 600 l 654 600 l 654 279 q 708 113 654 171 q 848 54 761 54 q 979 116 928 54 q 1030 291 1030 178 l 1030 681 q 979 856 1030 793 q 848 918 928 918 l 848 980 m 924 1141 l 924 1084 l 903 1084 q 725 1137 817 1084 q 595 1190 634 1190 q 519 1162 546 1190 q 493 1090 493 1135 l 493 1078 l 431 1078 l 431 1099 q 474 1210 431 1168 q 592 1251 517 1251 q 739 1196 646 1251 q 905 1141 831 1141 l 924 1141 m 581 902 l 543 933 l 585 1015 l 585 1110 l 678 1110 l 678 1020 l 581 902 z "},"ѽ":{"ha":1109,"x_min":96,"x_max":1011,"o":"m 768 736 l 772 737 q 944 668 878 741 q 1011 456 1011 595 l 1011 271 q 944 59 1011 132 q 768 -14 877 -14 q 638 18 694 -14 q 553 115 582 50 q 468 18 524 50 q 339 -14 412 -14 q 162 59 229 -14 q 96 271 96 132 l 96 456 q 162 668 96 595 q 335 737 229 741 l 339 736 l 339 673 q 221 617 266 673 q 176 456 176 560 l 176 271 q 221 111 176 167 q 339 54 266 54 q 465 107 416 54 q 513 259 513 161 l 513 425 l 593 425 l 593 259 q 642 107 593 161 q 768 54 690 54 q 885 111 840 54 q 930 271 930 167 l 930 456 q 885 617 930 560 q 768 673 840 673 l 768 736 m 869 919 l 869 861 l 849 861 q 671 915 762 861 q 541 968 580 968 q 465 940 491 968 q 439 869 439 913 l 439 857 l 377 857 l 377 877 q 420 987 377 946 q 538 1029 463 1029 q 684 974 591 1029 q 851 919 776 919 l 869 919 m 526 680 l 488 711 l 530 793 l 530 888 l 624 888 l 624 798 l 526 680 z "},"Ѿ":{"ha":1233,"x_min":117,"x_max":1113,"o":"m 353 1151 l 353 1206 l 865 1206 l 867 1151 l 642 1151 l 642 1074 l 566 1074 l 566 1151 l 353 1151 m 1113 987 l 1113 279 q 1039 61 1113 136 q 844 -14 964 -14 q 704 22 764 -14 q 614 130 644 58 q 522 22 583 58 q 380 -14 460 -14 q 189 61 261 -14 q 117 279 117 136 l 117 987 l 198 987 l 198 279 q 248 113 198 171 q 380 54 298 54 q 519 113 466 54 q 573 279 573 171 l 573 987 l 656 987 l 656 279 q 708 113 656 171 q 844 54 760 54 q 980 113 928 54 q 1031 279 1031 171 l 1031 987 l 1113 987 z "},"ѿ":{"ha":1144,"x_min":106,"x_max":1022,"o":"m 310 932 l 311 987 l 823 987 l 825 932 l 599 932 l 599 844 l 524 844 l 524 932 l 310 932 m 1022 734 l 1022 259 q 953 56 1022 125 q 773 -14 884 -14 q 646 18 701 -14 q 564 114 591 50 q 478 18 534 50 q 350 -14 422 -14 q 173 56 240 -14 q 106 259 106 125 l 106 734 l 187 734 l 187 259 q 232 107 187 161 q 350 54 277 54 q 475 107 427 54 q 524 259 524 161 l 524 734 l 605 734 l 605 259 q 651 107 605 161 q 773 54 698 54 q 894 107 848 54 q 941 259 941 161 l 941 734 l 1022 734 z "},"Ҁ":{"ha":879,"x_min":90,"x_max":810,"o":"m 509 -248 l 428 -248 l 428 -13 q 182 115 275 -2 q 90 413 90 233 l 90 574 q 191 882 90 762 q 456 1002 292 1002 q 714 917 617 1002 q 808 684 810 832 l 806 680 l 730 680 q 657 866 730 799 q 456 932 585 932 q 249 832 327 932 q 170 575 170 732 l 170 413 q 249 154 170 254 q 456 54 327 54 l 509 54 l 509 -248 z "},"ҁ":{"ha":726,"x_min":75,"x_max":663,"o":"m 439 -248 l 358 -248 l 358 -12 q 151 101 227 -1 q 75 353 75 202 l 75 381 q 160 643 75 539 q 389 747 244 747 q 584 676 506 747 q 660 489 663 605 l 659 485 l 586 485 q 529 626 586 573 q 389 678 472 678 q 216 592 276 678 q 157 381 157 506 l 157 353 q 216 140 157 225 q 389 54 275 54 l 439 54 l 439 -248 z "},"҂":{"ha":847,"x_min":92,"x_max":777,"o":"m 391 293 l 587 176 l 551 112 l 353 227 l 227 0 l 136 0 l 288 270 l 92 386 l 128 450 l 327 334 l 476 601 l 279 717 l 317 782 l 514 666 l 652 910 l 741 910 l 578 624 l 777 508 l 737 444 l 542 559 l 391 293 z "},"҃":{"ha":0,"x_min":-584,"x_max":-163,"o":"m -508 908 l -508 825 l -584 825 l -584 962 l -238 962 l -238 1035 l -163 1035 l -163 908 l -508 908 z "},"҄":{"ha":0,"x_min":-608,"x_max":-115,"o":"m -589 946 q -422 1001 -515 946 q -276 1056 -330 1056 q -158 1015 -201 1056 q -115 904 -115 973 l -115 884 l -178 884 l -178 896 q -204 967 -178 940 q -279 995 -230 995 q -409 942 -318 995 q -587 888 -500 888 l -608 888 l -608 946 l -589 946 z "},"҅":{"ha":0,"x_min":-442,"x_max":-307,"o":"m -442 1017 l -442 1107 l -349 1107 l -349 1013 l -307 930 l -345 899 l -442 1017 z "},"҆":{"ha":0,"x_min":-408,"x_max":-272,"o":"m -369 899 l -408 930 l -366 1013 l -366 1107 l -272 1107 l -272 1017 l -369 899 z "},"҈":{"ha":0,"x_min":-1034,"x_max":284,"o":"m -522 859 l -523 863 q -488 952 -526 917 q -385 987 -450 987 q -282 952 -320 987 q -246 863 -243 917 l -248 859 l -318 859 q -335 908 -318 888 q -385 928 -351 928 q -435 908 -419 928 q -450 859 -450 889 l -522 859 m -121 671 l -123 675 q -88 764 -126 728 q 16 799 -50 799 q 119 764 81 799 q 155 675 158 729 l 154 671 l 83 671 q 66 721 83 701 q 16 740 50 740 q -34 720 -18 740 q -50 671 -50 701 l -121 671 m 5 330 l 4 334 q 39 422 1 387 q 142 458 77 458 q 246 423 208 458 q 281 334 284 388 l 280 330 l 210 330 q 193 379 210 360 q 142 399 177 399 q 93 379 109 399 q 77 330 77 359 l 5 330 m -128 -22 l -130 -18 q -95 71 -133 35 q 9 106 -56 106 q 112 71 74 106 q 148 -18 151 36 l 146 -22 l 76 -22 q 60 27 76 8 q 9 47 43 47 q -41 27 -25 47 q -57 -22 -57 7 l -128 -22 m -518 -214 l -519 -210 q -484 -121 -522 -156 q -382 -87 -446 -87 q -278 -121 -317 -87 q -243 -210 -240 -156 l -244 -214 l -315 -214 q -331 -165 -315 -184 q -382 -146 -348 -146 q -431 -165 -416 -146 q -447 -214 -447 -184 l -518 -214 m -910 671 l -911 675 q -876 764 -914 729 q -772 799 -838 799 q -668 764 -707 799 q -633 675 -630 729 l -635 671 l -705 671 q -722 720 -705 701 q -772 740 -738 740 q -822 720 -806 740 q -838 671 -838 701 l -910 671 m -1029 330 l -1031 334 q -995 422 -1034 387 q -892 458 -957 458 q -788 423 -827 458 q -753 334 -750 388 l -755 330 l -825 330 q -841 379 -825 360 q -892 399 -857 399 q -942 379 -926 399 q -958 330 -958 359 l -1029 330 m -917 -22 l -918 -18 q -883 71 -921 35 q -780 106 -844 106 q -675 71 -714 106 q -640 -18 -637 36 l -642 -22 l -713 -22 q -729 27 -713 8 q -780 47 -745 47 q -829 27 -813 47 q -845 -22 -845 7 l -917 -22 z "},"҉":{"ha":0,"x_min":-1014,"x_max":244,"o":"m -318 -41 l -311 -50 l -393 -280 l -458 -280 l -411 -41 l -318 -41 m -450 764 l -458 773 l -376 1002 l -311 1002 l -358 764 l -450 764 m 9 428 l 18 436 l 244 352 l 244 286 l 9 334 l 9 428 m -779 294 l -788 286 l -1014 370 l -1014 436 l -779 388 l -779 294 m -153 680 l -152 690 l 66 794 l 112 748 q -87 612 87 732 l -153 680 m -616 14 l -618 3 l -835 -101 l -882 -54 l -682 81 l -616 14 m -711 583 l -723 585 l -823 806 l -779 852 l -645 650 l -711 583 m -60 109 l -48 108 l 53 -113 l 8 -161 l -125 42 l -60 109 z "},"ҍ":{"ha":743,"x_min":-20,"x_max":673,"o":"m 416 918 l 195 918 l 195 479 l 405 479 q 603 413 532 479 q 673 241 673 347 q 603 67 673 134 q 405 0 532 0 l 114 0 l 114 918 l -20 918 l -20 987 l 114 987 l 114 1109 l 195 1109 l 195 987 l 416 987 l 416 918 m 195 410 l 195 68 l 405 68 q 546 117 499 68 q 592 239 592 166 q 545 360 592 310 q 405 410 498 410 l 195 410 z "},"Ҏ":{"ha":878,"x_min":127,"x_max":792,"o":"m 208 410 l 208 0 l 127 0 l 127 987 l 467 987 q 707 908 622 987 q 792 699 792 829 q 707 489 792 568 q 697 480 702 484 l 788 378 l 737 332 l 639 444 q 467 410 568 410 l 208 410 m 208 479 l 467 479 q 588 500 538 479 l 511 589 l 562 635 l 646 538 l 650 541 q 711 698 711 604 q 650 856 711 793 q 467 918 589 918 l 208 918 l 208 479 z "},"ҏ":{"ha":784,"x_min":106,"x_max":698,"o":"m 698 347 q 623 83 698 182 q 614 72 618 77 l 686 -17 l 633 -62 l 562 26 q 418 -14 502 -14 q 282 15 340 -14 q 188 98 224 44 l 188 -282 l 106 -282 l 106 734 l 175 734 l 185 620 q 280 714 222 681 q 416 747 338 747 q 623 642 549 747 q 698 361 698 536 l 698 347 m 616 361 q 561 589 616 500 q 398 677 505 677 q 265 638 316 677 q 188 536 214 599 l 188 184 q 268 89 216 123 q 399 54 321 54 q 513 86 467 54 l 437 182 l 489 227 l 562 136 q 616 347 616 216 l 616 361 z "},"Ґ":{"ha":762,"x_min":121,"x_max":717,"o":"m 717 918 l 202 918 l 202 0 l 121 0 l 121 987 l 636 987 l 636 1227 l 717 1227 l 717 918 z "},"ґ":{"ha":608,"x_min":108,"x_max":562,"o":"m 562 664 l 189 664 l 189 0 l 108 0 l 108 734 l 481 734 l 481 968 l 562 968 l 562 664 z "},"Ҕ":{"ha":802,"x_min":127,"x_max":744,"o":"m 721 918 l 208 918 l 208 561 l 351 561 q 639 464 534 561 q 744 174 744 366 q 665 -85 744 20 q 438 -188 585 -191 l 434 -186 l 433 -126 q 604 -41 546 -126 q 663 174 663 44 q 579 410 662 331 q 351 489 497 489 l 208 489 l 208 0 l 127 0 l 127 987 l 721 987 l 721 918 z "},"ҕ":{"ha":691,"x_min":108,"x_max":637,"o":"m 560 664 l 189 664 l 189 424 l 286 424 q 540 345 444 424 q 636 112 636 266 q 575 -67 637 22 q 382 -182 513 -157 l 361 -119 q 509 -33 464 -96 q 555 112 554 31 q 482 291 557 231 q 286 352 408 352 l 189 352 l 189 0 l 108 0 l 108 734 l 560 734 l 560 664 z "},"Ҝ":{"ha":852,"x_min":123,"x_max":836,"o":"m 795 987 l 500 510 l 836 0 l 733 0 l 433 469 l 371 469 l 371 275 l 302 275 l 302 469 l 203 469 l 203 0 l 123 0 l 123 987 l 203 987 l 203 537 l 302 537 l 302 728 l 371 728 l 371 537 l 438 537 l 697 987 l 795 987 z "},"ҝ":{"ha":750,"x_min":110,"x_max":737,"o":"m 703 734 l 469 380 l 737 0 l 630 0 l 404 336 l 353 336 l 353 175 l 284 175 l 284 336 l 192 336 l 192 0 l 110 0 l 110 734 l 192 734 l 192 408 l 284 408 l 284 572 l 353 572 l 353 408 l 405 408 l 601 734 l 703 734 z "},"Ҡ":{"ha":1122,"x_min":55,"x_max":1114,"o":"m 604 465 l 468 465 l 468 0 l 387 0 l 387 918 l 55 918 l 55 987 l 468 987 l 468 533 l 603 533 l 991 987 l 1083 987 l 1084 984 l 676 502 l 1114 3 l 1112 0 l 1016 0 l 604 465 z "},"ҡ":{"ha":916,"x_min":35,"x_max":901,"o":"m 500 336 l 388 336 l 388 0 l 306 0 l 306 665 l 35 665 l 35 734 l 388 734 l 388 408 l 499 408 l 768 734 l 866 734 l 867 730 l 570 378 l 901 3 l 899 0 l 797 0 l 500 336 z "},"Ҥ":{"ha":1400,"x_min":127,"x_max":1345,"o":"m 208 524 l 770 524 l 770 987 l 1345 987 l 1345 918 l 850 918 l 850 0 l 770 0 l 770 454 l 208 454 l 208 0 l 127 0 l 127 987 l 208 987 l 208 524 z "},"ҥ":{"ha":1006,"x_min":108,"x_max":956,"o":"m 189 405 l 585 405 l 585 734 l 956 734 l 956 664 l 666 664 l 666 0 l 585 0 l 585 336 l 189 336 l 189 0 l 108 0 l 108 734 l 189 734 l 189 405 z "},"Ҧ":{"ha":1416,"x_min":121,"x_max":1352,"o":"m 845 566 l 960 566 q 1247 469 1142 566 q 1352 179 1352 372 q 1273 -80 1352 25 q 1046 -182 1194 -185 l 1042 -181 l 1042 -121 q 1213 -36 1154 -121 q 1271 179 1271 50 q 1188 415 1270 336 q 960 494 1105 494 l 845 494 l 845 0 l 764 0 l 764 918 l 202 918 l 202 0 l 121 0 l 121 987 l 845 987 l 845 566 z "},"ҧ":{"ha":1183,"x_min":108,"x_max":1135,"o":"m 666 424 l 779 424 q 1037 345 939 424 q 1135 112 1135 266 q 1073 -67 1135 22 q 880 -182 1011 -157 l 859 -119 q 1007 -33 962 -96 q 1053 112 1052 31 q 979 291 1055 231 q 779 352 903 352 l 666 352 l 666 0 l 585 0 l 585 664 l 189 664 l 189 0 l 108 0 l 108 734 l 666 734 l 666 424 z "},"Ҩ":{"ha":1032,"x_min":84,"x_max":969,"o":"m 969 -18 q 833 -6 898 -18 q 713 30 769 6 q 612 -3 666 8 q 500 -14 559 -14 q 197 120 310 -14 q 84 459 84 254 l 84 599 q 169 886 84 771 q 388 997 254 1000 l 392 996 l 393 930 q 228 834 290 930 q 165 600 165 739 l 165 459 q 257 170 165 284 q 500 56 349 56 q 567 61 535 56 q 629 75 600 65 q 476 238 530 138 q 422 458 422 337 l 422 632 q 496 893 422 791 q 690 996 569 996 q 885 894 810 996 q 960 632 960 792 l 960 451 q 916 235 960 332 q 790 77 871 138 q 874 59 829 64 q 969 53 919 53 l 969 -18 m 504 457 q 556 251 504 342 q 707 110 608 161 q 835 250 790 160 q 880 451 880 339 l 880 633 q 828 843 880 762 q 690 925 777 925 q 554 842 604 925 q 504 633 504 759 l 504 457 z "},"ҩ":{"ha":825,"x_min":80,"x_max":781,"o":"m 781 -8 q 674 1 725 -8 q 578 29 623 11 q 497 -3 541 7 q 407 -14 454 -14 q 171 96 262 -14 q 80 373 80 206 l 80 425 q 144 655 80 564 q 308 742 208 745 l 312 741 l 312 676 q 205 605 248 676 q 161 427 161 533 l 161 373 q 228 146 161 235 q 407 56 294 56 q 455 60 431 56 q 499 72 478 64 q 384 203 425 124 q 344 379 344 282 l 344 451 q 400 665 344 582 q 549 747 456 747 q 697 659 640 747 q 755 437 755 570 l 755 366 q 726 207 755 280 q 645 81 697 133 q 710 67 675 72 q 781 62 744 62 l 781 -8 m 673 366 l 673 439 q 639 608 673 539 q 549 676 604 676 q 457 614 490 676 q 425 452 425 551 l 425 378 q 462 222 425 290 q 568 117 500 155 l 572 117 q 647 221 620 156 q 673 366 673 287 z "},"Ҵ":{"ha":1206,"x_min":24,"x_max":1115,"o":"m 296 918 l 24 918 l 24 987 l 667 987 l 667 918 l 376 918 l 376 68 l 937 68 l 937 70 l 939 70 l 939 987 l 1019 987 l 1019 70 l 1115 70 l 1109 -238 l 1035 -238 l 1035 0 l 296 0 l 296 918 z "},"ҵ":{"ha":908,"x_min":20,"x_max":856,"o":"m 223 665 l 20 665 l 20 734 l 500 734 l 500 665 l 304 665 l 304 68 l 700 68 l 700 734 l 781 734 l 781 68 l 856 68 l 850 -218 l 775 -218 l 775 0 l 223 0 l 223 665 z "},"Ҹ":{"ha":921,"x_min":117,"x_max":797,"o":"m 797 987 l 797 0 l 715 0 l 715 450 q 583 420 647 431 q 509 412 547 415 l 509 245 l 439 245 l 439 411 q 199 482 281 412 q 117 714 117 553 l 117 987 l 199 987 l 199 714 q 259 534 199 588 q 439 480 318 481 l 439 713 l 509 713 l 509 482 q 581 490 545 484 q 715 519 648 500 l 715 987 l 797 987 z "},"ҹ":{"ha":764,"x_min":103,"x_max":656,"o":"m 656 0 l 575 0 l 575 309 q 479 281 528 292 q 437 275 457 277 l 437 160 l 367 160 l 367 272 q 172 335 237 275 q 103 548 103 399 l 103 734 l 184 734 l 184 548 q 231 387 184 433 q 367 342 274 345 l 367 541 l 437 541 l 437 345 q 482 352 459 347 q 575 377 532 361 l 575 734 l 656 734 l 656 0 z "},"Һ":{"ha":921,"x_min":114,"x_max":793,"o":"m 114 0 l 114 987 l 195 987 l 195 537 q 328 566 263 556 q 466 576 392 576 q 711 505 628 576 q 793 273 793 433 l 793 0 l 712 0 l 712 273 q 651 453 712 399 q 466 507 591 507 q 330 497 397 507 q 195 468 263 487 l 195 0 l 114 0 z "},"Ҽ":{"ha":1048,"x_min":28,"x_max":966,"o":"m 641 -16 q 343 97 450 -16 q 237 393 237 209 l 237 498 q 81 569 135 509 q 31 727 28 629 l 32 730 l 96 730 q 131 616 96 659 q 233 568 165 574 l 237 569 l 237 584 q 341 883 237 765 q 601 1000 445 1000 q 869 884 772 1000 q 966 569 966 768 l 966 497 l 318 497 l 318 393 q 398 148 318 242 q 641 53 479 53 q 789 75 724 53 q 905 135 854 98 l 932 75 q 817 10 886 36 q 641 -16 747 -16 m 318 560 l 886 560 l 886 589 q 813 835 886 739 q 601 930 741 930 q 394 831 471 930 q 318 584 318 732 l 318 560 z "},"ҽ":{"ha":819,"x_min":-5,"x_max":747,"o":"m 468 -14 q 239 87 330 -14 q 148 345 148 189 l 148 379 q 34 446 73 394 q -5 583 -5 498 l 64 583 q 86 493 64 528 q 152 444 108 457 q 256 663 170 578 q 458 747 342 747 q 670 662 593 747 q 747 434 747 576 l 747 365 l 229 365 l 229 345 q 295 138 229 221 q 468 54 361 54 q 597 75 544 54 q 689 136 651 96 l 724 80 q 619 11 682 37 q 468 -14 555 -14 m 458 678 q 307 609 368 678 q 235 437 245 541 l 237 433 l 667 433 l 667 454 q 610 614 667 549 q 458 678 554 678 z "},"Ӄ":{"ha":852,"x_min":123,"x_max":808,"o":"m 420 543 q 704 444 600 541 q 808 155 808 347 q 729 -104 808 1 q 503 -206 650 -209 l 499 -205 l 498 -144 q 669 -59 611 -144 q 728 155 728 26 q 645 392 727 313 q 416 471 562 471 l 203 471 l 203 0 l 123 0 l 123 987 l 203 987 l 203 543 l 323 543 l 697 987 l 790 987 l 791 984 l 420 543 z "},"ӄ":{"ha":732,"x_min":110,"x_max":677,"o":"m 380 406 q 596 318 516 393 q 677 105 677 243 q 615 -71 677 17 q 423 -182 553 -158 l 401 -119 q 549 -35 504 -96 q 596 105 595 26 q 522 279 597 222 q 321 336 447 336 l 192 336 l 192 0 l 110 0 l 110 734 l 192 734 l 192 408 l 283 408 l 572 734 l 670 734 l 671 730 l 380 406 z "},"Ӈ":{"ha":979,"x_min":127,"x_max":851,"o":"m 208 987 l 208 524 l 770 524 l 770 987 l 851 987 l 851 -60 q 797 -235 851 -174 q 645 -296 742 -296 q 607 -293 625 -296 q 569 -283 589 -290 l 578 -216 q 609 -223 588 -220 q 645 -227 631 -227 q 737 -183 704 -227 q 770 -60 770 -140 l 770 454 l 208 454 l 208 0 l 127 0 l 127 987 l 208 987 z "},"ӈ":{"ha":773,"x_min":107,"x_max":665,"o":"m 189 734 l 189 405 l 584 405 l 584 734 l 665 734 l 665 -60 q 611 -235 665 -174 q 459 -296 556 -296 q 420 -293 438 -296 q 383 -283 403 -290 l 393 -216 q 423 -223 402 -220 q 459 -227 444 -227 q 551 -183 518 -227 q 584 -60 584 -140 l 584 336 l 189 336 l 189 0 l 107 0 l 107 734 l 189 734 z "},"Ә":{"ha":972,"x_min":85,"x_max":889,"o":"m 465 1002 q 777 879 665 1002 q 889 557 889 757 l 889 444 q 777 114 889 243 q 498 -14 665 -14 q 194 101 303 -14 q 85 416 85 216 l 85 496 l 808 496 l 808 557 q 723 828 808 724 q 465 932 637 932 q 309 910 377 932 q 187 850 240 887 l 161 911 q 281 975 209 949 q 465 1002 353 1002 m 498 54 q 721 161 637 54 q 805 429 804 269 l 803 433 l 166 433 l 166 397 q 250 150 166 245 q 498 54 334 54 z "},"ә":{"ha":734,"x_min":92,"x_max":692,"o":"m 372 748 q 601 646 509 748 q 692 389 692 545 l 692 351 q 601 90 692 194 q 382 -14 511 -14 q 170 72 247 -14 q 92 300 92 157 l 92 369 l 610 369 l 610 389 q 545 596 610 513 q 372 680 479 680 q 242 659 296 680 q 151 598 189 637 l 116 654 q 221 723 157 697 q 372 748 284 748 m 382 56 q 533 124 472 56 q 604 297 594 193 l 603 300 l 173 300 l 173 280 q 229 120 173 184 q 382 56 286 56 z "},"Ӡ":{"ha":800,"x_min":77,"x_max":702,"o":"m 591 915 l 590 918 l 98 918 l 98 987 l 688 987 l 689 924 l 387 567 q 621 489 541 566 q 702 268 702 412 q 615 61 702 136 q 389 -14 528 -14 q 170 59 262 -14 q 81 270 77 132 l 82 274 l 159 274 q 222 117 159 179 q 389 54 286 54 q 559 111 498 54 q 621 265 621 168 q 561 445 621 388 q 380 502 500 502 l 298 502 l 298 571 l 591 915 z "},"ӡ":{"ha":800,"x_min":77,"x_max":702,"o":"m 585 661 l 583 664 l 98 664 l 98 734 l 688 734 l 689 671 l 391 312 q 621 229 539 307 q 702 14 702 152 q 614 -192 702 -117 q 389 -268 527 -268 q 170 -194 262 -268 q 81 16 77 -121 l 82 20 l 159 20 q 222 -136 159 -74 q 389 -199 286 -199 q 559 -142 498 -199 q 621 11 621 -85 q 556 190 621 133 q 369 248 490 248 l 297 248 l 297 317 l 585 661 z "},"Ӻ":{"ha":790,"x_min":18,"x_max":744,"o":"m 744 918 l 231 918 l 231 0 l 150 0 l 150 987 l 744 987 l 744 918 m 433 511 l 18 511 l 18 581 l 433 581 l 433 511 m 300 92 l 300 -60 q 246 -235 300 -174 q 96 -296 192 -296 q 57 -293 75 -296 q 20 -283 39 -290 l 28 -214 q 60 -220 39 -217 q 96 -224 81 -224 q 187 -181 155 -224 q 220 -60 220 -139 l 220 92 l 300 92 z "},"ӻ":{"ha":571,"x_min":12,"x_max":590,"o":"m 590 664 l 219 664 l 219 0 l 138 0 l 138 734 l 590 734 l 590 664 m 436 382 l 21 382 l 21 452 l 436 452 l 436 382 m 292 92 l 292 -60 q 238 -235 292 -174 q 87 -296 184 -296 q 49 -293 67 -296 q 12 -283 31 -290 l 20 -214 q 52 -220 31 -217 q 87 -224 73 -224 q 179 -181 146 -224 q 212 -60 212 -139 l 212 92 l 292 92 z "},"Ԁ":{"ha":795,"x_min":52,"x_max":705,"o":"m 625 571 l 625 987 l 705 987 l 705 0 l 377 0 q 136 79 221 0 q 52 287 52 159 q 136 493 52 414 q 377 571 221 571 l 625 571 m 625 68 l 625 502 l 377 502 q 194 440 255 502 q 133 288 133 378 q 194 132 133 195 q 377 68 254 68 l 625 68 z "},"Ԃ":{"ha":1084,"x_min":52,"x_max":1047,"o":"m 377 0 q 136 79 221 0 q 52 287 52 159 q 136 493 52 414 q 377 571 221 571 l 625 571 l 625 987 l 705 987 l 705 67 l 789 68 q 917 122 872 68 q 965 272 962 176 q 955 387 966 327 q 924 505 944 448 l 1002 505 q 1035 380 1023 435 q 1046 272 1047 324 q 969 70 1043 140 q 789 0 896 0 l 377 0 m 625 68 l 625 502 l 377 502 q 194 440 255 502 q 133 288 133 378 q 194 132 133 195 q 377 68 254 68 l 625 68 z "},"ԃ":{"ha":1193,"x_min":75,"x_max":1094,"o":"m 75 361 q 150 642 75 536 q 357 747 224 747 q 486 717 431 747 q 578 631 541 687 l 578 1058 l 659 1058 l 659 234 q 694 101 659 147 q 794 54 730 54 q 952 136 897 56 q 1011 359 1008 217 q 1000 490 1012 422 q 968 631 989 558 l 1047 632 q 1082 483 1070 546 q 1093 359 1094 420 q 1007 81 1090 177 q 794 -14 924 -14 q 668 18 718 -16 q 595 123 617 51 q 499 21 559 57 q 355 -14 439 -14 q 150 84 224 -14 q 75 347 75 182 l 75 361 m 578 544 q 500 640 550 604 q 372 677 450 677 q 211 589 264 677 q 157 361 157 501 l 157 347 q 210 135 157 214 q 370 56 263 56 q 500 92 448 56 q 581 188 553 127 q 579 211 580 200 q 578 234 578 222 l 578 544 z "},"Ԅ":{"ha":1097,"x_min":35,"x_max":1002,"o":"m 496 258 q 447 404 496 350 q 303 458 397 458 l 174 458 l 174 528 l 288 528 q 471 578 410 528 q 531 730 531 629 q 469 869 531 819 q 278 918 408 918 l 35 918 l 35 987 l 278 987 q 526 921 440 987 q 612 729 612 855 q 565 580 612 643 q 432 490 518 517 q 544 406 510 465 q 578 260 578 347 l 578 206 q 612 96 577 138 q 707 54 648 54 q 861 142 804 56 q 920 359 917 229 q 908 491 920 422 q 875 632 897 559 l 955 632 q 990 482 978 544 q 1001 359 1002 420 q 916 87 998 189 q 707 -14 833 -14 q 555 37 609 -16 q 496 206 501 90 l 496 258 z "},"ԅ":{"ha":894,"x_min":31,"x_max":843,"o":"m 483 144 q 503 75 482 98 q 578 52 524 52 q 711 114 665 54 q 761 284 758 175 q 750 392 762 336 q 713 500 738 448 l 797 500 q 831 381 820 429 q 842 284 843 332 q 764 61 840 138 q 578 -16 689 -16 q 448 20 491 -18 q 401 145 405 58 l 401 200 q 358 291 401 259 q 233 323 315 323 l 90 323 l 89 391 l 229 391 q 362 427 315 391 q 408 522 408 463 q 357 626 408 585 q 213 667 305 667 l 35 667 l 31 734 l 213 734 q 417 677 344 734 q 490 524 490 621 q 457 426 490 468 q 361 361 424 384 q 454 301 426 342 q 483 201 483 260 l 483 144 z "},"Ԇ":{"ha":741,"x_min":66,"x_max":655,"o":"m 655 -12 l 583 -199 l 528 -199 l 574 -9 l 574 -1 l 549 -1 q 514 69 524 24 q 503 160 503 113 l 503 250 q 445 394 503 341 q 281 447 387 447 l 136 447 l 136 515 l 248 515 q 444 569 382 515 q 505 715 505 623 q 444 866 505 813 q 258 918 382 918 l 66 918 l 66 987 l 258 987 q 501 917 416 987 q 586 715 586 848 q 541 574 586 636 q 412 484 495 512 q 544 401 504 460 q 585 252 585 341 l 585 159 q 589 104 585 129 l 655 104 l 655 -12 z "},"ԇ":{"ha":696,"x_min":77,"x_max":618,"o":"m 618 -7 l 546 -194 l 490 -194 l 537 -5 l 537 0 l 502 0 q 482 50 486 16 q 478 117 478 83 l 478 182 q 434 281 478 245 q 308 317 389 317 l 135 317 l 134 386 l 286 386 q 433 420 387 386 q 479 523 479 455 q 433 628 479 591 q 286 665 387 665 l 77 665 l 78 734 l 286 734 q 489 680 418 734 q 560 524 560 625 q 528 420 560 464 q 430 355 495 377 q 529 292 498 336 q 559 183 559 248 l 559 117 l 559 109 l 618 109 l 618 -7 z "},"Ԉ":{"ha":1343,"x_min":45,"x_max":1269,"o":"m 834 987 l 834 234 q 869 101 833 147 q 969 54 905 54 q 1127 136 1072 56 q 1186 359 1183 217 q 1175 490 1186 422 q 1142 631 1163 558 l 1222 632 q 1257 483 1245 546 q 1267 359 1269 420 q 1181 81 1265 177 q 969 -14 1098 -14 q 813 44 868 -16 q 753 234 758 104 l 753 918 l 367 918 l 367 521 q 300 126 367 252 q 81 0 234 0 l 45 0 l 45 68 l 73 68 q 235 174 185 68 q 286 521 286 280 l 286 987 l 834 987 z "},"ԉ":{"ha":1118,"x_min":35,"x_max":1053,"o":"m 570 664 l 292 664 l 292 422 q 240 104 292 208 q 73 0 189 0 l 35 0 l 35 73 l 65 73 q 176 156 142 73 q 211 422 211 239 l 211 734 l 651 734 l 651 234 q 685 101 650 147 q 779 54 719 54 q 918 124 869 56 q 970 314 967 193 q 959 439 970 374 q 926 572 947 504 l 1005 573 q 1040 431 1028 489 q 1051 314 1053 372 q 972 70 1048 154 q 779 -14 897 -14 q 628 44 682 -16 q 570 234 574 104 l 570 664 z "},"Ԋ":{"ha":1353,"x_min":130,"x_max":1241,"o":"m 806 987 l 806 234 q 841 101 805 147 q 941 54 878 54 q 1100 136 1044 56 q 1158 359 1156 217 q 1147 490 1158 422 q 1114 631 1135 558 l 1194 632 q 1229 485 1217 548 q 1240 359 1241 421 q 1153 81 1236 177 q 941 -14 1070 -14 q 785 44 840 -16 q 725 234 729 104 l 725 454 l 211 454 l 211 0 l 130 0 l 130 987 l 211 987 l 211 523 l 725 523 l 725 987 l 806 987 z "},"ԋ":{"ha":1147,"x_min":102,"x_max":1059,"o":"m 576 333 l 183 333 l 183 0 l 102 0 l 102 734 l 183 734 l 183 401 l 576 401 l 576 734 l 657 734 l 657 234 q 691 101 656 147 q 785 54 725 54 q 924 124 875 56 q 976 314 973 193 q 965 438 977 374 q 932 572 953 503 l 1011 573 q 1046 431 1034 489 q 1057 314 1059 372 q 979 70 1055 154 q 785 -14 903 -14 q 634 44 688 -16 q 576 234 581 104 l 576 333 z "},"Ԍ":{"ha":858,"x_min":93,"x_max":793,"o":"m 471 -14 q 198 104 303 -14 q 93 405 93 222 l 93 583 q 198 883 93 764 q 471 1002 303 1002 q 599 988 543 1002 q 699 950 655 975 l 671 886 q 577 921 626 909 q 471 932 528 932 q 254 832 334 932 q 174 584 174 732 l 174 405 q 254 154 174 254 q 471 54 334 54 q 646 117 585 56 q 711 288 708 178 q 702 405 711 344 q 677 533 693 465 l 758 533 q 784 394 776 446 q 792 288 793 342 q 697 64 789 142 q 471 -14 606 -14 z "},"ԍ":{"ha":711,"x_min":79,"x_max":653,"o":"m 400 54 q 531 95 491 56 q 572 204 570 134 q 568 284 572 243 q 556 364 564 326 l 635 364 q 648 279 644 318 q 653 204 653 240 q 581 41 650 97 q 400 -14 512 -14 q 165 92 251 -14 q 79 353 79 199 l 79 381 q 162 641 79 534 q 386 747 244 747 q 494 736 448 747 q 570 705 541 726 l 547 640 q 474 668 515 659 q 386 678 433 678 q 218 589 275 678 q 161 381 161 500 l 161 353 q 222 143 161 233 q 400 54 284 54 z "},"Ԏ":{"ha":982,"x_min":22,"x_max":888,"o":"m 372 918 l 22 918 l 22 987 l 804 987 l 804 918 l 454 918 l 454 234 q 489 101 452 147 q 589 54 525 54 q 747 136 691 56 q 806 359 803 217 q 794 491 806 422 q 761 631 783 559 l 841 632 q 876 483 864 546 q 886 359 888 420 q 801 81 884 177 q 589 -14 718 -14 q 432 44 488 -16 q 372 234 376 104 l 372 918 z "},"ԏ":{"ha":886,"x_min":45,"x_max":798,"o":"m 308 665 l 45 665 l 45 734 l 661 734 l 661 665 l 390 665 l 390 234 q 425 101 389 147 q 525 54 461 54 q 664 120 615 56 q 716 296 713 184 q 705 413 716 352 q 672 536 693 473 l 751 537 q 787 404 775 458 q 798 296 798 350 q 719 65 795 145 q 525 -14 642 -14 q 369 44 425 -16 q 308 234 313 104 l 308 665 z "},"Ԑ":{"ha":917,"x_min":99,"x_max":848,"o":"m 99 268 q 151 419 99 359 q 306 506 203 479 q 164 594 214 535 q 114 728 114 654 q 213 930 114 859 q 482 1002 311 1002 q 733 927 631 1002 q 831 733 835 852 l 830 729 l 755 729 q 676 876 755 819 q 482 932 598 932 q 267 877 338 932 q 195 730 195 821 q 264 589 195 640 q 479 538 334 538 l 604 538 l 604 469 l 479 469 q 255 419 330 469 q 180 265 180 370 q 260 111 180 168 q 482 54 339 54 q 689 117 609 54 q 768 274 768 179 l 844 274 l 845 270 q 740 59 848 132 q 482 -14 631 -14 q 205 61 311 -14 q 99 268 99 136 z "}," ":{"ha":708,"x_min":0,"x_max":0,"o":""}," ":{"ha":1417,"x_min":0,"x_max":0,"o":""}," ":{"ha":708,"x_min":0,"x_max":0,"o":""}," ":{"ha":1417,"x_min":0,"x_max":0,"o":""}," ":{"ha":473,"x_min":0,"x_max":0,"o":""}," ":{"ha":354,"x_min":0,"x_max":0,"o":""}," ":{"ha":236,"x_min":0,"x_max":0,"o":""}," ":{"ha":781,"x_min":0,"x_max":0,"o":""}," ":{"ha":380,"x_min":0,"x_max":0,"o":""}," ":{"ha":283,"x_min":0,"x_max":0,"o":""}," ":{"ha":142,"x_min":0,"x_max":0,"o":""},"​":{"ha":0,"x_min":0,"x_max":0,"o":""},"–":{"ha":959,"x_min":119,"x_max":856,"o":"m 856 465 l 120 465 l 120 534 l 856 534 l 856 465 z "},"—":{"ha":1131,"x_min":125,"x_max":1031,"o":"m 1031 465 l 125 465 l 125 534 l 1031 534 l 1031 465 z "},"‗":{"ha":629,"x_min":30,"x_max":627,"o":"m 627 -233 l 30 -233 l 30 -164 l 627 -164 l 627 -233 m 627 -68 l 30 -68 l 30 0 l 627 0 l 627 -68 z "},"‘":{"ha":247,"x_min":62,"x_max":185,"o":"m 62 846 l 137 1058 l 185 1058 l 142 846 l 142 728 l 62 728 l 62 846 z "},"’":{"ha":247,"x_min":62,"x_max":185,"o":"m 185 937 l 110 728 l 62 728 l 104 935 l 104 1058 l 185 1058 l 185 937 z "},"‚":{"ha":239,"x_min":62,"x_max":178,"o":"m 178 44 l 110 -143 l 62 -143 l 97 37 l 97 176 l 178 176 l 178 44 z "},"‛":{"ha":248,"x_min":50,"x_max":174,"o":"m 50 937 l 125 728 l 174 728 l 131 935 l 131 1058 l 50 1058 l 50 937 z "},"“":{"ha":415,"x_min":62,"x_max":353,"o":"m 62 846 l 137 1058 l 185 1058 l 142 846 l 142 728 l 62 728 l 62 846 m 229 846 l 304 1058 l 353 1058 l 310 846 l 310 728 l 229 728 l 229 846 z "},"”":{"ha":418,"x_min":62,"x_max":356,"o":"m 185 937 l 110 728 l 62 728 l 104 935 l 104 1058 l 185 1058 l 185 937 m 356 937 l 281 728 l 233 728 l 275 935 l 275 1058 l 356 1058 l 356 937 z "},"„":{"ha":402,"x_min":62,"x_max":340,"o":"m 178 67 l 110 -137 l 62 -137 l 96 63 l 96 186 l 178 186 l 178 67 m 340 67 l 273 -137 l 224 -137 l 259 66 l 259 186 l 340 186 l 340 67 z "},"†":{"ha":764,"x_min":45,"x_max":717,"o":"m 717 663 l 424 663 l 424 0 l 342 0 l 342 663 l 45 663 l 45 734 l 342 734 l 342 987 l 424 987 l 424 734 l 717 734 l 717 663 z "},"‡":{"ha":783,"x_min":57,"x_max":728,"o":"m 728 0 l 427 0 l 427 -282 l 345 -282 l 345 0 l 57 0 l 57 68 l 345 68 l 345 664 l 57 664 l 57 734 l 345 734 l 345 987 l 427 987 l 427 734 l 728 734 l 728 664 l 427 664 l 427 68 l 728 68 l 728 0 z "},"•":{"ha":449,"x_min":99,"x_max":351,"o":"m 99 530 q 133 617 99 583 q 224 652 168 652 q 316 617 282 652 q 351 530 351 583 l 351 486 q 316 399 351 433 q 225 366 282 366 q 133 399 168 366 q 99 486 99 433 l 99 530 z "},"‥":{"ha":630,"x_min":127,"x_max":498,"o":"m 220 0 l 127 0 l 127 111 l 220 111 l 220 0 m 498 0 l 406 0 l 406 111 l 498 111 l 498 0 z "},"…":{"ha":890,"x_min":127,"x_max":764,"o":"m 220 0 l 127 0 l 127 111 l 220 111 l 220 0 m 498 0 l 406 0 l 406 111 l 498 111 l 498 0 m 764 0 l 671 0 l 671 111 l 764 111 l 764 0 z "},"‰":{"ha":1355,"x_min":62,"x_max":1285,"o":"m 574 241 q 628 386 574 327 q 767 445 681 445 q 863 418 822 445 q 928 347 905 392 q 994 418 951 392 q 1091 445 1036 445 q 1232 386 1178 445 q 1285 241 1285 327 l 1285 189 q 1232 44 1285 103 q 1093 -14 1178 -14 q 994 12 1037 -14 q 928 83 951 38 q 864 12 905 38 q 768 -14 823 -14 q 628 44 681 -14 q 574 189 574 103 l 574 241 m 62 798 q 116 943 62 884 q 255 1002 169 1002 q 395 943 342 1002 q 449 798 449 884 l 449 745 q 396 601 449 660 q 256 543 342 543 q 116 601 170 543 q 62 745 62 660 l 62 798 m 640 189 q 673 87 640 130 q 768 45 706 45 q 862 87 829 45 q 895 189 895 129 l 895 241 q 862 345 895 303 q 767 386 829 386 q 673 344 706 386 q 640 241 640 302 l 640 189 m 961 189 q 994 87 961 129 q 1089 45 1027 45 q 1182 87 1149 45 q 1215 189 1215 129 l 1215 241 q 1182 345 1215 303 q 1088 386 1149 386 q 994 345 1026 386 q 961 241 961 303 l 961 189 m 127 745 q 161 644 127 686 q 256 602 194 602 q 350 644 317 602 q 383 745 383 686 l 383 798 q 350 900 383 857 q 255 943 316 943 q 161 900 195 943 q 127 798 127 857 l 127 745 m 312 82 l 262 115 l 744 886 l 794 854 l 312 82 z "},"‹":{"ha":413,"x_min":73,"x_max":345,"o":"m 157 373 l 345 110 l 273 110 l 73 367 l 73 380 l 273 637 l 345 637 l 157 373 z "},"›":{"ha":413,"x_min":68,"x_max":340,"o":"m 68 637 l 140 637 l 340 380 l 340 367 l 140 110 l 68 110 l 256 373 l 68 637 z "},"⁄":{"ha":623,"x_min":42,"x_max":574,"o":"m 92 82 l 42 115 l 524 886 l 574 854 l 92 82 z "},"⁴":{"ha":631,"x_min":52,"x_max":573,"o":"m 458 573 l 573 573 l 573 511 l 458 511 l 458 380 l 384 380 l 384 511 l 55 511 l 52 563 l 374 1002 l 458 1002 l 458 573 m 135 573 l 384 573 l 384 906 l 380 907 l 363 875 l 135 573 z "},"ⁿ":{"ha":585,"x_min":83,"x_max":508,"o":"m 142 985 l 155 895 q 224 968 182 941 q 321 994 267 994 q 459 943 410 994 q 508 786 508 892 l 508 441 l 433 441 l 433 777 q 399 893 433 858 q 302 929 365 929 q 213 901 250 929 q 159 824 176 873 l 159 441 l 83 441 l 83 985 l 142 985 z "},"₤":{"ha":793,"x_min":45,"x_max":727,"o":"m 271 336 l 271 316 q 254 178 271 243 q 205 68 237 112 l 727 68 l 727 0 l 89 0 l 89 68 l 96 68 q 167 157 143 79 q 191 316 191 235 l 190 336 l 45 336 l 45 405 l 187 405 l 183 516 l 50 516 l 50 585 l 180 585 l 176 705 q 248 923 176 844 q 440 1002 319 1002 q 631 931 567 1002 q 692 743 694 861 l 690 739 l 614 739 q 568 886 614 840 q 440 932 522 932 q 306 873 355 932 q 257 705 257 813 l 261 585 l 547 585 l 547 516 l 264 516 l 268 405 l 551 405 l 551 336 l 271 336 z "},"₧":{"ha":1136,"x_min":125,"x_max":1056,"o":"m 867 922 l 867 734 l 1028 734 l 1028 667 l 867 667 l 867 189 q 893 87 867 117 q 962 57 919 57 q 1001 59 982 57 q 1044 64 1019 60 l 1056 4 q 1006 -9 1036 -5 q 948 -14 977 -14 q 828 35 871 -14 q 785 189 785 83 l 785 667 l 675 667 q 591 479 668 552 q 351 397 506 397 l 207 397 l 207 0 l 125 0 l 125 987 l 351 987 q 591 905 505 987 q 673 734 662 836 l 785 734 l 785 922 l 867 922 m 207 466 l 351 466 q 533 531 472 466 q 595 691 595 596 q 534 853 595 787 q 351 918 473 918 l 207 918 l 207 466 z "},"€":{"ha":728,"x_min":54,"x_max":659,"o":"m 621 361 l 250 361 l 250 349 q 318 134 250 214 q 503 54 387 54 q 580 60 542 54 q 653 77 618 66 l 659 7 q 583 -9 623 -3 q 503 -14 543 -14 q 261 84 354 -14 q 169 349 169 182 l 169 361 l 54 361 l 54 431 l 169 431 l 169 545 l 54 545 l 54 614 l 169 614 l 169 639 q 261 903 169 804 q 502 1002 353 1002 q 578 996 541 1002 q 659 981 616 991 l 653 909 q 578 926 616 920 q 502 932 540 932 q 317 854 385 932 q 250 640 250 775 l 250 614 l 621 614 l 621 545 l 250 545 l 250 431 l 621 431 l 621 361 z "},"℅":{"ha":1021,"x_min":80,"x_max":958,"o":"m 441 701 l 442 697 q 396 588 445 633 q 269 543 348 543 q 134 602 187 543 q 80 745 80 661 l 80 798 q 133 942 80 882 q 268 1002 186 1002 q 396 956 347 1002 q 442 846 445 910 l 441 842 l 381 842 q 352 913 381 884 q 268 943 322 943 q 179 899 212 943 q 146 798 146 856 l 146 745 q 179 644 146 687 q 269 602 213 602 q 352 631 322 602 q 381 701 381 661 l 441 701 m 571 242 q 624 387 571 328 q 764 446 677 446 q 904 387 850 446 q 958 242 958 328 l 958 189 q 904 44 958 103 q 766 -14 851 -14 q 625 44 678 -14 q 571 189 571 103 l 571 242 m 637 189 q 670 87 637 129 q 766 45 703 45 q 859 87 826 45 q 892 189 892 129 l 892 242 q 859 345 892 304 q 764 387 825 387 q 670 345 703 387 q 637 242 637 303 l 637 189 m 293 82 l 243 115 l 725 886 l 775 854 l 293 82 z "},"ℓ":{"ha":646,"x_min":62,"x_max":559,"o":"m 477 -8 l 473 -9 q 290 68 353 -13 q 228 292 228 149 l 228 318 q 148 299 189 305 q 62 293 106 293 l 62 370 q 150 376 108 370 q 228 397 191 383 l 228 745 q 274 933 228 865 q 400 1002 319 1002 q 514 943 470 1002 q 559 787 559 885 l 559 759 q 492 527 559 639 q 309 352 426 414 l 309 292 q 348 120 309 184 q 477 56 387 56 l 477 -8 m 477 758 l 477 787 q 456 894 477 858 q 400 930 435 930 q 332 883 355 930 q 309 745 309 836 l 309 446 l 313 444 q 435 579 393 493 q 477 758 477 665 z "},"№":{"ha":1522,"x_min":125,"x_max":1422,"o":"m 852 0 l 771 0 l 210 849 l 206 848 l 206 0 l 125 0 l 125 987 l 206 987 l 767 140 l 771 140 l 771 987 l 852 987 l 852 0 m 983 772 q 1043 936 983 873 q 1202 1000 1102 1000 q 1362 936 1303 1000 q 1422 772 1422 873 l 1422 694 q 1363 530 1422 593 q 1204 467 1303 467 q 1043 530 1103 467 q 983 694 983 593 l 983 772 m 1057 694 q 1094 576 1057 621 q 1204 532 1131 532 q 1311 577 1274 532 q 1349 694 1349 622 l 1349 772 q 1311 888 1349 843 q 1202 934 1273 934 q 1094 888 1132 934 q 1057 772 1057 843 l 1057 694 m 1315 228 l 990 228 l 990 296 l 1315 296 l 1315 228 z "},"™":{"ha":857,"x_min":65,"x_max":740,"o":"m 690 883 l 686 884 l 578 623 l 543 623 l 431 894 l 427 893 l 427 623 l 378 623 l 378 987 l 442 987 l 558 701 l 562 701 l 680 987 l 740 987 l 740 623 l 690 623 l 690 883 m 326 941 l 222 941 l 222 623 l 172 623 l 172 941 l 65 941 l 65 987 l 326 987 l 326 941 z "},"℮":{"ha":880,"x_min":101,"x_max":792,"o":"m 707 64 q 585 6 648 26 q 456 -14 521 -14 q 205 98 309 -14 q 101 367 101 210 q 211 634 101 520 q 456 747 320 747 q 694 642 597 747 q 792 380 792 537 l 792 349 l 271 349 l 271 126 q 356 71 309 90 q 456 52 404 52 q 584 72 521 52 q 706 134 647 92 l 707 64 m 456 684 q 358 662 406 684 q 271 601 311 640 l 271 413 l 637 413 l 637 607 q 554 663 601 642 q 456 684 507 684 z "},"⅛":{"ha":1153,"x_min":85,"x_max":1082,"o":"m 260 438 l 186 438 l 186 915 l 85 910 l 85 973 l 260 989 l 260 438 m 280 82 l 230 115 l 712 886 l 762 854 l 280 82 m 1065 404 q 1039 330 1065 362 q 970 281 1013 298 q 1051 229 1021 263 q 1082 150 1082 194 q 1023 34 1082 75 q 876 -7 964 -7 q 721 34 782 -7 q 661 150 661 75 q 691 229 661 195 q 776 281 722 263 q 704 330 730 298 q 677 404 677 362 q 733 512 677 473 q 875 551 789 551 q 1011 512 956 551 q 1065 404 1065 473 m 1008 151 q 969 223 1008 195 q 875 251 930 251 q 774 223 814 251 q 733 151 733 195 q 774 80 733 106 q 876 54 814 54 q 970 80 932 54 q 1008 151 1008 106 m 991 401 q 957 465 991 441 q 875 489 924 489 q 786 466 821 489 q 751 401 751 442 q 786 336 751 361 q 876 312 822 312 q 957 336 924 312 q 991 401 991 361 z "},"⅜":{"ha":1244,"x_min":73,"x_max":1172,"o":"m 467 846 q 443 774 467 806 q 376 726 418 743 q 450 678 425 711 q 476 597 476 645 q 419 481 476 523 q 273 440 363 440 q 132 480 191 440 q 77 594 73 519 l 78 598 l 146 598 q 181 528 146 555 q 273 501 216 501 q 368 527 334 501 q 402 597 402 553 q 371 671 402 648 q 276 694 339 694 l 193 694 l 193 755 l 276 755 q 365 779 336 755 q 393 846 393 802 q 363 911 393 886 q 273 937 332 937 q 188 912 222 937 q 155 849 155 888 l 87 849 l 86 853 q 137 958 82 917 q 273 998 191 998 q 414 959 362 998 q 467 846 467 919 m 386 82 l 336 115 l 818 886 l 868 854 l 386 82 m 1156 404 q 1129 330 1156 362 q 1060 281 1103 298 q 1141 229 1111 263 q 1172 150 1172 194 q 1113 34 1172 75 q 966 -7 1054 -7 q 811 34 872 -7 q 751 150 751 75 q 782 229 751 195 q 866 281 812 263 q 794 330 821 298 q 768 404 768 362 q 823 512 768 473 q 965 551 879 551 q 1101 512 1046 551 q 1156 404 1156 473 m 1099 151 q 1059 223 1099 195 q 965 251 1020 251 q 864 223 905 251 q 823 151 823 195 q 864 80 823 106 q 966 54 905 54 q 1060 80 1022 54 q 1099 151 1099 106 m 1081 401 q 1047 465 1081 441 q 965 489 1014 489 q 876 466 911 489 q 841 401 841 442 q 877 336 841 361 q 966 312 912 312 q 1047 336 1014 312 q 1081 401 1081 361 z "},"⅝":{"ha":1273,"x_min":74,"x_max":1202,"o":"m 90 681 l 123 987 l 452 987 l 452 922 l 188 922 l 168 760 q 220 784 191 774 q 293 795 250 794 q 428 749 377 798 q 479 616 479 701 q 428 485 479 534 q 273 436 378 436 q 131 473 187 436 q 77 583 74 510 l 79 587 l 146 591 q 180 522 146 546 q 273 497 215 497 q 373 527 340 497 q 405 616 405 557 q 373 702 405 670 q 283 734 340 734 q 196 718 227 734 q 152 674 165 703 l 90 681 m 420 82 l 370 115 l 852 886 l 903 854 l 420 82 m 1185 404 q 1159 330 1185 362 q 1090 281 1133 298 q 1171 229 1141 263 q 1202 150 1202 194 q 1143 34 1202 75 q 996 -7 1084 -7 q 841 34 902 -7 q 781 150 781 75 q 811 229 781 195 q 896 281 842 263 q 824 330 850 298 q 798 404 798 362 q 853 512 798 473 q 995 551 909 551 q 1131 512 1076 551 q 1185 404 1185 473 m 1128 151 q 1089 223 1128 195 q 995 251 1050 251 q 894 223 935 251 q 853 151 853 195 q 894 80 853 106 q 996 54 935 54 q 1090 80 1052 54 q 1128 151 1128 106 m 1111 401 q 1077 465 1111 441 q 995 489 1044 489 q 906 466 941 489 q 871 401 871 442 q 906 336 871 361 q 996 312 942 312 q 1077 336 1044 312 q 1111 401 1111 361 z "},"⅞":{"ha":1175,"x_min":71,"x_max":1103,"o":"m 455 925 q 318 740 359 817 q 277 530 277 663 l 277 444 l 205 444 l 205 530 q 254 758 205 664 q 377 925 303 852 l 71 925 l 71 987 l 455 987 l 455 925 m 305 82 l 255 115 l 737 886 l 787 854 l 305 82 m 1087 404 q 1061 330 1087 362 q 991 281 1035 298 q 1073 229 1042 263 q 1103 150 1103 194 q 1044 34 1103 75 q 897 -7 985 -7 q 743 34 804 -7 q 682 150 682 75 q 713 229 682 195 q 798 281 744 263 q 726 330 752 298 q 699 404 699 362 q 755 512 699 473 q 897 551 810 551 q 1033 512 978 551 q 1087 404 1087 473 m 1030 151 q 991 223 1030 195 q 897 251 951 251 q 795 223 836 251 q 755 151 755 195 q 795 80 755 106 q 897 54 836 54 q 992 80 954 54 q 1030 151 1030 106 m 1013 401 q 979 465 1013 441 q 897 489 945 489 q 807 466 842 489 q 772 401 772 442 q 808 336 772 361 q 897 312 844 312 q 979 336 945 312 q 1013 401 1013 361 z "},"∂":{"ha":803,"x_min":67,"x_max":715,"o":"m 334 1029 q 617 841 519 969 q 715 512 715 713 l 715 363 q 623 91 715 197 q 389 -14 530 -14 q 158 79 248 -14 q 67 309 67 172 q 150 562 67 470 q 378 654 232 654 q 523 623 457 654 q 625 535 589 591 l 628 538 q 541 808 627 709 q 308 958 455 907 l 334 1029 m 392 56 q 567 142 499 56 q 634 363 634 229 l 634 421 q 542 536 608 488 q 378 584 475 584 q 206 507 263 584 q 149 309 149 430 q 214 132 149 208 q 392 56 280 56 z "},"∏":{"ha":913,"x_min":118,"x_max":794,"o":"m 794 -165 l 713 -165 l 713 918 l 199 918 l 199 -165 l 118 -165 l 118 987 l 794 987 l 794 -165 z "},"∑":{"ha":802,"x_min":43,"x_max":800,"o":"m 539 392 l 142 -113 l 800 -113 l 800 -182 l 43 -182 l 43 -120 l 451 401 l 43 924 l 43 987 l 754 987 l 754 918 l 142 918 l 539 409 l 539 392 z "},"−":{"ha":792,"x_min":112,"x_max":678,"o":"m 678 465 l 112 465 l 112 534 l 678 534 l 678 465 z "},"√":{"ha":758,"x_min":43,"x_max":717,"o":"m 319 195 l 342 106 l 346 106 l 370 195 l 633 987 l 717 987 l 377 0 l 312 0 l 147 434 l 43 434 l 43 503 l 205 503 l 319 195 z "},"∞":{"ha":1468,"x_min":83,"x_max":1374,"o":"m 1374 340 q 1289 88 1374 191 q 1066 -14 1204 -14 q 860 72 943 -14 q 728 273 777 157 q 597 72 680 157 q 392 -14 514 -14 q 168 88 252 -14 q 83 340 83 191 l 83 393 q 168 645 83 542 q 391 747 252 747 q 596 661 513 747 q 728 460 680 574 q 861 661 778 575 q 1067 747 944 747 q 1290 645 1205 747 q 1374 393 1374 542 l 1374 340 m 1293 393 q 1234 595 1293 511 q 1067 678 1175 678 q 869 567 944 678 q 774 381 794 456 l 774 353 q 868 166 792 279 q 1066 54 943 54 q 1234 137 1174 54 q 1293 340 1293 220 l 1293 393 m 165 340 q 224 137 165 220 q 392 54 283 54 q 588 165 513 54 q 684 353 663 275 l 684 381 q 587 569 661 460 q 391 678 513 678 q 224 595 283 678 q 165 393 165 511 l 165 340 z "},"∫":{"ha":352,"x_min":-79,"x_max":423,"o":"m 201 -60 q 147 -235 201 -174 q -3 -296 93 -296 q -42 -293 -24 -296 q -79 -283 -60 -290 l -71 -216 q -39 -223 -60 -220 q -3 -227 -18 -227 q 88 -183 56 -227 q 121 -60 121 -139 l 121 841 q 176 1012 121 951 q 331 1072 231 1072 q 376 1069 353 1072 q 423 1059 399 1065 l 412 994 q 379 1001 395 998 q 341 1003 363 1003 q 238 960 275 1003 q 201 841 201 917 l 201 -60 z "},"≈":{"ha":783,"x_min":68,"x_max":707,"o":"m 75 579 q 149 652 107 625 q 235 678 191 678 q 304 671 282 679 q 394 629 326 663 q 477 589 455 597 q 543 581 499 581 q 628 607 587 581 q 702 681 669 633 l 707 602 q 633 529 675 555 q 547 503 591 503 q 480 511 503 503 q 399 549 458 519 q 307 593 328 585 q 239 600 286 601 q 154 573 195 600 q 81 500 113 547 l 75 579 m 68 303 q 142 376 100 349 q 229 402 184 402 q 297 395 275 403 q 387 353 319 387 q 472 312 451 320 q 536 304 492 304 q 621 331 579 304 q 695 405 662 357 l 700 326 q 625 253 667 279 q 540 227 583 227 q 473 235 495 227 q 392 273 450 243 q 298 318 317 310 q 232 325 278 326 q 147 298 189 325 q 73 224 106 271 l 68 303 z "},"≠":{"ha":713,"x_min":101,"x_max":667,"o":"m 509 637 l 667 637 l 667 565 l 469 565 l 353 358 l 667 358 l 667 286 l 313 286 l 212 104 l 172 133 l 257 286 l 101 286 l 101 358 l 297 358 l 412 565 l 101 565 l 101 637 l 452 637 l 557 827 l 598 798 l 509 637 z "},"≤":{"ha":722,"x_min":109,"x_max":675,"o":"m 254 444 l 180 427 l 180 423 l 254 406 l 670 242 l 670 165 l 109 397 l 109 456 l 670 687 l 670 610 l 254 444 m 675 1 l 109 1 l 109 71 l 675 71 l 675 1 z "},"≥":{"ha":722,"x_min":98,"x_max":671,"o":"m 98 612 l 98 687 l 671 456 l 671 397 l 98 165 l 98 241 l 527 408 l 600 425 l 600 428 l 527 446 l 98 612 m 671 1 l 105 1 l 105 71 l 671 71 l 671 1 z "},"◊":{"ha":701,"x_min":37,"x_max":661,"o":"m 316 987 l 381 987 l 661 493 l 382 0 l 317 0 l 37 493 l 316 987 m 576 493 l 374 862 l 350 920 l 346 920 l 321 862 l 122 493 l 323 125 l 347 66 l 351 66 l 376 125 l 576 493 z "},"":{"ha":330,"x_min":96,"x_max":200,"o":"m 200 37 l 144 -105 l 96 -105 l 131 38 l 131 119 l 200 119 l 200 37 z "},"ﬁ":{"ha":746,"x_min":33,"x_max":629,"o":"m 155 0 l 155 667 l 33 667 l 33 734 l 155 734 l 155 827 q 219 1008 155 944 q 398 1072 283 1072 q 490 1062 444 1072 q 585 1032 537 1052 l 572 962 q 492 989 530 979 q 404 998 453 998 q 278 954 321 998 q 236 827 236 910 l 236 734 l 408 734 l 408 667 l 236 667 l 236 0 l 155 0 m 629 0 l 548 0 l 548 734 l 629 734 l 629 0 z "},"﻿":{"ha":0,"x_min":0,"x_max":0,"o":""},"￼":{"ha":1420,"x_min":60,"x_max":1375,"o":"m 557 317 q 514 210 557 251 q 402 169 471 169 q 288 210 332 169 q 245 317 245 251 l 245 393 q 288 500 245 458 q 401 542 332 542 q 514 500 470 542 q 557 393 557 458 l 557 317 m 603 171 l 603 543 l 730 543 q 837 518 799 543 q 874 441 874 492 q 859 394 874 415 q 817 363 844 373 q 868 330 850 354 q 886 276 886 307 q 851 198 886 224 q 753 171 815 171 l 603 171 m 495 393 q 470 466 495 439 q 401 493 444 493 q 332 466 357 493 q 307 393 307 439 l 307 317 q 332 244 307 271 q 402 218 357 218 q 470 244 445 218 q 495 317 495 271 l 495 393 m 1142 545 l 1204 545 l 1204 288 q 1168 203 1204 235 q 1078 172 1133 172 q 980 200 1016 172 q 949 279 945 227 l 950 283 l 1007 283 q 1025 237 1007 252 q 1078 222 1044 222 q 1123 240 1105 222 q 1142 288 1142 258 l 1142 545 m 60 -270 l 60 -56 l 136 -56 l 136 -193 l 269 -193 l 269 -270 l 60 -270 m 1164 -270 l 1164 -193 l 1299 -193 l 1299 -56 l 1375 -56 l 1375 -270 l 1164 -270 m 60 793 l 60 986 l 269 986 l 269 907 l 136 907 l 136 793 l 60 793 m 1164 907 l 1164 986 l 1375 986 l 1375 793 l 1299 793 l 1299 907 l 1164 907 m 667 336 l 667 222 l 753 222 q 805 236 787 222 q 823 278 823 251 q 805 319 823 304 q 756 336 788 335 l 753 336 l 667 336 m 894 907 l 894 986 l 1082 986 l 1082 907 l 894 907 m 623 907 l 623 986 l 811 986 l 811 907 l 623 907 m 353 907 l 353 986 l 540 986 l 540 907 l 353 907 m 894 -270 l 894 -193 l 1082 -193 l 1082 -270 l 894 -270 m 623 -270 l 623 -193 l 811 -193 l 811 -270 l 623 -270 m 353 -270 l 353 -193 l 540 -193 l 540 -270 l 353 -270 m 667 384 l 730 384 q 790 397 770 384 q 810 438 810 411 q 791 475 810 465 q 730 486 772 486 l 667 486 l 667 384 m 136 282 l 60 282 l 60 453 l 136 453 l 136 282 m 136 538 l 60 538 l 60 708 l 136 708 l 136 538 m 136 28 l 60 28 l 60 197 l 136 197 l 136 28 m 1375 282 l 1299 282 l 1299 453 l 1375 453 l 1375 282 m 1375 538 l 1299 538 l 1299 708 l 1375 708 l 1375 538 m 1375 28 l 1299 28 l 1299 197 l 1375 197 l 1375 28 z "},"�":{"ha":1425,"x_min":62,"x_max":1361,"o":"m 711 1097 l 1361 436 l 711 -225 l 62 436 l 711 1097 m 767 273 q 776 329 767 309 q 812 368 785 350 q 892 438 861 394 q 924 536 924 483 q 867 674 924 623 q 710 725 810 725 q 561 681 618 725 q 507 549 505 637 l 509 545 l 640 545 q 661 597 641 579 q 710 614 681 614 q 767 593 747 614 q 787 536 787 572 q 769 476 787 502 q 724 431 752 450 q 650 363 670 393 q 630 273 630 332 l 767 273 m 767 211 l 630 211 l 630 96 l 767 96 l 767 211 m 716 -374 l 719 -374 l 719 -376 l 716 -376 l 716 -374 m 715 1455 l 718 1455 l 718 1453 l 715 1453 l 715 1455 z "}," ":{"ha":338,"x_min":0,"x_max":0,"o":""},"­":{"ha":397,"x_min":33,"x_max":358,"o":"m 358 387 l 33 387 l 33 455 l 358 455 l 358 387 z "},"Đ":{"ha":932,"x_min":46,"x_max":854,"o":"m 150 0 l 150 467 l 46 467 l 46 536 l 150 536 l 150 987 l 437 987 q 736 867 618 987 q 854 557 854 746 l 854 430 q 736 120 854 240 q 437 0 618 0 l 150 0 m 461 467 l 231 467 l 231 68 l 437 68 q 678 171 583 68 q 772 430 772 273 l 772 559 q 677 816 772 713 q 437 918 583 918 l 231 918 l 231 536 l 461 536 l 461 467 z "},"Ð":{"ha":932,"x_min":46,"x_max":854,"o":"m 150 0 l 150 467 l 46 467 l 46 536 l 150 536 l 150 987 l 437 987 q 736 867 618 987 q 854 557 854 746 l 854 430 q 736 120 854 240 q 437 0 618 0 l 150 0 m 461 467 l 231 467 l 231 68 l 437 68 q 678 171 583 68 q 772 430 772 273 l 772 559 q 677 816 772 713 q 437 918 583 918 l 231 918 l 231 536 l 461 536 l 461 467 z "},"ħ":{"ha":793,"x_min":22,"x_max":689,"o":"m 437 852 l 209 852 l 209 608 q 307 711 245 674 q 449 747 368 747 q 627 675 565 747 q 689 452 689 604 l 689 0 l 608 0 l 608 454 q 561 625 608 573 q 431 677 513 677 q 291 633 347 677 q 209 517 235 589 l 209 0 l 127 0 l 127 852 l 22 852 l 22 922 l 127 922 l 127 1058 l 209 1058 l 209 922 l 437 922 l 437 852 z "},"Ŧ":{"ha":823,"x_min":31,"x_max":791,"o":"m 611 566 l 452 566 l 452 0 l 370 0 l 370 566 l 196 566 l 196 635 l 370 635 l 370 918 l 31 918 l 31 987 l 791 987 l 791 918 l 452 918 l 452 635 l 611 635 l 611 566 z "},"ŧ":{"ha":461,"x_min":14,"x_max":429,"o":"m 235 922 l 235 734 l 396 734 l 396 667 l 235 667 l 235 488 l 429 488 l 429 418 l 235 418 l 235 189 q 261 87 235 117 q 330 57 287 57 q 369 59 350 57 q 412 64 387 60 l 424 4 q 374 -9 404 -5 q 316 -14 345 -14 q 196 35 239 -14 q 153 189 153 83 l 153 418 l 14 418 l 14 488 l 153 488 l 153 667 l 26 667 l 26 734 l 153 734 l 153 922 l 235 922 z "},"À":{"ha":867,"x_min":22,"x_max":846,"o":"m 660 275 l 208 275 l 106 0 l 22 0 l 397 987 l 473 987 l 846 0 l 762 0 l 660 275 m 235 348 l 633 348 l 437 882 l 433 882 l 235 348 m 494 1059 l 414 1059 l 251 1236 l 252 1239 l 357 1239 l 494 1059 z "},"Á":{"ha":867,"x_min":22,"x_max":846,"o":"m 660 275 l 208 275 l 106 0 l 22 0 l 397 987 l 473 987 l 846 0 l 762 0 l 660 275 m 235 348 l 633 348 l 437 882 l 433 882 l 235 348 m 536 1236 l 635 1236 l 637 1232 l 469 1056 l 395 1056 l 536 1236 z "},"Â":{"ha":867,"x_min":22,"x_max":846,"o":"m 660 275 l 208 275 l 106 0 l 22 0 l 397 987 l 473 987 l 846 0 l 762 0 l 660 275 m 235 348 l 633 348 l 437 882 l 433 882 l 235 348 m 635 1098 l 635 1086 l 559 1086 l 446 1200 l 334 1086 l 259 1086 l 259 1100 l 413 1250 l 479 1250 l 635 1098 z "},"Ã":{"ha":867,"x_min":22,"x_max":846,"o":"m 660 275 l 208 275 l 106 0 l 22 0 l 397 987 l 473 987 l 846 0 l 762 0 l 660 275 m 235 348 l 633 348 l 437 882 l 433 882 l 235 348 m 663 1236 q 626 1137 663 1176 q 533 1097 589 1097 q 431 1135 483 1097 q 342 1172 378 1172 q 288 1148 310 1172 q 267 1088 267 1124 l 212 1100 q 249 1198 212 1158 q 342 1238 286 1238 q 441 1200 386 1238 q 533 1163 497 1163 q 587 1187 564 1163 q 609 1249 609 1212 l 663 1236 z "},"Ä":{"ha":867,"x_min":22,"x_max":846,"o":"m 660 275 l 208 275 l 106 0 l 22 0 l 397 987 l 473 987 l 846 0 l 762 0 l 660 275 m 235 348 l 633 348 l 437 882 l 433 882 l 235 348 m 667 1113 l 550 1113 l 550 1219 l 667 1219 l 667 1113 m 349 1113 l 231 1113 l 231 1219 l 349 1219 l 349 1113 z "},"Å":{"ha":867,"x_min":22,"x_max":846,"o":"m 660 275 l 208 275 l 106 0 l 22 0 l 397 987 l 473 987 l 846 0 l 762 0 l 660 275 m 235 348 l 633 348 l 437 882 l 433 882 l 235 348 m 330 1173 q 364 1253 330 1220 q 445 1286 397 1286 q 524 1253 491 1286 q 557 1173 557 1220 q 525 1094 557 1125 q 445 1063 492 1063 q 363 1094 397 1063 q 330 1173 330 1125 m 383 1173 q 401 1129 383 1147 q 445 1112 419 1112 q 487 1129 470 1112 q 505 1173 505 1146 q 487 1218 505 1200 q 445 1236 470 1236 q 401 1218 419 1236 q 383 1173 383 1200 z "},"Ǻ":{"ha":867,"x_min":22,"x_max":846,"o":"m 660 275 l 208 275 l 106 0 l 22 0 l 397 987 l 473 987 l 846 0 l 762 0 l 660 275 m 235 348 l 633 348 l 437 882 l 433 882 l 235 348 m 532 1413 l 619 1413 l 621 1409 l 488 1274 l 423 1274 l 532 1413 m 342 1135 q 373 1209 342 1179 q 447 1239 404 1239 q 520 1209 490 1239 q 550 1135 550 1179 q 520 1062 550 1091 q 447 1033 490 1033 q 373 1062 404 1033 q 342 1135 342 1091 m 388 1135 q 405 1093 388 1110 q 447 1076 422 1076 q 488 1093 471 1076 q 505 1135 505 1109 q 488 1178 505 1160 q 447 1196 471 1196 q 405 1178 422 1196 q 388 1135 388 1160 z "},"Ç":{"ha":890,"x_min":90,"x_max":811,"o":"m 810 309 l 811 304 q 705 71 798 156 q 456 -14 612 -14 q 191 105 292 -14 q 90 413 90 224 l 90 574 q 191 882 90 762 q 456 1002 292 1002 q 706 918 614 1002 q 811 684 798 835 l 810 680 l 734 680 q 649 867 718 802 q 456 932 581 932 q 249 832 327 932 q 170 575 170 732 l 170 413 q 249 154 170 254 q 456 54 327 54 q 650 118 581 54 q 734 309 718 182 l 810 309 m 494 -5 l 486 -49 q 572 -82 539 -55 q 605 -165 605 -109 q 551 -263 605 -227 q 398 -300 498 -300 l 393 -248 q 496 -227 454 -248 q 538 -166 538 -206 q 510 -112 538 -127 q 411 -92 481 -97 l 431 -5 l 494 -5 z "},"È":{"ha":800,"x_min":130,"x_max":755,"o":"m 686 478 l 210 478 l 210 68 l 755 68 l 755 0 l 130 0 l 130 987 l 751 987 l 751 918 l 210 918 l 210 547 l 686 547 l 686 478 m 470 1059 l 391 1059 l 227 1236 l 229 1239 l 333 1239 l 470 1059 z "},"É":{"ha":800,"x_min":130,"x_max":755,"o":"m 686 478 l 210 478 l 210 68 l 755 68 l 755 0 l 130 0 l 130 987 l 751 987 l 751 918 l 210 918 l 210 547 l 686 547 l 686 478 m 512 1236 l 612 1236 l 614 1232 l 445 1056 l 372 1056 l 512 1236 z "},"Ê":{"ha":800,"x_min":130,"x_max":755,"o":"m 686 478 l 210 478 l 210 68 l 755 68 l 755 0 l 130 0 l 130 987 l 751 987 l 751 918 l 210 918 l 210 547 l 686 547 l 686 478 m 612 1098 l 612 1086 l 536 1086 l 422 1200 l 310 1086 l 235 1086 l 235 1100 l 389 1250 l 456 1250 l 612 1098 z "},"Ë":{"ha":800,"x_min":130,"x_max":755,"o":"m 686 478 l 210 478 l 210 68 l 755 68 l 755 0 l 130 0 l 130 987 l 751 987 l 751 918 l 210 918 l 210 547 l 686 547 l 686 478 m 644 1113 l 526 1113 l 526 1219 l 644 1219 l 644 1113 m 326 1113 l 208 1113 l 208 1219 l 326 1219 l 326 1113 z "},"Ì":{"ha":376,"x_min":-6,"x_max":237,"o":"m 229 0 l 147 0 l 147 987 l 229 987 l 229 0 m 237 1059 l 157 1059 l -6 1236 l -5 1239 l 100 1239 l 237 1059 z "},"Í":{"ha":376,"x_min":137,"x_max":379,"o":"m 229 0 l 147 0 l 147 987 l 229 987 l 229 0 m 277 1236 l 377 1236 l 379 1232 l 210 1056 l 137 1056 l 277 1236 z "},"Î":{"ha":376,"x_min":2,"x_max":378,"o":"m 229 0 l 147 0 l 147 987 l 229 987 l 229 0 m 378 1098 l 378 1086 l 302 1086 l 189 1200 l 77 1086 l 2 1086 l 2 1100 l 156 1250 l 222 1250 l 378 1098 z "},"Ï":{"ha":376,"x_min":-26,"x_max":410,"o":"m 229 0 l 147 0 l 147 987 l 229 987 l 229 0 m 410 1113 l 293 1113 l 293 1219 l 410 1219 l 410 1113 m 92 1113 l -26 1113 l -26 1219 l 92 1219 l 92 1113 z "},"Ñ":{"ha":986,"x_min":130,"x_max":857,"o":"m 857 0 l 776 0 l 215 849 l 211 848 l 211 0 l 130 0 l 130 987 l 211 987 l 772 140 l 776 140 l 776 987 l 857 987 l 857 0 m 710 1236 q 673 1137 710 1176 q 580 1097 635 1097 q 477 1135 530 1097 q 389 1172 425 1172 q 335 1148 357 1172 q 313 1088 313 1124 l 259 1100 q 296 1198 259 1158 q 389 1238 332 1238 q 488 1200 433 1238 q 580 1163 544 1163 q 633 1187 611 1163 q 656 1249 656 1212 l 710 1236 z "},"Ò":{"ha":935,"x_min":84,"x_max":850,"o":"m 850 413 q 746 104 850 222 q 465 -14 641 -14 q 188 104 291 -14 q 84 413 84 222 l 84 574 q 187 883 84 764 q 464 1002 290 1002 q 745 883 640 1002 q 850 574 850 764 l 850 413 m 770 575 q 689 833 770 735 q 464 930 608 930 q 244 833 323 930 q 165 575 165 735 l 165 413 q 244 154 165 252 q 465 56 323 56 q 689 154 609 56 q 770 413 770 251 l 770 575 m 513 1073 l 433 1073 l 270 1250 l 271 1253 l 376 1253 l 513 1073 z "},"Ó":{"ha":935,"x_min":84,"x_max":850,"o":"m 850 413 q 746 104 850 222 q 465 -14 641 -14 q 188 104 291 -14 q 84 413 84 222 l 84 574 q 187 883 84 764 q 464 1002 290 1002 q 745 883 640 1002 q 850 574 850 764 l 850 413 m 770 575 q 689 833 770 735 q 464 930 608 930 q 244 833 323 930 q 165 575 165 735 l 165 413 q 244 154 165 252 q 465 56 323 56 q 689 154 609 56 q 770 413 770 251 l 770 575 m 555 1251 l 654 1251 l 656 1246 l 488 1070 l 414 1070 l 555 1251 z "},"Ô":{"ha":935,"x_min":84,"x_max":850,"o":"m 850 413 q 746 104 850 222 q 465 -14 641 -14 q 188 104 291 -14 q 84 413 84 222 l 84 574 q 187 883 84 764 q 464 1002 290 1002 q 745 883 640 1002 q 850 574 850 764 l 850 413 m 770 575 q 689 833 770 735 q 464 930 608 930 q 244 833 323 930 q 165 575 165 735 l 165 413 q 244 154 165 252 q 465 56 323 56 q 689 154 609 56 q 770 413 770 251 l 770 575 m 654 1112 l 654 1100 l 578 1100 l 465 1214 l 353 1100 l 278 1100 l 278 1114 l 432 1264 l 498 1264 l 654 1112 z "},"Õ":{"ha":935,"x_min":84,"x_max":850,"o":"m 850 413 q 746 104 850 222 q 465 -14 641 -14 q 188 104 291 -14 q 84 413 84 222 l 84 574 q 187 883 84 764 q 464 1002 290 1002 q 745 883 640 1002 q 850 574 850 764 l 850 413 m 770 575 q 689 833 770 735 q 464 930 608 930 q 244 833 323 930 q 165 575 165 735 l 165 413 q 244 154 165 252 q 465 56 323 56 q 689 154 609 56 q 770 413 770 251 l 770 575 m 682 1250 q 645 1151 682 1190 q 552 1112 608 1112 q 450 1149 502 1112 q 361 1186 397 1186 q 307 1162 329 1186 q 286 1102 286 1139 l 231 1114 q 268 1212 231 1173 q 361 1252 304 1252 q 460 1215 405 1252 q 552 1177 516 1177 q 606 1202 583 1177 q 628 1263 628 1226 l 682 1250 z "},"Ö":{"ha":935,"x_min":84,"x_max":850,"o":"m 850 413 q 746 104 850 222 q 465 -14 641 -14 q 188 104 291 -14 q 84 413 84 222 l 84 574 q 187 883 84 764 q 464 1002 290 1002 q 745 883 640 1002 q 850 574 850 764 l 850 413 m 770 575 q 689 833 770 735 q 464 930 608 930 q 244 833 323 930 q 165 575 165 735 l 165 413 q 244 154 165 252 q 465 56 323 56 q 689 154 609 56 q 770 413 770 251 l 770 575 m 686 1127 l 569 1127 l 569 1234 l 686 1234 l 686 1127 m 368 1127 l 250 1127 l 250 1234 l 368 1234 l 368 1127 z "},"Ù":{"ha":932,"x_min":113,"x_max":820,"o":"m 820 987 l 820 318 q 721 71 820 157 q 464 -14 623 -14 q 210 72 307 -14 q 113 318 113 157 l 113 987 l 195 987 l 195 318 q 269 123 195 192 q 464 54 344 54 q 663 123 586 54 q 739 318 739 191 l 739 987 l 820 987 m 520 1059 l 441 1059 l 277 1236 l 279 1239 l 383 1239 l 520 1059 z "},"Ú":{"ha":932,"x_min":113,"x_max":820,"o":"m 820 987 l 820 318 q 721 71 820 157 q 464 -14 623 -14 q 210 72 307 -14 q 113 318 113 157 l 113 987 l 195 987 l 195 318 q 269 123 195 192 q 464 54 344 54 q 663 123 586 54 q 739 318 739 191 l 739 987 l 820 987 m 562 1236 l 662 1236 l 664 1232 l 495 1056 l 422 1056 l 562 1236 z "},"Û":{"ha":932,"x_min":113,"x_max":820,"o":"m 820 987 l 820 318 q 721 71 820 157 q 464 -14 623 -14 q 210 72 307 -14 q 113 318 113 157 l 113 987 l 195 987 l 195 318 q 269 123 195 192 q 464 54 344 54 q 663 123 586 54 q 739 318 739 191 l 739 987 l 820 987 m 662 1098 l 662 1086 l 586 1086 l 473 1200 l 360 1086 l 286 1086 l 286 1100 l 439 1250 l 506 1250 l 662 1098 z "},"Ü":{"ha":932,"x_min":113,"x_max":820,"o":"m 820 987 l 820 318 q 721 71 820 157 q 464 -14 623 -14 q 210 72 307 -14 q 113 318 113 157 l 113 987 l 195 987 l 195 318 q 269 123 195 192 q 464 54 344 54 q 663 123 586 54 q 739 318 739 191 l 739 987 l 820 987 m 694 1113 l 576 1113 l 576 1219 l 694 1219 l 694 1113 m 376 1113 l 258 1113 l 258 1219 l 376 1219 l 376 1113 z "},"Ý":{"ha":844,"x_min":22,"x_max":821,"o":"m 420 439 l 726 987 l 821 987 l 460 361 l 460 0 l 380 0 l 380 366 l 22 987 l 117 987 l 420 439 m 510 1232 l 610 1232 l 612 1227 l 443 1051 l 370 1051 l 510 1232 z "},"à":{"ha":747,"x_min":70,"x_max":656,"o":"m 572 0 q 560 64 564 37 q 557 119 557 92 q 448 24 516 62 q 296 -14 380 -14 q 129 43 189 -14 q 70 195 70 100 q 158 358 70 297 q 395 419 245 419 l 557 419 l 557 510 q 506 633 557 589 q 365 678 456 678 q 224 635 280 678 q 168 531 168 593 l 94 532 l 92 536 q 167 683 88 618 q 368 747 246 747 q 564 686 490 747 q 637 509 637 624 l 637 148 q 642 73 637 109 q 656 0 646 36 l 572 0 m 305 58 q 460 99 393 58 q 557 203 527 140 l 557 357 l 393 357 q 217 310 283 357 q 151 193 151 262 q 192 95 151 133 q 305 58 233 58 m 416 841 l 336 841 l 173 1018 l 174 1021 l 279 1021 l 416 841 z "},"á":{"ha":747,"x_min":70,"x_max":656,"o":"m 572 0 q 560 64 564 37 q 557 119 557 92 q 448 24 516 62 q 296 -14 380 -14 q 129 43 189 -14 q 70 195 70 100 q 158 358 70 297 q 395 419 245 419 l 557 419 l 557 510 q 506 633 557 589 q 365 678 456 678 q 224 635 280 678 q 168 531 168 593 l 94 532 l 92 536 q 167 683 88 618 q 368 747 246 747 q 564 686 490 747 q 637 509 637 624 l 637 148 q 642 73 637 109 q 656 0 646 36 l 572 0 m 305 58 q 460 99 393 58 q 557 203 527 140 l 557 357 l 393 357 q 217 310 283 357 q 151 193 151 262 q 192 95 151 133 q 305 58 233 58 m 458 1019 l 557 1019 l 559 1015 l 391 838 l 317 838 l 458 1019 z "},"â":{"ha":747,"x_min":70,"x_max":656,"o":"m 572 0 q 560 64 564 37 q 557 119 557 92 q 448 24 516 62 q 296 -14 380 -14 q 129 43 189 -14 q 70 195 70 100 q 158 358 70 297 q 395 419 245 419 l 557 419 l 557 510 q 506 633 557 589 q 365 678 456 678 q 224 635 280 678 q 168 531 168 593 l 94 532 l 92 536 q 167 683 88 618 q 368 747 246 747 q 564 686 490 747 q 637 509 637 624 l 637 148 q 642 73 637 109 q 656 0 646 36 l 572 0 m 305 58 q 460 99 393 58 q 557 203 527 140 l 557 357 l 393 357 q 217 310 283 357 q 151 193 151 262 q 192 95 151 133 q 305 58 233 58 m 557 880 l 557 868 l 481 868 l 368 982 l 256 868 l 181 868 l 181 882 l 335 1032 l 401 1032 l 557 880 z "},"ã":{"ha":747,"x_min":70,"x_max":656,"o":"m 572 0 q 560 64 564 37 q 557 119 557 92 q 448 24 516 62 q 296 -14 380 -14 q 129 43 189 -14 q 70 195 70 100 q 158 358 70 297 q 395 419 245 419 l 557 419 l 557 510 q 506 633 557 589 q 365 678 456 678 q 224 635 280 678 q 168 531 168 593 l 94 532 l 92 536 q 167 683 88 618 q 368 747 246 747 q 564 686 490 747 q 637 509 637 624 l 637 148 q 642 73 637 109 q 656 0 646 36 l 572 0 m 305 58 q 460 99 393 58 q 557 203 527 140 l 557 357 l 393 357 q 217 310 283 357 q 151 193 151 262 q 192 95 151 133 q 305 58 233 58 m 585 1018 q 548 919 585 958 q 455 880 511 880 q 353 917 405 880 q 264 954 300 954 q 210 930 232 954 q 189 870 189 907 l 134 882 q 171 980 134 941 q 264 1020 208 1020 q 363 983 308 1020 q 455 945 419 945 q 509 970 486 945 q 531 1031 531 994 l 585 1018 z "},"ä":{"ha":747,"x_min":70,"x_max":656,"o":"m 572 0 q 560 64 564 37 q 557 119 557 92 q 448 24 516 62 q 296 -14 380 -14 q 129 43 189 -14 q 70 195 70 100 q 158 358 70 297 q 395 419 245 419 l 557 419 l 557 510 q 506 633 557 589 q 365 678 456 678 q 224 635 280 678 q 168 531 168 593 l 94 532 l 92 536 q 167 683 88 618 q 368 747 246 747 q 564 686 490 747 q 637 509 637 624 l 637 148 q 642 73 637 109 q 656 0 646 36 l 572 0 m 305 58 q 460 99 393 58 q 557 203 527 140 l 557 357 l 393 357 q 217 310 283 357 q 151 193 151 262 q 192 95 151 133 q 305 58 233 58 m 589 895 l 472 895 l 472 1002 l 589 1002 l 589 895 m 271 895 l 153 895 l 153 1002 l 271 1002 l 271 895 z "},"å":{"ha":747,"x_min":70,"x_max":656,"o":"m 572 0 q 560 64 564 37 q 557 119 557 92 q 448 24 516 62 q 296 -14 380 -14 q 129 43 189 -14 q 70 195 70 100 q 158 358 70 297 q 395 419 245 419 l 557 419 l 557 510 q 506 633 557 589 q 365 678 456 678 q 224 635 280 678 q 168 531 168 593 l 94 532 l 92 536 q 167 683 88 618 q 368 747 246 747 q 564 686 490 747 q 637 509 637 624 l 637 148 q 642 73 637 109 q 656 0 646 36 l 572 0 m 305 58 q 460 99 393 58 q 557 203 527 140 l 557 357 l 393 357 q 217 310 283 357 q 151 193 151 262 q 192 95 151 133 q 305 58 233 58 m 252 956 q 286 1035 252 1002 q 367 1068 319 1068 q 446 1035 413 1068 q 479 956 479 1002 q 447 876 479 907 q 367 845 414 845 q 286 876 319 845 q 252 956 252 907 m 305 956 q 323 911 305 929 q 367 894 341 894 q 409 911 392 894 q 427 956 427 928 q 409 1001 427 983 q 367 1019 392 1019 q 323 1000 341 1019 q 305 956 305 982 z "},"ǻ":{"ha":747,"x_min":70,"x_max":656,"o":"m 572 0 q 560 64 564 37 q 557 119 557 92 q 448 24 516 62 q 296 -14 380 -14 q 129 43 189 -14 q 70 195 70 100 q 158 358 70 297 q 395 419 245 419 l 557 419 l 557 510 q 506 633 557 589 q 365 678 456 678 q 224 635 280 678 q 168 531 168 593 l 94 532 l 92 536 q 167 683 88 618 q 368 747 246 747 q 564 686 490 747 q 637 509 637 624 l 637 148 q 642 73 637 109 q 656 0 646 36 l 572 0 m 305 58 q 460 99 393 58 q 557 203 527 140 l 557 357 l 393 357 q 217 310 283 357 q 151 193 151 262 q 192 95 151 133 q 305 58 233 58 m 454 1195 l 541 1195 l 543 1191 l 410 1057 l 345 1057 l 454 1195 m 264 917 q 295 991 264 961 q 369 1021 326 1021 q 442 991 412 1021 q 472 917 472 961 q 442 844 472 873 q 369 815 412 815 q 295 844 326 815 q 264 917 264 873 m 310 917 q 327 876 310 892 q 369 859 345 859 q 410 875 393 859 q 427 917 427 892 q 410 960 427 943 q 369 978 393 978 q 327 960 345 978 q 310 917 310 943 z "},"ç":{"ha":720,"x_min":66,"x_max":660,"o":"m 379 54 q 522 100 460 54 q 583 229 583 146 l 655 229 l 656 224 q 575 54 660 123 q 379 -14 490 -14 q 148 89 229 -14 q 66 353 66 191 l 66 381 q 148 644 66 541 q 378 747 230 747 q 579 676 499 747 q 657 489 660 605 l 656 485 l 583 485 q 524 626 583 573 q 378 678 465 678 q 204 594 260 678 q 147 381 147 509 l 147 353 q 203 138 147 222 q 379 54 260 54 m 401 -5 l 393 -49 q 480 -82 447 -55 q 513 -165 513 -109 q 459 -263 513 -227 q 306 -300 406 -300 l 301 -248 q 404 -227 362 -248 q 446 -166 446 -206 q 417 -112 446 -127 q 319 -92 389 -97 l 338 -5 l 401 -5 z "},"è":{"ha":715,"x_min":62,"x_max":662,"o":"m 382 -14 q 154 87 245 -14 q 62 345 62 189 l 62 382 q 153 644 62 540 q 372 747 243 747 q 585 662 507 747 q 662 434 662 576 l 662 365 l 144 365 l 144 345 q 210 138 144 221 q 382 54 275 54 q 512 75 458 54 q 604 136 566 96 l 638 80 q 533 11 597 37 q 382 -14 470 -14 m 372 678 q 221 609 282 678 q 150 437 160 541 l 151 433 l 581 433 l 581 454 q 525 614 581 549 q 372 678 469 678 m 429 841 l 349 841 l 186 1018 l 187 1021 l 292 1021 l 429 841 z "},"é":{"ha":715,"x_min":62,"x_max":662,"o":"m 382 -14 q 154 87 245 -14 q 62 345 62 189 l 62 382 q 153 644 62 540 q 372 747 243 747 q 585 662 507 747 q 662 434 662 576 l 662 365 l 144 365 l 144 345 q 210 138 144 221 q 382 54 275 54 q 512 75 458 54 q 604 136 566 96 l 638 80 q 533 11 597 37 q 382 -14 470 -14 m 372 678 q 221 609 282 678 q 150 437 160 541 l 151 433 l 581 433 l 581 454 q 525 614 581 549 q 372 678 469 678 m 471 1019 l 570 1019 l 572 1015 l 404 838 l 330 838 l 471 1019 z "},"ê":{"ha":715,"x_min":62,"x_max":662,"o":"m 382 -14 q 154 87 245 -14 q 62 345 62 189 l 62 382 q 153 644 62 540 q 372 747 243 747 q 585 662 507 747 q 662 434 662 576 l 662 365 l 144 365 l 144 345 q 210 138 144 221 q 382 54 275 54 q 512 75 458 54 q 604 136 566 96 l 638 80 q 533 11 597 37 q 382 -14 470 -14 m 372 678 q 221 609 282 678 q 150 437 160 541 l 151 433 l 581 433 l 581 454 q 525 614 581 549 q 372 678 469 678 m 570 880 l 570 868 l 494 868 l 381 982 l 269 868 l 194 868 l 194 882 l 348 1032 l 414 1032 l 570 880 z "},"ë":{"ha":715,"x_min":62,"x_max":662,"o":"m 382 -14 q 154 87 245 -14 q 62 345 62 189 l 62 382 q 153 644 62 540 q 372 747 243 747 q 585 662 507 747 q 662 434 662 576 l 662 365 l 144 365 l 144 345 q 210 138 144 221 q 382 54 275 54 q 512 75 458 54 q 604 136 566 96 l 638 80 q 533 11 597 37 q 382 -14 470 -14 m 372 678 q 221 609 282 678 q 150 437 160 541 l 151 433 l 581 433 l 581 454 q 525 614 581 549 q 372 678 469 678 m 602 895 l 485 895 l 485 1002 l 602 1002 l 602 895 m 284 895 l 166 895 l 166 1002 l 284 1002 l 284 895 z "},"ì":{"ha":309,"x_min":-39,"x_max":203,"o":"m 195 0 l 114 0 l 114 734 l 195 734 l 195 0 m 203 826 l 124 826 l -39 1003 l -38 1006 l 66 1006 l 203 826 z "},"í":{"ha":309,"x_min":104,"x_max":346,"o":"m 195 0 l 114 0 l 114 734 l 195 734 l 195 0 m 244 1004 l 344 1004 l 346 1000 l 177 823 l 104 823 l 244 1004 z "},"î":{"ha":309,"x_min":-31,"x_max":345,"o":"m 195 0 l 114 0 l 114 734 l 195 734 l 195 0 m 345 865 l 345 853 l 269 853 l 156 967 l 43 853 l -31 853 l -31 867 l 123 1017 l 189 1017 l 345 865 z "},"ï":{"ha":309,"x_min":-59,"x_max":377,"o":"m 195 0 l 114 0 l 114 734 l 195 734 l 195 0 m 377 881 l 260 881 l 260 987 l 377 987 l 377 881 m 59 881 l -59 881 l -59 987 l 59 987 l 59 881 z "},"ñ":{"ha":773,"x_min":107,"x_max":668,"o":"m 179 734 l 186 606 q 282 710 222 673 q 424 747 342 747 q 606 674 543 747 q 668 447 668 602 l 668 0 l 587 0 l 587 446 q 539 625 587 572 q 406 677 492 677 q 266 632 320 677 q 189 512 212 587 l 189 0 l 107 0 l 107 734 l 179 734 m 609 1017 q 572 918 609 958 q 479 879 534 879 q 376 916 429 879 q 288 954 324 954 q 234 930 256 954 q 212 869 212 906 l 158 882 q 195 980 158 940 q 288 1019 231 1019 q 387 982 332 1019 q 479 945 443 945 q 532 969 510 945 q 555 1031 555 994 l 609 1017 z "},"ò":{"ha":773,"x_min":62,"x_max":711,"o":"m 62 378 q 151 644 62 540 q 386 747 239 747 q 622 644 533 747 q 711 378 711 540 l 711 355 q 622 89 711 193 q 387 -14 534 -14 q 151 89 239 -14 q 62 355 62 193 l 62 378 m 143 355 q 208 141 143 228 q 387 54 272 54 q 565 141 500 54 q 630 355 630 228 l 630 378 q 565 591 630 503 q 386 678 500 678 q 208 591 272 678 q 143 378 143 503 l 143 355 m 442 840 l 363 840 l 199 1017 l 201 1021 l 305 1021 l 442 840 z "},"ó":{"ha":773,"x_min":62,"x_max":711,"o":"m 62 378 q 151 644 62 540 q 386 747 239 747 q 622 644 533 747 q 711 378 711 540 l 711 355 q 622 89 711 193 q 387 -14 534 -14 q 151 89 239 -14 q 62 355 62 193 l 62 378 m 143 355 q 208 141 143 228 q 387 54 272 54 q 565 141 500 54 q 630 355 630 228 l 630 378 q 565 591 630 503 q 386 678 500 678 q 208 591 272 678 q 143 378 143 503 l 143 355 m 484 1018 l 584 1018 l 586 1014 l 417 838 l 344 838 l 484 1018 z "},"ô":{"ha":773,"x_min":62,"x_max":711,"o":"m 62 378 q 151 644 62 540 q 386 747 239 747 q 622 644 533 747 q 711 378 711 540 l 711 355 q 622 89 711 193 q 387 -14 534 -14 q 151 89 239 -14 q 62 355 62 193 l 62 378 m 143 355 q 208 141 143 228 q 387 54 272 54 q 565 141 500 54 q 630 355 630 228 l 630 378 q 565 591 630 503 q 386 678 500 678 q 208 591 272 678 q 143 378 143 503 l 143 355 m 584 880 l 584 867 l 508 867 l 395 981 l 282 867 l 208 867 l 208 882 l 361 1031 l 428 1031 l 584 880 z "},"õ":{"ha":773,"x_min":62,"x_max":711,"o":"m 62 378 q 151 644 62 540 q 386 747 239 747 q 622 644 533 747 q 711 378 711 540 l 711 355 q 622 89 711 193 q 387 -14 534 -14 q 151 89 239 -14 q 62 355 62 193 l 62 378 m 143 355 q 208 141 143 228 q 387 54 272 54 q 565 141 500 54 q 630 355 630 228 l 630 378 q 565 591 630 503 q 386 678 500 678 q 208 591 272 678 q 143 378 143 503 l 143 355 m 612 1017 q 574 918 612 958 q 481 879 537 879 q 379 916 431 879 q 290 954 327 954 q 237 930 258 954 q 215 869 215 906 l 161 882 q 197 980 161 940 q 290 1019 234 1019 q 390 982 334 1019 q 481 945 446 945 q 535 969 513 945 q 557 1031 557 994 l 612 1017 z "},"ö":{"ha":773,"x_min":62,"x_max":711,"o":"m 62 378 q 151 644 62 540 q 386 747 239 747 q 622 644 533 747 q 711 378 711 540 l 711 355 q 622 89 711 193 q 387 -14 534 -14 q 151 89 239 -14 q 62 355 62 193 l 62 378 m 143 355 q 208 141 143 228 q 387 54 272 54 q 565 141 500 54 q 630 355 630 228 l 630 378 q 565 591 630 503 q 386 678 500 678 q 208 591 272 678 q 143 378 143 503 l 143 355 m 616 895 l 498 895 l 498 1001 l 616 1001 l 616 895 m 298 895 l 180 895 l 180 1001 l 298 1001 l 298 895 z "},"ù":{"ha":773,"x_min":104,"x_max":667,"o":"m 588 120 q 493 21 553 56 q 352 -14 433 -14 q 170 64 236 -14 q 104 309 104 143 l 104 734 l 186 734 l 186 307 q 232 115 186 173 q 361 56 277 56 q 509 98 454 56 q 585 212 564 139 l 585 734 l 667 734 l 667 0 l 595 0 l 588 120 m 441 826 l 361 826 l 198 1003 l 199 1006 l 304 1006 l 441 826 z "},"ú":{"ha":773,"x_min":104,"x_max":667,"o":"m 588 120 q 493 21 553 56 q 352 -14 433 -14 q 170 64 236 -14 q 104 309 104 143 l 104 734 l 186 734 l 186 307 q 232 115 186 173 q 361 56 277 56 q 509 98 454 56 q 585 212 564 139 l 585 734 l 667 734 l 667 0 l 595 0 l 588 120 m 483 1004 l 583 1004 l 585 1000 l 416 823 l 342 823 l 483 1004 z "},"û":{"ha":773,"x_min":104,"x_max":667,"o":"m 588 120 q 493 21 553 56 q 352 -14 433 -14 q 170 64 236 -14 q 104 309 104 143 l 104 734 l 186 734 l 186 307 q 232 115 186 173 q 361 56 277 56 q 509 98 454 56 q 585 212 564 139 l 585 734 l 667 734 l 667 0 l 595 0 l 588 120 m 583 865 l 583 853 l 507 853 l 393 967 l 281 853 l 206 853 l 206 867 l 360 1017 l 427 1017 l 583 865 z "},"ü":{"ha":773,"x_min":104,"x_max":667,"o":"m 588 120 q 493 21 553 56 q 352 -14 433 -14 q 170 64 236 -14 q 104 309 104 143 l 104 734 l 186 734 l 186 307 q 232 115 186 173 q 361 56 277 56 q 509 98 454 56 q 585 212 564 139 l 585 734 l 667 734 l 667 0 l 595 0 l 588 120 m 614 881 l 497 881 l 497 987 l 614 987 l 614 881 m 296 881 l 178 881 l 178 987 l 296 987 l 296 881 z "},"ý":{"ha":680,"x_min":24,"x_max":658,"o":"m 315 199 l 341 111 l 345 111 l 567 734 l 658 734 l 339 -117 q 265 -244 311 -192 q 132 -296 220 -296 q 98 -293 118 -296 q 68 -287 77 -290 l 77 -219 q 103 -222 85 -220 q 130 -224 121 -224 q 214 -186 182 -224 q 269 -90 246 -149 l 307 9 l 24 734 l 114 734 l 315 199 m 438 1004 l 538 1004 l 540 1000 l 371 823 l 298 823 l 438 1004 z "},"ÿ":{"ha":680,"x_min":24,"x_max":658,"o":"m 315 199 l 341 111 l 345 111 l 567 734 l 658 734 l 339 -117 q 265 -244 311 -192 q 132 -296 220 -296 q 98 -293 118 -296 q 68 -287 77 -290 l 77 -219 q 103 -222 85 -220 q 130 -224 121 -224 q 214 -186 182 -224 q 269 -90 246 -149 l 307 9 l 24 734 l 114 734 l 315 199 m 570 881 l 452 881 l 452 987 l 570 987 l 570 881 m 252 881 l 134 881 l 134 987 l 252 987 l 252 881 z "},"Ā":{"ha":867,"x_min":22,"x_max":846,"o":"m 660 275 l 208 275 l 106 0 l 22 0 l 397 987 l 473 987 l 846 0 l 762 0 l 660 275 m 235 348 l 633 348 l 437 882 l 433 882 l 235 348 m 672 1145 l 218 1145 l 218 1211 l 672 1211 l 672 1145 z "},"ā":{"ha":747,"x_min":70,"x_max":656,"o":"m 572 0 q 560 64 564 37 q 557 119 557 92 q 448 24 516 62 q 296 -14 380 -14 q 129 43 189 -14 q 70 195 70 100 q 158 358 70 297 q 395 419 245 419 l 557 419 l 557 510 q 506 633 557 589 q 365 678 456 678 q 224 635 280 678 q 168 531 168 593 l 94 532 l 92 536 q 167 683 88 618 q 368 747 246 747 q 564 686 490 747 q 637 509 637 624 l 637 148 q 642 73 637 109 q 656 0 646 36 l 572 0 m 305 58 q 460 99 393 58 q 557 203 527 140 l 557 357 l 393 357 q 217 310 283 357 q 151 193 151 262 q 192 95 151 133 q 305 58 233 58 m 594 928 l 140 928 l 140 994 l 594 994 l 594 928 z "},"Ă":{"ha":867,"x_min":22,"x_max":846,"o":"m 660 275 l 208 275 l 106 0 l 22 0 l 397 987 l 473 987 l 846 0 l 762 0 l 660 275 m 235 348 l 633 348 l 437 882 l 433 882 l 235 348 m 637 1257 l 638 1253 q 589 1130 641 1177 q 446 1082 536 1082 q 303 1130 356 1082 q 254 1253 251 1178 l 256 1257 l 319 1257 q 350 1173 319 1205 q 446 1141 380 1141 q 542 1174 510 1141 q 573 1257 573 1206 l 637 1257 z "},"ă":{"ha":747,"x_min":70,"x_max":656,"o":"m 572 0 q 560 64 564 37 q 557 119 557 92 q 448 24 516 62 q 296 -14 380 -14 q 129 43 189 -14 q 70 195 70 100 q 158 358 70 297 q 395 419 245 419 l 557 419 l 557 510 q 506 633 557 589 q 365 678 456 678 q 224 635 280 678 q 168 531 168 593 l 94 532 l 92 536 q 167 683 88 618 q 368 747 246 747 q 564 686 490 747 q 637 509 637 624 l 637 148 q 642 73 637 109 q 656 0 646 36 l 572 0 m 305 58 q 460 99 393 58 q 557 203 527 140 l 557 357 l 393 357 q 217 310 283 357 q 151 193 151 262 q 192 95 151 133 q 305 58 233 58 m 559 1040 l 560 1036 q 511 912 563 960 q 368 865 458 865 q 225 912 278 865 q 176 1036 173 960 l 178 1040 l 241 1040 q 272 956 241 987 q 368 924 302 924 q 464 956 432 924 q 495 1040 495 989 l 559 1040 z "},"Ą":{"ha":867,"x_min":22,"x_max":882,"o":"m 660 275 l 208 275 l 106 0 l 22 0 l 397 987 l 473 987 l 846 0 l 762 0 l 660 275 m 235 348 l 633 348 l 437 882 l 433 882 l 235 348 m 835 0 q 760 -73 786 -41 q 734 -144 734 -106 q 747 -183 734 -165 q 795 -201 760 -201 q 833 -195 817 -201 q 866 -180 850 -189 l 882 -236 q 837 -257 862 -249 q 779 -266 812 -266 q 694 -236 728 -266 q 661 -151 661 -205 q 696 -57 661 -103 q 793 25 730 -11 l 835 0 z "},"ą":{"ha":747,"x_min":70,"x_max":693,"o":"m 572 0 q 560 64 564 37 q 557 119 557 92 q 448 24 516 62 q 296 -14 380 -14 q 129 43 189 -14 q 70 195 70 100 q 158 358 70 297 q 395 419 245 419 l 557 419 l 557 510 q 506 633 557 589 q 365 678 456 678 q 224 635 280 678 q 168 531 168 593 l 94 532 l 92 536 q 167 683 88 618 q 368 747 246 747 q 564 686 490 747 q 637 509 637 624 l 637 148 q 642 73 637 109 q 656 0 646 36 l 572 0 m 305 58 q 460 99 393 58 q 557 203 527 140 l 557 357 l 393 357 q 217 310 283 357 q 151 193 151 262 q 192 95 151 133 q 305 58 233 58 m 646 0 q 571 -73 597 -41 q 545 -144 545 -106 q 558 -183 545 -165 q 606 -201 571 -201 q 644 -195 627 -201 q 677 -180 661 -189 l 693 -236 q 648 -257 673 -249 q 590 -266 623 -266 q 505 -236 538 -266 q 472 -151 472 -205 q 507 -57 472 -103 q 604 25 541 -11 l 646 0 z "},"Ć":{"ha":890,"x_min":90,"x_max":811,"o":"m 810 309 l 811 304 q 705 71 798 156 q 456 -14 612 -14 q 191 105 292 -14 q 90 413 90 224 l 90 574 q 191 882 90 762 q 456 1002 292 1002 q 706 918 614 1002 q 811 684 798 835 l 810 680 l 734 680 q 649 867 718 802 q 456 932 581 932 q 249 832 327 932 q 170 575 170 732 l 170 413 q 249 154 170 254 q 456 54 327 54 q 650 118 581 54 q 734 309 718 182 l 810 309 m 549 1251 l 649 1251 l 651 1246 l 482 1070 l 409 1070 l 549 1251 z "},"ć":{"ha":720,"x_min":66,"x_max":660,"o":"m 379 54 q 522 100 460 54 q 583 229 583 146 l 655 229 l 656 224 q 575 54 660 123 q 379 -14 490 -14 q 148 89 229 -14 q 66 353 66 191 l 66 381 q 148 644 66 541 q 378 747 230 747 q 579 676 499 747 q 657 489 660 605 l 656 485 l 583 485 q 524 626 583 573 q 378 678 465 678 q 204 594 260 678 q 147 381 147 509 l 147 353 q 203 138 147 222 q 379 54 260 54 m 457 1018 l 557 1018 l 559 1014 l 390 838 l 317 838 l 457 1018 z "},"Ĉ":{"ha":890,"x_min":90,"x_max":811,"o":"m 810 309 l 811 304 q 705 71 798 156 q 456 -14 612 -14 q 191 105 292 -14 q 90 413 90 224 l 90 574 q 191 882 90 762 q 456 1002 292 1002 q 706 918 614 1002 q 811 684 798 835 l 810 680 l 734 680 q 649 867 718 802 q 456 932 581 932 q 249 832 327 932 q 170 575 170 732 l 170 413 q 249 154 170 254 q 456 54 327 54 q 650 118 581 54 q 734 309 718 182 l 810 309 m 649 1112 l 649 1100 l 573 1100 l 460 1214 l 347 1100 l 273 1100 l 273 1114 l 427 1264 l 493 1264 l 649 1112 z "},"ĉ":{"ha":720,"x_min":66,"x_max":660,"o":"m 379 54 q 522 100 460 54 q 583 229 583 146 l 655 229 l 656 224 q 575 54 660 123 q 379 -14 490 -14 q 148 89 229 -14 q 66 353 66 191 l 66 381 q 148 644 66 541 q 378 747 230 747 q 579 676 499 747 q 657 489 660 605 l 656 485 l 583 485 q 524 626 583 573 q 378 678 465 678 q 204 594 260 678 q 147 381 147 509 l 147 353 q 203 138 147 222 q 379 54 260 54 m 557 880 l 557 867 l 481 867 l 368 981 l 255 867 l 180 867 l 180 882 l 334 1031 l 401 1031 l 557 880 z "},"Ċ":{"ha":890,"x_min":90,"x_max":811,"o":"m 810 309 l 811 304 q 705 71 798 156 q 456 -14 612 -14 q 191 105 292 -14 q 90 413 90 224 l 90 574 q 191 882 90 762 q 456 1002 292 1002 q 706 918 614 1002 q 811 684 798 835 l 810 680 l 734 680 q 649 867 718 802 q 456 932 581 932 q 249 832 327 932 q 170 575 170 732 l 170 413 q 249 154 170 254 q 456 54 327 54 q 650 118 581 54 q 734 309 718 182 l 810 309 m 510 1124 l 408 1124 l 408 1238 l 510 1238 l 510 1124 z "},"ċ":{"ha":720,"x_min":66,"x_max":660,"o":"m 379 54 q 522 100 460 54 q 583 229 583 146 l 655 229 l 656 224 q 575 54 660 123 q 379 -14 490 -14 q 148 89 229 -14 q 66 353 66 191 l 66 381 q 148 644 66 541 q 378 747 230 747 q 579 676 499 747 q 657 489 660 605 l 656 485 l 583 485 q 524 626 583 573 q 378 678 465 678 q 204 594 260 678 q 147 381 147 509 l 147 353 q 203 138 147 222 q 379 54 260 54 m 418 892 l 315 892 l 315 1006 l 418 1006 l 418 892 z "},"Č":{"ha":890,"x_min":90,"x_max":811,"o":"m 810 309 l 811 304 q 705 71 798 156 q 456 -14 612 -14 q 191 105 292 -14 q 90 413 90 224 l 90 574 q 191 882 90 762 q 456 1002 292 1002 q 706 918 614 1002 q 811 684 798 835 l 810 680 l 734 680 q 649 867 718 802 q 456 932 581 932 q 249 832 327 932 q 170 575 170 732 l 170 413 q 249 154 170 254 q 456 54 327 54 q 650 118 581 54 q 734 309 718 182 l 810 309 m 459 1151 l 572 1265 l 650 1265 l 650 1254 l 492 1101 l 426 1101 l 269 1254 l 269 1265 l 346 1265 l 459 1151 z "},"č":{"ha":720,"x_min":66,"x_max":660,"o":"m 379 54 q 522 100 460 54 q 583 229 583 146 l 655 229 l 656 224 q 575 54 660 123 q 379 -14 490 -14 q 148 89 229 -14 q 66 353 66 191 l 66 381 q 148 644 66 541 q 378 747 230 747 q 579 676 499 747 q 657 489 660 605 l 656 485 l 583 485 q 524 626 583 573 q 378 678 465 678 q 204 594 260 678 q 147 381 147 509 l 147 353 q 203 138 147 222 q 379 54 260 54 m 367 918 l 479 1033 l 557 1033 l 557 1021 l 399 869 l 334 869 l 176 1021 l 176 1033 l 254 1033 l 367 918 z "},"Ď":{"ha":911,"x_min":130,"x_max":833,"o":"m 130 0 l 130 987 l 416 987 q 715 867 597 987 q 833 557 833 746 l 833 430 q 715 120 833 240 q 416 0 597 0 l 130 0 m 210 918 l 210 68 l 416 68 q 657 171 563 68 q 752 430 752 273 l 752 559 q 657 816 752 713 q 416 918 562 918 l 210 918 m 408 1137 l 521 1251 l 599 1251 l 599 1240 l 441 1087 l 375 1087 l 218 1240 l 218 1251 l 295 1251 l 408 1137 z "},"ď":{"ha":875,"x_min":75,"x_max":854,"o":"m 75 361 q 150 642 75 536 q 357 747 224 747 q 490 715 433 747 q 583 623 546 682 l 583 1058 l 664 1058 l 664 0 l 592 0 l 585 106 q 491 17 549 48 q 355 -14 433 -14 q 150 84 224 -14 q 75 347 75 182 l 75 361 m 157 347 q 210 135 157 214 q 370 56 263 56 q 502 92 449 56 q 583 189 554 127 l 583 534 q 505 637 555 597 q 372 677 454 677 q 211 589 264 677 q 157 361 157 501 l 157 347 m 854 975 l 798 833 l 750 833 l 785 976 l 785 1057 l 854 1057 l 854 975 z "},"Ē":{"ha":800,"x_min":130,"x_max":755,"o":"m 686 478 l 210 478 l 210 68 l 755 68 l 755 0 l 130 0 l 130 987 l 751 987 l 751 918 l 210 918 l 210 547 l 686 547 l 686 478 m 648 1145 l 194 1145 l 194 1211 l 648 1211 l 648 1145 z "},"ē":{"ha":715,"x_min":62,"x_max":662,"o":"m 382 -14 q 154 87 245 -14 q 62 345 62 189 l 62 382 q 153 644 62 540 q 372 747 243 747 q 585 662 507 747 q 662 434 662 576 l 662 365 l 144 365 l 144 345 q 210 138 144 221 q 382 54 275 54 q 512 75 458 54 q 604 136 566 96 l 638 80 q 533 11 597 37 q 382 -14 470 -14 m 372 678 q 221 609 282 678 q 150 437 160 541 l 151 433 l 581 433 l 581 454 q 525 614 581 549 q 372 678 469 678 m 607 928 l 153 928 l 153 994 l 607 994 l 607 928 z "},"Ĕ":{"ha":800,"x_min":130,"x_max":755,"o":"m 686 478 l 210 478 l 210 68 l 755 68 l 755 0 l 130 0 l 130 987 l 751 987 l 751 918 l 210 918 l 210 547 l 686 547 l 686 478 m 613 1257 l 614 1253 q 565 1130 617 1177 q 422 1082 513 1082 q 280 1130 332 1082 q 231 1253 227 1178 l 232 1257 l 296 1257 q 326 1173 296 1205 q 422 1141 357 1141 q 518 1174 486 1141 q 549 1257 549 1206 l 613 1257 z "},"ĕ":{"ha":715,"x_min":62,"x_max":662,"o":"m 382 -14 q 154 87 245 -14 q 62 345 62 189 l 62 382 q 153 644 62 540 q 372 747 243 747 q 585 662 507 747 q 662 434 662 576 l 662 365 l 144 365 l 144 345 q 210 138 144 221 q 382 54 275 54 q 512 75 458 54 q 604 136 566 96 l 638 80 q 533 11 597 37 q 382 -14 470 -14 m 372 678 q 221 609 282 678 q 150 437 160 541 l 151 433 l 581 433 l 581 454 q 525 614 581 549 q 372 678 469 678 m 572 1040 l 573 1036 q 524 912 576 960 q 381 865 471 865 q 238 912 291 865 q 189 1036 186 960 l 191 1040 l 254 1040 q 285 956 254 987 q 381 924 315 924 q 476 956 445 924 q 508 1040 508 989 l 572 1040 z "},"Ė":{"ha":800,"x_min":130,"x_max":755,"o":"m 686 478 l 210 478 l 210 68 l 755 68 l 755 0 l 130 0 l 130 987 l 751 987 l 751 918 l 210 918 l 210 547 l 686 547 l 686 478 m 473 1110 l 370 1110 l 370 1224 l 473 1224 l 473 1110 z "},"ė":{"ha":715,"x_min":62,"x_max":662,"o":"m 382 -14 q 154 87 245 -14 q 62 345 62 189 l 62 382 q 153 644 62 540 q 372 747 243 747 q 585 662 507 747 q 662 434 662 576 l 662 365 l 144 365 l 144 345 q 210 138 144 221 q 382 54 275 54 q 512 75 458 54 q 604 136 566 96 l 638 80 q 533 11 597 37 q 382 -14 470 -14 m 372 678 q 221 609 282 678 q 150 437 160 541 l 151 433 l 581 433 l 581 454 q 525 614 581 549 q 372 678 469 678 m 431 892 l 329 892 l 329 1006 l 431 1006 l 431 892 z "},"Ę":{"ha":800,"x_min":130,"x_max":755,"o":"m 686 478 l 210 478 l 210 68 l 755 68 l 755 0 l 130 0 l 130 987 l 751 987 l 751 918 l 210 918 l 210 547 l 686 547 l 686 478 m 463 0 q 389 -73 414 -41 q 363 -144 363 -106 q 376 -183 363 -165 q 423 -201 389 -201 q 461 -195 445 -201 q 494 -180 478 -189 l 511 -236 q 466 -257 490 -249 q 408 -266 441 -266 q 323 -236 356 -266 q 290 -151 290 -205 q 324 -57 290 -103 q 422 25 359 -11 l 463 0 z "},"ę":{"ha":715,"x_min":62,"x_max":662,"o":"m 382 -14 q 154 87 245 -14 q 62 345 62 189 l 62 382 q 153 644 62 540 q 372 747 243 747 q 585 662 507 747 q 662 434 662 576 l 662 365 l 144 365 l 144 345 q 210 138 144 221 q 382 54 275 54 q 512 75 458 54 q 604 136 566 96 l 638 80 q 533 11 597 37 q 382 -14 470 -14 m 372 678 q 221 609 282 678 q 150 437 160 541 l 151 433 l 581 433 l 581 454 q 525 614 581 549 q 372 678 469 678 m 576 41 q 501 -33 527 0 q 475 -103 475 -65 q 488 -142 475 -124 q 536 -161 501 -161 q 574 -155 557 -161 q 607 -139 591 -149 l 623 -195 q 578 -217 603 -208 q 520 -225 553 -225 q 435 -195 469 -225 q 402 -111 402 -165 q 437 -16 402 -62 q 534 66 471 30 l 576 41 z "},"Ě":{"ha":800,"x_min":130,"x_max":755,"o":"m 686 478 l 210 478 l 210 68 l 755 68 l 755 0 l 130 0 l 130 987 l 751 987 l 751 918 l 210 918 l 210 547 l 686 547 l 686 478 m 422 1137 l 534 1251 l 612 1251 l 612 1240 l 454 1087 l 389 1087 l 231 1240 l 231 1251 l 309 1251 l 422 1137 z "},"ě":{"ha":715,"x_min":62,"x_max":662,"o":"m 382 -14 q 154 87 245 -14 q 62 345 62 189 l 62 382 q 153 644 62 540 q 372 747 243 747 q 585 662 507 747 q 662 434 662 576 l 662 365 l 144 365 l 144 345 q 210 138 144 221 q 382 54 275 54 q 512 75 458 54 q 604 136 566 96 l 638 80 q 533 11 597 37 q 382 -14 470 -14 m 372 678 q 221 609 282 678 q 150 437 160 541 l 151 433 l 581 433 l 581 454 q 525 614 581 549 q 372 678 469 678 m 380 919 l 493 1034 l 571 1034 l 571 1022 l 413 869 l 347 869 l 190 1022 l 190 1034 l 267 1034 l 380 919 z "},"Ĝ":{"ha":950,"x_min":99,"x_max":834,"o":"m 834 117 q 713 27 801 69 q 492 -14 625 -14 q 209 103 319 -14 q 99 407 99 220 l 99 588 q 204 886 99 771 q 475 1002 309 1002 q 725 922 635 1002 q 829 715 814 842 l 827 711 l 752 711 q 669 871 734 810 q 475 932 603 932 q 261 836 342 932 q 180 589 180 740 l 180 407 q 267 153 180 252 q 492 54 353 54 q 659 82 590 54 q 753 142 728 109 l 753 399 l 490 399 l 490 469 l 834 469 l 834 117 m 655 1112 l 655 1100 l 579 1100 l 466 1214 l 353 1100 l 279 1100 l 279 1114 l 433 1264 l 499 1264 l 655 1112 z "},"ĝ":{"ha":774,"x_min":75,"x_max":666,"o":"m 75 361 q 150 642 75 536 q 359 747 225 747 q 494 713 437 747 q 588 616 551 679 l 597 734 l 666 734 l 666 9 q 588 -214 666 -132 q 370 -296 509 -296 q 257 -283 317 -296 q 153 -248 197 -271 l 174 -180 q 265 -213 217 -201 q 368 -224 313 -224 q 530 -162 475 -224 q 585 9 585 -100 l 585 102 q 490 16 547 46 q 357 -14 433 -14 q 150 84 225 -14 q 75 347 75 182 l 75 361 m 157 347 q 211 135 157 214 q 372 56 265 56 q 504 92 451 56 q 585 191 556 128 l 585 532 q 507 636 558 595 q 374 677 456 677 q 212 589 267 677 q 157 361 157 500 l 157 347 m 572 880 l 572 867 l 496 867 l 383 981 l 271 867 l 196 867 l 196 882 l 350 1031 l 416 1031 l 572 880 z "},"Ğ":{"ha":950,"x_min":99,"x_max":834,"o":"m 834 117 q 713 27 801 69 q 492 -14 625 -14 q 209 103 319 -14 q 99 407 99 220 l 99 588 q 204 886 99 771 q 475 1002 309 1002 q 725 922 635 1002 q 829 715 814 842 l 827 711 l 752 711 q 669 871 734 810 q 475 932 603 932 q 261 836 342 932 q 180 589 180 740 l 180 407 q 267 153 180 252 q 492 54 353 54 q 659 82 590 54 q 753 142 728 109 l 753 399 l 490 399 l 490 469 l 834 469 l 834 117 m 656 1272 l 658 1267 q 608 1144 661 1192 q 466 1097 556 1097 q 323 1144 376 1097 q 274 1267 271 1192 l 275 1272 l 339 1272 q 370 1187 339 1219 q 466 1156 400 1156 q 561 1188 530 1156 q 593 1272 593 1221 l 656 1272 z "},"ğ":{"ha":774,"x_min":75,"x_max":666,"o":"m 75 361 q 150 642 75 536 q 359 747 225 747 q 494 713 437 747 q 588 616 551 679 l 597 734 l 666 734 l 666 9 q 588 -214 666 -132 q 370 -296 509 -296 q 257 -283 317 -296 q 153 -248 197 -271 l 174 -180 q 265 -213 217 -201 q 368 -224 313 -224 q 530 -162 475 -224 q 585 9 585 -100 l 585 102 q 490 16 547 46 q 357 -14 433 -14 q 150 84 225 -14 q 75 347 75 182 l 75 361 m 157 347 q 211 135 157 214 q 372 56 265 56 q 504 92 451 56 q 585 191 556 128 l 585 532 q 507 636 558 595 q 374 677 456 677 q 212 589 267 677 q 157 361 157 500 l 157 347 m 574 1039 l 575 1035 q 526 911 578 959 q 383 864 473 864 q 240 912 293 864 q 191 1035 188 960 l 193 1039 l 256 1039 q 287 955 256 987 q 383 923 317 923 q 478 956 447 923 q 510 1039 510 988 l 574 1039 z "},"Ġ":{"ha":950,"x_min":99,"x_max":834,"o":"m 834 117 q 713 27 801 69 q 492 -14 625 -14 q 209 103 319 -14 q 99 407 99 220 l 99 588 q 204 886 99 771 q 475 1002 309 1002 q 725 922 635 1002 q 829 715 814 842 l 827 711 l 752 711 q 669 871 734 810 q 475 932 603 932 q 261 836 342 932 q 180 589 180 740 l 180 407 q 267 153 180 252 q 492 54 353 54 q 659 82 590 54 q 753 142 728 109 l 753 399 l 490 399 l 490 469 l 834 469 l 834 117 m 516 1124 l 414 1124 l 414 1238 l 516 1238 l 516 1124 z "},"ġ":{"ha":774,"x_min":75,"x_max":666,"o":"m 75 361 q 150 642 75 536 q 359 747 225 747 q 494 713 437 747 q 588 616 551 679 l 597 734 l 666 734 l 666 9 q 588 -214 666 -132 q 370 -296 509 -296 q 257 -283 317 -296 q 153 -248 197 -271 l 174 -180 q 265 -213 217 -201 q 368 -224 313 -224 q 530 -162 475 -224 q 585 9 585 -100 l 585 102 q 490 16 547 46 q 357 -14 433 -14 q 150 84 225 -14 q 75 347 75 182 l 75 361 m 157 347 q 211 135 157 214 q 372 56 265 56 q 504 92 451 56 q 585 191 556 128 l 585 532 q 507 636 558 595 q 374 677 456 677 q 212 589 267 677 q 157 361 157 500 l 157 347 m 433 892 l 331 892 l 331 1006 l 433 1006 l 433 892 z "},"Ģ":{"ha":950,"x_min":99,"x_max":834,"o":"m 834 117 q 713 27 801 69 q 492 -14 625 -14 q 209 103 319 -14 q 99 407 99 220 l 99 588 q 204 886 99 771 q 475 1002 309 1002 q 725 922 635 1002 q 829 715 814 842 l 827 711 l 752 711 q 669 871 734 810 q 475 932 603 932 q 261 836 342 932 q 180 589 180 740 l 180 407 q 267 153 180 252 q 492 54 353 54 q 659 82 590 54 q 753 142 728 109 l 753 399 l 490 399 l 490 469 l 834 469 l 834 117 m 508 -175 l 452 -317 l 404 -317 l 439 -174 l 439 -92 l 508 -92 l 508 -175 z "},"ģ":{"ha":774,"x_min":75,"x_max":666,"o":"m 75 361 q 150 642 75 536 q 359 747 225 747 q 494 713 437 747 q 588 616 551 679 l 597 734 l 666 734 l 666 9 q 588 -214 666 -132 q 370 -296 509 -296 q 257 -283 317 -296 q 153 -248 197 -271 l 174 -180 q 265 -213 217 -201 q 368 -224 313 -224 q 530 -162 475 -224 q 585 9 585 -100 l 585 102 q 490 16 547 46 q 357 -14 433 -14 q 150 84 225 -14 q 75 347 75 182 l 75 361 m 157 347 q 211 135 157 214 q 372 56 265 56 q 504 92 451 56 q 585 191 556 128 l 585 532 q 507 636 558 595 q 374 677 456 677 q 212 589 267 677 q 157 361 157 500 l 157 347 m 340 950 l 399 1097 l 448 1097 l 421 949 l 421 857 l 340 857 l 340 950 z "},"Ĥ":{"ha":982,"x_min":130,"x_max":852,"o":"m 852 0 l 772 0 l 772 454 l 210 454 l 210 0 l 130 0 l 130 987 l 210 987 l 210 524 l 772 524 l 772 987 l 852 987 l 852 0 m 676 1098 l 676 1086 l 600 1086 l 487 1200 l 374 1086 l 300 1086 l 300 1100 l 454 1250 l 520 1250 l 676 1098 z "},"ĥ":{"ha":773,"x_min":107,"x_max":669,"o":"m 189 608 q 286 711 225 674 q 429 747 347 747 q 607 675 545 747 q 669 452 669 604 l 669 0 l 587 0 l 587 454 q 540 625 587 573 q 410 677 493 677 q 271 633 327 677 q 189 517 215 589 l 189 0 l 107 0 l 107 1058 l 189 1058 l 189 608 m 521 1097 l 521 1085 l 445 1085 l 332 1199 l 219 1085 l 144 1085 l 144 1099 l 298 1249 l 365 1249 l 521 1097 z "},"Ĩ":{"ha":376,"x_min":-45,"x_max":406,"o":"m 229 0 l 147 0 l 147 987 l 229 987 l 229 0 m 406 1236 q 369 1137 406 1176 q 276 1097 332 1097 q 174 1135 226 1097 q 85 1172 121 1172 q 31 1148 53 1172 q 9 1088 9 1124 l -45 1100 q -8 1198 -45 1158 q 85 1238 28 1238 q 184 1200 129 1238 q 276 1163 240 1163 q 330 1187 307 1163 q 352 1249 352 1212 l 406 1236 z "},"ĩ":{"ha":309,"x_min":-78,"x_max":373,"o":"m 195 0 l 114 0 l 114 734 l 195 734 l 195 0 m 373 1004 q 336 905 373 945 q 243 866 298 866 q 140 903 193 866 q 52 941 88 941 q -2 917 20 941 q -24 857 -24 893 l -78 869 q -41 967 -78 927 q 52 1006 -5 1006 q 151 969 96 1006 q 243 932 207 932 q 296 956 274 932 q 319 1018 319 981 l 373 1004 z "},"Ī":{"ha":376,"x_min":-39,"x_max":415,"o":"m 229 0 l 147 0 l 147 987 l 229 987 l 229 0 m 415 1145 l -39 1145 l -39 1211 l 415 1211 l 415 1145 z "},"ī":{"ha":309,"x_min":-73,"x_max":382,"o":"m 195 0 l 114 0 l 114 734 l 195 734 l 195 0 m 382 914 l -73 914 l -73 980 l 382 980 l 382 914 z "},"Ĭ":{"ha":376,"x_min":-6,"x_max":384,"o":"m 229 0 l 147 0 l 147 987 l 229 987 l 229 0 m 380 1257 l 381 1253 q 332 1130 384 1177 q 189 1082 279 1082 q 46 1130 99 1082 q -3 1253 -6 1178 l -1 1257 l 62 1257 q 93 1173 62 1205 q 189 1141 123 1141 q 284 1174 253 1141 q 316 1257 316 1206 l 380 1257 z "},"ĭ":{"ha":309,"x_min":-39,"x_max":351,"o":"m 195 0 l 114 0 l 114 734 l 195 734 l 195 0 m 347 1025 l 348 1021 q 298 897 351 945 q 156 850 246 850 q 13 898 66 850 q -36 1021 -39 945 l -35 1025 l 29 1025 q 60 941 29 972 q 156 909 90 909 q 251 941 220 909 q 283 1025 283 974 l 347 1025 z "},"Į":{"ha":376,"x_min":45,"x_max":267,"o":"m 229 0 l 147 0 l 147 987 l 229 987 l 229 0 m 219 0 q 144 -73 170 -41 q 119 -144 119 -106 q 132 -183 119 -165 q 179 -201 144 -201 q 217 -195 201 -201 q 250 -180 234 -189 l 267 -236 q 221 -257 246 -249 q 163 -266 197 -266 q 79 -236 112 -266 q 45 -151 45 -205 q 80 -57 45 -103 q 178 25 115 -11 l 219 0 z "},"į":{"ha":315,"x_min":15,"x_max":236,"o":"m 198 0 l 117 0 l 117 734 l 198 734 l 198 0 m 198 944 l 117 944 l 117 1058 l 198 1058 l 198 944 m 189 0 q 114 -73 140 -41 q 88 -144 88 -106 q 101 -183 88 -165 q 149 -201 114 -201 q 187 -195 170 -201 q 220 -180 203 -189 l 236 -236 q 191 -257 216 -249 q 133 -266 166 -266 q 48 -236 81 -266 q 15 -151 15 -205 q 50 -57 15 -103 q 147 25 84 -11 l 189 0 z "},"İ":{"ha":376,"x_min":136,"x_max":238,"o":"m 229 0 l 147 0 l 147 987 l 229 987 l 229 0 m 238 1110 l 136 1110 l 136 1224 l 238 1224 l 238 1110 z "},"Ĳ":{"ha":1140,"x_min":147,"x_max":1017,"o":"m 229 0 l 147 0 l 147 987 l 229 987 l 229 0 m 935 987 l 1017 987 l 1017 280 q 936 65 1017 145 q 728 -14 856 -14 q 509 58 589 -14 q 431 268 428 130 l 433 272 l 509 272 q 566 110 509 165 q 728 54 623 54 q 877 116 819 54 q 935 280 935 177 l 935 987 z "},"ĳ":{"ha":644,"x_min":117,"x_max":518,"o":"m 198 0 l 117 0 l 117 734 l 198 734 l 198 0 m 198 944 l 117 944 l 117 1058 l 198 1058 l 198 944 m 518 734 l 518 -60 q 464 -235 518 -174 q 313 -296 410 -296 q 275 -293 293 -296 q 237 -283 257 -290 l 246 -215 q 276 -222 257 -218 q 309 -225 295 -225 q 404 -183 370 -225 q 437 -60 437 -142 l 437 734 l 518 734 m 514 947 l 433 947 l 433 1058 l 514 1058 l 514 947 z "},"Ĵ":{"ha":764,"x_min":52,"x_max":787,"o":"m 559 987 l 641 987 l 641 280 q 561 65 641 145 q 353 -14 480 -14 q 133 58 214 -14 q 56 268 52 130 l 57 272 l 133 272 q 190 110 133 165 q 353 54 247 54 q 501 116 443 54 q 559 280 559 177 l 559 987 m 787 1083 l 787 1071 l 711 1071 l 597 1185 l 485 1071 l 410 1071 l 410 1085 l 564 1235 l 631 1235 l 787 1083 z "},"ĵ":{"ha":317,"x_min":-79,"x_max":351,"o":"m 202 734 l 202 -60 q 148 -235 202 -174 q -3 -296 94 -296 q -41 -293 -23 -296 q -79 -283 -58 -290 l -70 -216 q -38 -223 -59 -220 q -3 -227 -17 -227 q 89 -183 56 -227 q 121 -60 121 -139 l 121 734 l 202 734 m 351 853 l 351 841 l 275 841 l 162 955 l 50 841 l -25 841 l -25 855 l 129 1005 l 195 1005 l 351 853 z "},"Ķ":{"ha":887,"x_min":130,"x_max":856,"o":"m 346 465 l 210 465 l 210 0 l 130 0 l 130 987 l 210 987 l 210 533 l 345 533 l 734 987 l 825 987 l 827 984 l 418 502 l 856 3 l 854 0 l 758 0 l 346 465 m 458 -167 l 402 -309 l 354 -309 l 389 -165 l 389 -84 l 458 -84 l 458 -167 z "},"ķ":{"ha":682,"x_min":108,"x_max":674,"o":"m 283 357 l 189 357 l 189 0 l 108 0 l 108 1058 l 189 1058 l 189 427 l 275 427 l 547 734 l 642 734 l 644 730 l 350 399 l 674 3 l 672 0 l 579 0 l 283 357 m 396 -165 l 340 -307 l 292 -307 l 327 -164 l 327 -83 l 396 -83 l 396 -165 z "},"Ĺ":{"ha":732,"x_min":120,"x_max":699,"o":"m 211 68 l 699 68 l 699 0 l 130 0 l 130 987 l 211 987 l 211 68 m 260 1194 l 360 1194 l 362 1190 l 193 1013 l 120 1013 l 260 1194 z "},"ĺ":{"ha":315,"x_min":108,"x_max":350,"o":"m 198 0 l 117 0 l 117 1058 l 198 1058 l 198 0 m 248 1278 l 348 1278 l 350 1274 l 181 1097 l 108 1097 l 248 1278 z "},"Ļ":{"ha":732,"x_min":130,"x_max":699,"o":"m 211 68 l 699 68 l 699 0 l 130 0 l 130 987 l 211 987 l 211 68 m 457 -165 l 401 -307 l 353 -307 l 388 -164 l 388 -83 l 457 -83 l 457 -165 z "},"ļ":{"ha":315,"x_min":88,"x_max":198,"o":"m 198 0 l 117 0 l 117 1058 l 198 1058 l 198 0 m 193 -165 l 136 -307 l 88 -307 l 123 -164 l 123 -83 l 193 -83 l 193 -165 z "},"Ľ":{"ha":732,"x_min":130,"x_max":699,"o":"m 211 68 l 699 68 l 699 0 l 130 0 l 130 987 l 211 987 l 211 68 m 492 905 l 436 763 l 388 763 l 423 906 l 423 987 l 492 987 l 492 905 z "},"ľ":{"ha":417,"x_min":117,"x_max":397,"o":"m 198 0 l 117 0 l 117 1058 l 198 1058 l 198 0 m 397 975 l 340 833 l 292 833 l 328 976 l 328 1057 l 397 1057 l 397 975 z "},"Ŀ":{"ha":732,"x_min":130,"x_max":699,"o":"m 211 68 l 699 68 l 699 0 l 130 0 l 130 987 l 211 987 l 211 68 m 515 467 l 412 467 l 412 581 l 515 581 l 515 467 z "},"ŀ":{"ha":465,"x_min":117,"x_max":399,"o":"m 198 0 l 117 0 l 117 1058 l 198 1058 l 198 0 m 399 475 l 297 475 l 297 589 l 399 589 l 399 475 z "},"Ń":{"ha":986,"x_min":130,"x_max":857,"o":"m 857 0 l 776 0 l 215 849 l 211 848 l 211 0 l 130 0 l 130 987 l 211 987 l 772 140 l 776 140 l 776 987 l 857 987 l 857 0 m 583 1236 l 682 1236 l 684 1232 l 515 1056 l 442 1056 l 583 1236 z "},"ń":{"ha":773,"x_min":107,"x_max":668,"o":"m 179 734 l 186 606 q 282 710 222 673 q 424 747 342 747 q 606 674 543 747 q 668 447 668 602 l 668 0 l 587 0 l 587 446 q 539 625 587 572 q 406 677 492 677 q 266 632 320 677 q 189 512 212 587 l 189 0 l 107 0 l 107 734 l 179 734 m 481 1018 l 581 1018 l 583 1014 l 414 838 l 341 838 l 481 1018 z "},"Ņ":{"ha":986,"x_min":130,"x_max":857,"o":"m 857 0 l 776 0 l 215 849 l 211 848 l 211 0 l 130 0 l 130 987 l 211 987 l 772 140 l 776 140 l 776 987 l 857 987 l 857 0 m 526 -165 l 469 -307 l 421 -307 l 456 -164 l 456 -83 l 526 -83 l 526 -165 z "},"ņ":{"ha":773,"x_min":107,"x_max":668,"o":"m 179 734 l 186 606 q 282 710 222 673 q 424 747 342 747 q 606 674 543 747 q 668 447 668 602 l 668 0 l 587 0 l 587 446 q 539 625 587 572 q 406 677 492 677 q 266 632 320 677 q 189 512 212 587 l 189 0 l 107 0 l 107 734 l 179 734 m 425 -165 l 368 -307 l 320 -307 l 355 -164 l 355 -83 l 425 -83 l 425 -165 z "},"Ň":{"ha":986,"x_min":130,"x_max":857,"o":"m 857 0 l 776 0 l 215 849 l 211 848 l 211 0 l 130 0 l 130 987 l 211 987 l 772 140 l 776 140 l 776 987 l 857 987 l 857 0 m 492 1137 l 605 1251 l 683 1251 l 683 1240 l 525 1087 l 459 1087 l 302 1240 l 302 1251 l 379 1251 l 492 1137 z "},"ň":{"ha":773,"x_min":107,"x_max":668,"o":"m 179 734 l 186 606 q 282 710 222 673 q 424 747 342 747 q 606 674 543 747 q 668 447 668 602 l 668 0 l 587 0 l 587 446 q 539 625 587 572 q 406 677 492 677 q 266 632 320 677 q 189 512 212 587 l 189 0 l 107 0 l 107 734 l 179 734 m 391 918 l 504 1033 l 582 1033 l 582 1021 l 424 869 l 358 869 l 201 1021 l 201 1033 l 278 1033 l 391 918 z "},"ŉ":{"ha":773,"x_min":-11,"x_max":668,"o":"m 179 734 l 186 606 q 282 710 222 673 q 424 747 342 747 q 606 674 543 747 q 668 447 668 602 l 668 0 l 587 0 l 587 446 q 539 625 587 572 q 406 677 492 677 q 266 632 320 677 q 189 512 212 587 l 189 0 l 107 0 l 107 734 l 179 734 m 94 973 l 37 831 l -11 831 l 24 975 l 24 1056 l 94 1056 l 94 973 z "},"Ō":{"ha":935,"x_min":84,"x_max":850,"o":"m 850 413 q 746 104 850 222 q 465 -14 641 -14 q 188 104 291 -14 q 84 413 84 222 l 84 574 q 187 883 84 764 q 464 1002 290 1002 q 745 883 640 1002 q 850 574 850 764 l 850 413 m 770 575 q 689 833 770 735 q 464 930 608 930 q 244 833 323 930 q 165 575 165 735 l 165 413 q 244 154 165 252 q 465 56 323 56 q 689 154 609 56 q 770 413 770 251 l 770 575 m 691 1160 l 237 1160 l 237 1225 l 691 1225 l 691 1160 z "},"ō":{"ha":773,"x_min":62,"x_max":711,"o":"m 62 378 q 151 644 62 540 q 386 747 239 747 q 622 644 533 747 q 711 378 711 540 l 711 355 q 622 89 711 193 q 387 -14 534 -14 q 151 89 239 -14 q 62 355 62 193 l 62 378 m 143 355 q 208 141 143 228 q 387 54 272 54 q 565 141 500 54 q 630 355 630 228 l 630 378 q 565 591 630 503 q 386 678 500 678 q 208 591 272 678 q 143 378 143 503 l 143 355 m 621 927 l 166 927 l 166 993 l 621 993 l 621 927 z "},"Ŏ":{"ha":935,"x_min":84,"x_max":850,"o":"m 850 413 q 746 104 850 222 q 465 -14 641 -14 q 188 104 291 -14 q 84 413 84 222 l 84 574 q 187 883 84 764 q 464 1002 290 1002 q 745 883 640 1002 q 850 574 850 764 l 850 413 m 770 575 q 689 833 770 735 q 464 930 608 930 q 244 833 323 930 q 165 575 165 735 l 165 413 q 244 154 165 252 q 465 56 323 56 q 689 154 609 56 q 770 413 770 251 l 770 575 m 656 1272 l 657 1267 q 608 1144 660 1192 q 465 1097 555 1097 q 322 1144 375 1097 q 273 1267 270 1192 l 275 1272 l 338 1272 q 369 1187 338 1219 q 465 1156 399 1156 q 561 1188 529 1156 q 592 1272 592 1221 l 656 1272 z "},"ŏ":{"ha":773,"x_min":62,"x_max":711,"o":"m 62 378 q 151 644 62 540 q 386 747 239 747 q 622 644 533 747 q 711 378 711 540 l 711 355 q 622 89 711 193 q 387 -14 534 -14 q 151 89 239 -14 q 62 355 62 193 l 62 378 m 143 355 q 208 141 143 228 q 387 54 272 54 q 565 141 500 54 q 630 355 630 228 l 630 378 q 565 591 630 503 q 386 678 500 678 q 208 591 272 678 q 143 378 143 503 l 143 355 m 585 1039 l 587 1035 q 537 911 589 959 q 395 864 485 864 q 252 912 304 864 q 203 1035 199 960 l 204 1039 l 268 1039 q 298 955 268 987 q 395 923 329 923 q 490 956 458 923 q 522 1039 522 988 l 585 1039 z "},"Ő":{"ha":935,"x_min":84,"x_max":850,"o":"m 850 413 q 746 104 850 222 q 465 -14 641 -14 q 188 104 291 -14 q 84 413 84 222 l 84 574 q 187 883 84 764 q 464 1002 290 1002 q 745 883 640 1002 q 850 574 850 764 l 850 413 m 770 575 q 689 833 770 735 q 464 930 608 930 q 244 833 323 930 q 165 575 165 735 l 165 413 q 244 154 165 252 q 465 56 323 56 q 689 154 609 56 q 770 413 770 251 l 770 575 m 673 1280 l 772 1280 l 773 1276 l 572 1100 l 496 1100 l 494 1104 l 673 1280 m 473 1280 l 564 1280 l 566 1276 l 399 1100 l 330 1100 l 328 1103 l 473 1280 z "},"ő":{"ha":773,"x_min":62,"x_max":711,"o":"m 62 378 q 151 644 62 540 q 386 747 239 747 q 622 644 533 747 q 711 378 711 540 l 711 355 q 622 89 711 193 q 387 -14 534 -14 q 151 89 239 -14 q 62 355 62 193 l 62 378 m 143 355 q 208 141 143 228 q 387 54 272 54 q 565 141 500 54 q 630 355 630 228 l 630 378 q 565 591 630 503 q 386 678 500 678 q 208 591 272 678 q 143 378 143 503 l 143 355 m 603 1048 l 701 1048 l 703 1044 l 502 867 l 425 867 l 424 871 l 603 1048 m 403 1048 l 493 1048 l 495 1044 l 329 867 l 260 867 l 258 871 l 403 1048 z "},"Ŕ":{"ha":914,"x_min":127,"x_max":836,"o":"m 208 446 l 208 0 l 127 0 l 127 987 l 462 987 q 705 917 621 987 q 790 714 790 848 q 745 573 790 635 q 616 483 699 511 q 748 400 708 460 q 789 252 789 341 l 789 159 q 800 76 789 113 q 836 16 810 39 l 836 0 l 753 0 q 718 68 728 24 q 707 160 707 113 l 707 250 q 649 394 707 341 q 485 446 590 446 l 208 446 m 208 515 l 452 515 q 647 569 585 515 q 709 715 709 623 q 647 865 709 812 q 462 918 586 918 l 208 918 l 208 515 m 505 1236 l 604 1236 l 606 1232 l 437 1056 l 364 1056 l 505 1236 z "},"ŕ":{"ha":473,"x_min":107,"x_max":471,"o":"m 445 664 l 385 668 q 259 625 308 668 q 189 507 210 582 l 189 0 l 107 0 l 107 734 l 178 734 l 189 612 l 189 604 q 274 709 220 671 q 401 747 328 747 q 432 745 417 747 q 456 740 446 743 l 445 664 m 370 1018 l 469 1018 l 471 1014 l 302 838 l 229 838 l 370 1018 z "},"Ŗ":{"ha":914,"x_min":127,"x_max":836,"o":"m 208 446 l 208 0 l 127 0 l 127 987 l 462 987 q 705 917 621 987 q 790 714 790 848 q 745 573 790 635 q 616 483 699 511 q 748 400 708 460 q 789 252 789 341 l 789 159 q 800 76 789 113 q 836 16 810 39 l 836 0 l 753 0 q 718 68 728 24 q 707 160 707 113 l 707 250 q 649 394 707 341 q 485 446 590 446 l 208 446 m 208 515 l 452 515 q 647 569 585 515 q 709 715 709 623 q 647 865 709 812 q 462 918 586 918 l 208 918 l 208 515 m 448 -165 l 391 -307 l 343 -307 l 378 -164 l 378 -83 l 448 -83 l 448 -165 z "},"ŗ":{"ha":473,"x_min":82,"x_max":456,"o":"m 445 664 l 385 668 q 259 625 308 668 q 189 507 210 582 l 189 0 l 107 0 l 107 734 l 178 734 l 189 612 l 189 604 q 274 709 220 671 q 401 747 328 747 q 432 745 417 747 q 456 740 446 743 l 445 664 m 186 -163 l 130 -304 l 82 -304 l 117 -161 l 117 -80 l 186 -80 l 186 -163 z "},"Ř":{"ha":914,"x_min":127,"x_max":836,"o":"m 208 446 l 208 0 l 127 0 l 127 987 l 462 987 q 705 917 621 987 q 790 714 790 848 q 745 573 790 635 q 616 483 699 511 q 748 400 708 460 q 789 252 789 341 l 789 159 q 800 76 789 113 q 836 16 810 39 l 836 0 l 753 0 q 718 68 728 24 q 707 160 707 113 l 707 250 q 649 394 707 341 q 485 446 590 446 l 208 446 m 208 515 l 452 515 q 647 569 585 515 q 709 715 709 623 q 647 865 709 812 q 462 918 586 918 l 208 918 l 208 515 m 414 1137 l 527 1251 l 605 1251 l 605 1240 l 447 1087 l 381 1087 l 224 1240 l 224 1251 l 301 1251 l 414 1137 z "},"ř":{"ha":473,"x_min":90,"x_max":471,"o":"m 445 664 l 385 668 q 259 625 308 668 q 189 507 210 582 l 189 0 l 107 0 l 107 734 l 178 734 l 189 612 l 189 604 q 274 709 220 671 q 401 747 328 747 q 432 745 417 747 q 456 740 446 743 l 445 664 m 281 918 l 393 1033 l 471 1033 l 471 1021 l 313 869 l 248 869 l 90 1021 l 90 1033 l 168 1033 l 281 918 z "},"Ś":{"ha":835,"x_min":64,"x_max":776,"o":"m 694 242 q 634 374 694 323 q 424 465 574 425 q 178 570 262 505 q 95 746 95 635 q 188 930 95 859 q 428 1002 281 1002 q 674 917 581 1002 q 765 710 768 832 l 763 706 l 688 706 q 618 869 688 805 q 428 932 548 932 q 242 880 309 932 q 176 748 176 827 q 237 624 176 673 q 450 536 299 574 q 693 426 610 495 q 776 243 776 357 q 679 56 776 125 q 433 -14 583 -14 q 175 60 285 -14 q 68 277 64 134 l 69 281 l 144 281 q 230 110 144 165 q 433 54 316 54 q 622 106 550 54 q 694 242 694 157 m 511 1251 l 610 1251 l 612 1246 l 444 1070 l 370 1070 l 511 1251 z "},"ś":{"ha":707,"x_min":71,"x_max":627,"o":"m 547 186 q 504 277 547 238 q 351 340 462 315 q 157 415 220 368 q 94 547 94 462 q 165 689 94 631 q 353 747 236 747 q 549 686 477 747 q 618 532 622 625 l 617 528 l 542 528 q 491 633 542 589 q 353 678 439 678 q 219 640 264 678 q 175 550 175 602 q 213 466 175 499 q 366 408 252 433 q 562 328 497 378 q 627 191 627 277 q 553 42 627 99 q 357 -14 479 -14 q 147 50 223 -14 q 75 201 71 113 l 76 205 l 151 205 q 215 90 155 126 q 357 54 275 54 q 496 93 445 54 q 547 186 547 132 m 442 1018 l 542 1018 l 544 1014 l 375 838 l 302 838 l 442 1018 z "},"Ŝ":{"ha":835,"x_min":64,"x_max":776,"o":"m 694 242 q 634 374 694 323 q 424 465 574 425 q 178 570 262 505 q 95 746 95 635 q 188 930 95 859 q 428 1002 281 1002 q 674 917 581 1002 q 765 710 768 832 l 763 706 l 688 706 q 618 869 688 805 q 428 932 548 932 q 242 880 309 932 q 176 748 176 827 q 237 624 176 673 q 450 536 299 574 q 693 426 610 495 q 776 243 776 357 q 679 56 776 125 q 433 -14 583 -14 q 175 60 285 -14 q 68 277 64 134 l 69 281 l 144 281 q 230 110 144 165 q 433 54 316 54 q 622 106 550 54 q 694 242 694 157 m 610 1112 l 610 1100 l 534 1100 l 421 1214 l 309 1100 l 234 1100 l 234 1114 l 388 1264 l 454 1264 l 610 1112 z "},"ŝ":{"ha":707,"x_min":71,"x_max":627,"o":"m 547 186 q 504 277 547 238 q 351 340 462 315 q 157 415 220 368 q 94 547 94 462 q 165 689 94 631 q 353 747 236 747 q 549 686 477 747 q 618 532 622 625 l 617 528 l 542 528 q 491 633 542 589 q 353 678 439 678 q 219 640 264 678 q 175 550 175 602 q 213 466 175 499 q 366 408 252 433 q 562 328 497 378 q 627 191 627 277 q 553 42 627 99 q 357 -14 479 -14 q 147 50 223 -14 q 75 201 71 113 l 76 205 l 151 205 q 215 90 155 126 q 357 54 275 54 q 496 93 445 54 q 547 186 547 132 m 542 880 l 542 867 l 466 867 l 353 981 l 240 867 l 165 867 l 165 882 l 319 1031 l 386 1031 l 542 880 z "},"Ş":{"ha":835,"x_min":64,"x_max":776,"o":"m 694 242 q 634 374 694 323 q 424 465 574 425 q 178 570 262 505 q 95 746 95 635 q 188 930 95 859 q 428 1002 281 1002 q 674 917 581 1002 q 765 710 768 832 l 763 706 l 688 706 q 618 869 688 805 q 428 932 548 932 q 242 880 309 932 q 176 748 176 827 q 237 624 176 673 q 450 536 299 574 q 693 426 610 495 q 776 243 776 357 q 679 56 776 125 q 433 -14 583 -14 q 175 60 285 -14 q 68 277 64 134 l 69 281 l 144 281 q 230 110 144 165 q 433 54 316 54 q 622 106 550 54 q 694 242 694 157 m 455 -5 l 447 -49 q 533 -82 500 -55 q 566 -165 566 -109 q 513 -263 566 -227 q 359 -300 459 -300 l 355 -248 q 457 -227 416 -248 q 499 -166 499 -206 q 471 -112 499 -127 q 372 -92 443 -97 l 392 -5 l 455 -5 z "},"ş":{"ha":707,"x_min":71,"x_max":627,"o":"m 547 186 q 504 277 547 238 q 351 340 462 315 q 157 415 220 368 q 94 547 94 462 q 165 689 94 631 q 353 747 236 747 q 549 686 477 747 q 618 532 622 625 l 617 528 l 542 528 q 491 633 542 589 q 353 678 439 678 q 219 640 264 678 q 175 550 175 602 q 213 466 175 499 q 366 408 252 433 q 562 328 497 378 q 627 191 627 277 q 553 42 627 99 q 357 -14 479 -14 q 147 50 223 -14 q 75 201 71 113 l 76 205 l 151 205 q 215 90 155 126 q 357 54 275 54 q 496 93 445 54 q 547 186 547 132 m 387 -3 l 378 -47 q 465 -80 432 -53 q 498 -163 498 -106 q 444 -261 498 -224 q 291 -298 391 -298 l 286 -245 q 389 -225 347 -245 q 431 -164 431 -204 q 402 -110 431 -125 q 304 -90 374 -95 l 323 -3 l 387 -3 z "},"Ș":{"ha":835,"x_min":64,"x_max":776,"o":"m 694 242 q 634 374 694 323 q 424 465 574 425 q 178 570 262 505 q 95 746 95 635 q 188 930 95 859 q 428 1002 281 1002 q 674 917 581 1002 q 765 710 768 832 l 763 706 l 688 706 q 618 869 688 805 q 428 932 548 932 q 242 880 309 932 q 176 748 176 827 q 237 624 176 673 q 450 536 299 574 q 693 426 610 495 q 776 243 776 357 q 679 56 776 125 q 433 -14 583 -14 q 175 60 285 -14 q 68 277 64 134 l 69 281 l 144 281 q 230 110 144 165 q 433 54 316 54 q 622 106 550 54 q 694 242 694 157 m 454 -179 l 397 -321 l 349 -321 l 385 -178 l 385 -96 l 454 -96 l 454 -179 z "},"ș":{"ha":707,"x_min":71,"x_max":627,"o":"m 547 186 q 504 277 547 238 q 351 340 462 315 q 157 415 220 368 q 94 547 94 462 q 165 689 94 631 q 353 747 236 747 q 549 686 477 747 q 618 532 622 625 l 617 528 l 542 528 q 491 633 542 589 q 353 678 439 678 q 219 640 264 678 q 175 550 175 602 q 213 466 175 499 q 366 408 252 433 q 562 328 497 378 q 627 191 627 277 q 553 42 627 99 q 357 -14 479 -14 q 147 50 223 -14 q 75 201 71 113 l 76 205 l 151 205 q 215 90 155 126 q 357 54 275 54 q 496 93 445 54 q 547 186 547 132 m 385 -177 l 329 -319 l 281 -319 l 316 -176 l 316 -94 l 385 -94 l 385 -177 z "}}}
